<svg width="603" height="420" viewBox="0 0 603 420" fill="none" xmlns="http://www.w3.org/2000/svg">
<g clip-path="url(#clip0_31_2)">
<path fill-rule="evenodd" clip-rule="evenodd" d="M-1.07524 122.806C27.154 129.638 112.251 151.825 122.836 159.743C128.417 163.93 108.884 148.604 104.596 144.89C104.596 144.89 106.252 145.215 105.75 140.175C105.275 135.292 103.368 129.963 97.7505 127.912C86.3192 123.716 83.7986 128.747 83.7986 128.747C87.6865 112.855 72.6371 109.865 66.182 120.912C66.182 120.912 70.721 105.697 55.1322 102.671C39.5433 99.6448 36.1855 116.512 36.1855 116.512C36.1855 116.512 33.2463 108.566 26.6518 107.805C22.3081 107.303 16.9227 113.04 15.3229 119.381C15.0531 120.448 11.2024 119.464 9.6584 119.798C6.41226 120.522 -1.19615 122.815 -1.07524 122.806Z" fill="white"/>
<path fill-rule="evenodd" clip-rule="evenodd" d="M460.868 125.632C492.549 136.388 587.837 170.861 598.883 181.893C604.736 187.706 584.552 166.449 580.143 161.308C580.143 161.308 582.006 161.848 582.248 155.252C582.48 148.864 581.146 141.804 574.939 138.705C562.329 132.494 558.636 138.87 558.636 138.87C565.735 118.44 548.714 113.553 539.444 127.508C539.444 127.508 547.16 107.993 529.522 103.04C511.885 98.0868 505.127 119.885 505.127 119.885C505.127 119.885 503 109.339 495.449 107.916C490.488 106.978 483.323 114.093 480.412 122.257C479.927 123.625 475.617 122.102 473.798 122.422C469.885 123.106 460.669 125.632 460.868 125.632Z" fill="white"/>
<path fill-rule="evenodd" clip-rule="evenodd" d="M346.377 378.515C367.322 384.648 431.601 412.15 443.682 420.037C430.454 414.522 362.428 390.252 335.144 382.53C332.356 381.725 319.59 378.603 322.181 374.014C322.522 368.256 343.434 377.699 346.377 378.515Z" fill="#CF7866"/>
<path fill-rule="evenodd" clip-rule="evenodd" d="M44.0893 286.413C47.3964 287.384 50.7034 288.62 53.9444 289.888C56.1491 290.782 73.6214 297.61 72.938 300.743C71.4828 302.266 54.1979 296.121 51.9932 295.448C48.7523 294.477 45.5224 293.518 42.2704 292.591C41.6751 292.415 41.0358 292.249 40.4405 292.062C39.1397 291.631 37.7838 291.344 36.483 290.881C34.62 290.341 34.9287 290.186 34.576 288.057C34.2232 285.928 33.2752 285.134 37.4311 285.178C39.0044 285.234 40.5657 285.475 42.083 285.895C42.7554 286.049 43.4058 286.226 44.0893 286.413Z" fill="#CF7866"/>
<path fill-rule="evenodd" clip-rule="evenodd" d="M398.949 386.005C401.727 387.417 404.461 389.028 407.084 390.672C409.708 392.315 420.897 398.923 422.209 401.218C422.991 402.266 407.415 395.636 404.571 394.411C401.727 393.187 398.938 391.863 396.171 390.495C392.621 388.642 392.599 388.851 393.966 386.082C395.432 383.049 395.245 384.24 398.949 386.005Z" fill="#CF7866"/>
<path fill-rule="evenodd" clip-rule="evenodd" d="M412.75 304.968C412.849 306.413 393.68 297.632 392.577 297.092C389.028 295.239 389.006 295.448 390.372 292.679C390.835 291.764 409.201 300.964 412.75 304.968Z" fill="#CF7866"/>
<path fill-rule="evenodd" clip-rule="evenodd" d="M494.237 391.543C492.815 397.059 485.682 391.808 489.827 388.796C490.28 388.478 490.817 388.3 491.37 388.285C491.924 388.27 492.47 388.417 492.94 388.71C493.41 389.003 493.783 389.428 494.014 389.931C494.244 390.435 494.322 390.996 494.237 391.543Z" fill="#D06C19"/>
<path fill-rule="evenodd" clip-rule="evenodd" d="M483.566 399.806C490.72 404.031 480.512 412.05 477.911 405.023C476.687 401.736 479.675 398.416 483.566 399.806Z" fill="#DC9318"/>
<path fill-rule="evenodd" clip-rule="evenodd" d="M504.334 404.891C508.182 407.164 502.692 411.51 501.292 407.693C501.121 407.276 501.082 406.817 501.18 406.377C501.277 405.937 501.507 405.538 501.839 405.233C502.17 404.927 502.587 404.731 503.033 404.67C503.479 404.609 503.933 404.686 504.334 404.891Z" fill="#D06C19"/>
<path fill-rule="evenodd" clip-rule="evenodd" d="M492.848 352.348C491.415 357.864 484.293 352.613 488.438 349.601C488.891 349.283 489.428 349.105 489.982 349.09C490.535 349.075 491.081 349.223 491.551 349.516C492.021 349.808 492.394 350.233 492.625 350.737C492.856 351.24 492.933 351.801 492.848 352.348Z" fill="#D06C19"/>
<path fill-rule="evenodd" clip-rule="evenodd" d="M505.569 368.565C512.051 364.737 502.813 357.478 500.454 363.843C499.363 366.811 502.041 369.822 505.569 368.565Z" fill="#DC9318"/>
<path fill-rule="evenodd" clip-rule="evenodd" d="M513.605 388.245C517.452 390.517 511.963 394.863 510.563 391.047C510.392 390.63 510.353 390.17 510.45 389.731C510.548 389.291 510.778 388.891 511.109 388.586C511.441 388.281 511.858 388.085 512.304 388.024C512.75 387.963 513.204 388.04 513.605 388.245Z" fill="#DC9318"/>
<path fill-rule="evenodd" clip-rule="evenodd" d="M467.042 252.856L462.125 266.998C466.953 264.108 471.793 261.225 476.643 258.349C474.383 256.595 470.029 252.646 467.758 251.808L467.042 252.856Z" fill="#DC9318"/>
<path fill-rule="evenodd" clip-rule="evenodd" d="M23.6186 160.578L40.0878 166.844C36.8248 161.019 33.5729 155.194 30.3319 149.37C28.2044 151.984 23.4091 157.026 22.3398 159.695L23.6186 160.578Z" fill="#C42B23"/>
<path fill-rule="evenodd" clip-rule="evenodd" d="M256.161 31.3665L261.32 14.4774C255.742 18.0883 250.157 21.7324 244.564 25.4095C247.309 27.3731 252.633 31.8519 255.367 32.7344L256.161 31.3665Z" fill="#7B8232"/>
<path fill-rule="evenodd" clip-rule="evenodd" d="M476.687 164.946L462.467 169.359L478.032 175.911C478.098 173.054 478.671 167.197 478.032 164.88L476.687 164.946Z" fill="#7B8232"/>
<path fill-rule="evenodd" clip-rule="evenodd" d="M106.84 37.7055L90.3933 44.0706C96.6988 46.2181 102.997 48.3765 109.288 50.5461C109.133 47.1704 109.288 40.1986 108.351 37.5069L106.84 37.7055Z" fill="#DC9318"/>
<path fill-rule="evenodd" clip-rule="evenodd" d="M248.378 281.681C248.378 281.681 235.899 316.408 230.388 328.245C230.094 329.81 229.489 331.3 228.608 332.627C227.728 333.953 226.59 335.089 225.262 335.967C217.38 340.776 203.733 345.332 204.041 351.995C204.504 362.266 219.64 356.165 233.584 353.639C246.868 351.234 243.792 350.804 249.899 339.684L273.655 297.257L248.378 281.681Z" fill="#E6B59F"/>
<path fill-rule="evenodd" clip-rule="evenodd" d="M200.624 352.381C200.433 353.28 200.366 354.2 200.425 355.117C200.514 356.397 200.425 358.747 201.715 359.442C204.383 360.909 208.462 364.77 254.772 356.562L254.143 351.797L200.624 352.381Z" fill="#32082F"/>
<path fill-rule="evenodd" clip-rule="evenodd" d="M235.161 337.125C236.263 337.787 239.967 338.868 247.959 335.106C249.293 334.477 252.611 332.359 253.129 338.747L254.232 352.161C245.325 353.407 207.018 361.67 201.627 355.404C199.698 353.198 200.525 349.888 206.037 346.215C210.306 343.693 214.723 341.431 219.265 339.442C224.292 337.114 225.295 334.61 226.32 331.929C227.918 327.726 232.868 329.999 234.654 331.929C236.01 333.529 233.992 336.496 235.161 337.125Z" fill="#B81916"/>
<path fill-rule="evenodd" clip-rule="evenodd" d="M216.608 352.205C216.413 350.334 215.687 348.559 214.514 347.088C213.342 345.618 211.773 344.515 209.994 343.909C208.418 344.748 207.04 345.52 205.992 346.215C202.553 348.421 200.944 350.561 200.657 352.381C200.57 352.922 200.608 353.475 200.766 353.998C200.925 354.522 201.2 355.003 201.572 355.404C203.435 357.61 209.288 358.007 216.443 357.61C216.766 355.827 216.821 354.005 216.608 352.205Z" fill="#32082F"/>
<path fill-rule="evenodd" clip-rule="evenodd" d="M245.545 340.721C246.387 340.578 247.252 340.696 248.025 341.057C248.798 341.419 249.443 342.007 249.874 342.745C250.304 343.482 250.5 344.334 250.435 345.185C250.37 346.037 250.047 346.848 249.51 347.512C248.972 348.175 248.245 348.659 247.426 348.899C246.607 349.139 245.734 349.123 244.924 348.854C244.114 348.585 243.405 348.075 242.892 347.393C242.378 346.711 242.085 345.888 242.051 345.034C241.946 343.999 242.254 342.965 242.909 342.157C243.564 341.348 244.511 340.832 245.545 340.721Z" fill="#EBEBEB"/>
<path fill-rule="evenodd" clip-rule="evenodd" d="M213.742 342.111C213.668 342.114 213.594 342.102 213.524 342.076C213.455 342.049 213.392 342.009 213.338 341.958C213.285 341.906 213.242 341.844 213.213 341.776C213.184 341.707 213.169 341.634 213.169 341.56C213.166 341.485 213.178 341.41 213.204 341.34C213.23 341.27 213.27 341.206 213.322 341.151C213.373 341.097 213.435 341.053 213.503 341.023C213.572 340.993 213.645 340.976 213.72 340.975C213.72 340.975 218.581 340.809 219.761 345.156C219.786 345.297 219.757 345.442 219.68 345.563C219.603 345.684 219.484 345.772 219.346 345.809C219.208 345.846 219.061 345.83 218.933 345.765C218.806 345.699 218.708 345.588 218.659 345.454C217.722 342.012 213.764 342.111 213.742 342.111Z" fill="#EBEBEB"/>
<path fill-rule="evenodd" clip-rule="evenodd" d="M217.578 340.258C217.429 340.28 217.277 340.243 217.156 340.154C217.034 340.065 216.952 339.932 216.928 339.784C216.905 339.634 216.943 339.483 217.031 339.361C217.12 339.239 217.253 339.157 217.402 339.133C217.402 339.133 222.153 338.294 222.814 343.777C222.837 343.855 222.842 343.937 222.83 344.017C222.818 344.097 222.788 344.173 222.744 344.241C222.7 344.309 222.641 344.366 222.572 344.409C222.504 344.452 222.427 344.48 222.346 344.49C222.266 344.501 222.185 344.494 222.107 344.47C222.03 344.446 221.959 344.405 221.898 344.351C221.838 344.297 221.79 344.23 221.758 344.156C221.726 344.082 221.71 344.001 221.712 343.92C221.161 339.629 217.589 340.258 217.578 340.258Z" fill="#EBEBEB"/>
<path fill-rule="evenodd" clip-rule="evenodd" d="M221.051 338.526C220.922 338.517 220.8 338.464 220.704 338.377C220.609 338.289 220.546 338.172 220.525 338.044C220.505 337.917 220.528 337.786 220.592 337.673C220.655 337.56 220.755 337.472 220.874 337.423C220.874 337.423 225.614 336.595 226.287 342.078C226.272 342.205 226.215 342.323 226.125 342.414C226.036 342.505 225.918 342.563 225.792 342.579C225.665 342.596 225.537 342.57 225.427 342.505C225.317 342.44 225.231 342.34 225.185 342.221C224.633 337.886 221.062 338.515 221.051 338.526Z" fill="#EBEBEB"/>
<path fill-rule="evenodd" clip-rule="evenodd" d="M224.038 336C223.889 336.022 223.737 335.985 223.616 335.896C223.494 335.807 223.412 335.674 223.388 335.525C223.365 335.376 223.403 335.224 223.491 335.103C223.58 334.981 223.713 334.899 223.862 334.875C223.862 334.875 228.613 334.036 229.274 339.519C229.297 339.597 229.302 339.678 229.29 339.759C229.278 339.839 229.248 339.915 229.204 339.983C229.16 340.051 229.101 340.108 229.032 340.151C228.964 340.194 228.887 340.222 228.806 340.232C228.726 340.243 228.645 340.236 228.567 340.212C228.49 340.188 228.419 340.147 228.358 340.093C228.298 340.039 228.25 339.972 228.218 339.898C228.186 339.824 228.17 339.743 228.172 339.662C227.621 335.393 224.049 336 224.038 336Z" fill="#EBEBEB"/>
<path fill-rule="evenodd" clip-rule="evenodd" d="M302.118 228.201C302.118 228.201 256.381 250.451 252.049 264.373L322.203 286.347L331.176 253.352L302.118 228.201Z" fill="#1B4D7B"/>
<path fill-rule="evenodd" clip-rule="evenodd" d="M299.109 264.306C299.003 264.199 298.944 264.054 298.944 263.904C298.944 263.753 299.003 263.608 299.109 263.501C299.157 263.445 299.216 263.4 299.282 263.367C299.348 263.334 299.42 263.314 299.494 263.309C299.568 263.304 299.642 263.313 299.712 263.337C299.782 263.36 299.847 263.397 299.902 263.446L312.028 273.804C312.142 273.903 312.213 274.042 312.224 274.192C312.235 274.342 312.187 274.49 312.089 274.604C311.991 274.718 311.852 274.789 311.702 274.8C311.552 274.812 311.404 274.763 311.29 274.665L299.109 264.306Z" fill="#033352"/>
<path fill-rule="evenodd" clip-rule="evenodd" d="M477.867 342.916C477.867 342.916 471.605 347.506 460.979 347.164C454.982 346.976 459.105 347.351 466.358 349.844C484.481 356.088 467.119 371.234 491.117 373.01C494.678 373.286 484.26 377.71 469.731 372.944C469.731 372.944 471.253 380.898 479.289 381.162C482.463 381.273 477.084 382.729 474.879 384.075C471.627 386.149 468.508 388.09 456.47 385.498C436.572 381.207 463.823 393.054 470.911 392.845C477.999 392.635 454.309 404.362 424.557 391.808C401.407 382.056 402.168 367.164 401.98 357.158C401.694 341.24 417.292 328.234 432.251 327.373C458.884 325.95 466.512 344.615 477.867 342.916Z" fill="#DC9318"/>
<path fill-rule="evenodd" clip-rule="evenodd" d="M437.631 382.266C436.525 379.006 434.339 376.223 431.435 374.378C428.646 372.558 430.653 373.672 434.82 374.566C445.226 376.772 444.101 368.609 459.369 373.893C461.232 374.544 452.7 364.273 444.421 362.332C444.421 362.332 448.478 359.199 452.215 361.637C455.952 364.075 452.314 355.801 441.775 351.863C431.237 347.925 448.775 348.862 451.928 351.267C453.802 352.701 444.972 338.349 430.013 340.081C411.097 342.288 403.413 361.041 414.812 373.176C426.706 385.917 435.999 380.622 437.631 382.266Z" fill="#D06C19"/>
<path fill-rule="evenodd" clip-rule="evenodd" d="M69.708 198.978L368.998 297.081C387.738 310.848 420.809 325.222 412.122 351.808C408.815 361.791 403.38 370.021 397.108 375.294C384.332 386.049 366.716 376.761 352.308 370.958C254.143 331.4 152.892 296.971 45.853 272.326L69.708 198.978Z" fill="#C42B23"/>
<path fill-rule="evenodd" clip-rule="evenodd" d="M87.7095 204.88L357.401 293.286C384.574 303.964 425.747 309.833 412.122 351.808C407.713 365.189 406.963 363.998 403.38 368.664C392.511 372.591 374.576 362.751 346.675 350.914L69.9175 259.486L87.7095 204.88Z" fill="#CF6561"/>
<path fill-rule="evenodd" clip-rule="evenodd" d="M69.7081 198.978C167.674 223.247 263.326 252.823 354.557 292.348L347.237 314.996L62.3223 221.615L69.7081 198.978Z" fill="#E05555"/>
<path fill-rule="evenodd" clip-rule="evenodd" d="M52.2136 252.657L62.3222 221.615L347.182 314.985L337.062 346.027L52.2136 252.657Z" fill="#E22A16"/>
<path fill-rule="evenodd" clip-rule="evenodd" d="M338.419 365.178C237.002 330.164 133.38 298.25 45.8201 272.282L52.2137 252.657C149.607 277.235 244.729 307.914 337.063 346.027L338.419 365.178Z" fill="#931810"/>
<path fill-rule="evenodd" clip-rule="evenodd" d="M69.6971 199C72.5302 209.204 71.8247 223.556 66.9964 238.371C62.9948 250.661 56.2815 263.832 45.8201 272.271C35.3918 259.276 25.0848 246.127 14.3258 233.385C-0.203287 216.198 0.0943508 216.838 23.0785 211.322C38.6879 207.55 54.198 203.159 69.6971 199Z" fill="#E6B59F"/>
<path fill-rule="evenodd" clip-rule="evenodd" d="M16.2658 235.713C-0.490052 215.856 -0.930996 217.169 24.313 211.025C25.8267 213.074 26.8363 215.451 27.2596 217.964C27.6829 220.477 27.508 223.054 26.7492 225.487C25.9333 227.899 24.5579 230.083 22.7357 231.861C20.9134 233.638 18.6962 234.958 16.2658 235.713Z" fill="#4F2400"/>
<path fill-rule="evenodd" clip-rule="evenodd" d="M334.836 285.884C339.797 295.978 339.113 315.393 334.141 330.627C329.17 345.862 325.719 350.98 318.708 357.875L338.066 365.178C345.11 358.283 349.277 352.448 354.237 337.213C359.198 321.979 359.893 302.563 354.921 292.47L334.836 285.884Z" fill="#C4C4C4"/>
<path fill-rule="evenodd" clip-rule="evenodd" d="M324.871 282.619L330.239 284.373C331.879 289.952 332.623 295.757 332.444 301.571C332.221 310.663 330.646 319.672 327.77 328.3C324.286 338.978 320.34 347.285 312.645 355.636L308.346 353.915C315.776 346.391 320.185 336.695 323.382 326.866C326.148 318.607 327.664 309.98 327.88 301.273C328.012 293.981 326.965 287.561 324.871 282.619Z" fill="#D8D8D8"/>
<path fill-rule="evenodd" clip-rule="evenodd" d="M362.67 295.007L368.039 296.772C369.685 302.35 370.429 308.156 370.244 313.97C369.979 332.183 362.252 356.198 349.817 369.701L345.033 368.134C357.644 355.36 365.415 331.433 365.68 313.672C365.823 306.38 364.776 299.949 362.67 295.007Z" fill="#D8D8D8"/>
<path fill-rule="evenodd" clip-rule="evenodd" d="M45.82 272.271C51.5192 267.497 56.2558 261.679 59.7758 255.128L60.0404 254.643C60.2168 254.323 60.3932 254.003 60.5585 253.683C57.968 252.834 55.3774 251.885 52.842 250.826C41.7439 246.389 31.5461 239.967 22.7477 231.874C20.9093 233.617 18.7065 234.928 16.2989 235.713L14.8328 233.97C25.4264 246.524 35.5791 259.475 45.8531 272.271H45.82Z" fill="#CF7866"/>
<path fill-rule="evenodd" clip-rule="evenodd" d="M165.348 213.396C152.998 212.631 140.603 213 128.32 214.499C128.32 214.499 145.363 234.124 138.087 260.214L168.435 250.881C168.435 250.881 187.781 235.007 196.876 223.788L165.348 213.396Z" fill="#033352"/>
<path fill-rule="evenodd" clip-rule="evenodd" d="M355.031 70.7819C388.686 48.366 405.276 76.6727 405.276 76.6727C423.311 78.4928 453.306 94.7642 435.04 134.742C419.166 174.257 424.457 203.6 437.41 219.375C403.028 226.116 334.527 201.184 316.416 168.884C316.537 131.477 329.754 87.6269 355.031 70.7819Z" fill="#4D1400"/>
<path fill-rule="evenodd" clip-rule="evenodd" d="M445.821 235.117C448.368 233.132 461.596 222.894 463.139 224.086C464.859 225.41 459.06 230.33 459.06 230.33C459.06 230.33 467.46 224.637 468.475 226.502C469.489 228.366 462.379 233.893 462.379 233.893C462.379 233.893 469.886 230.837 470.8 232.922C471.715 235.007 460.714 238.945 460.714 238.945C460.714 238.945 469.676 236.86 469.61 239.287C469.544 241.714 455.412 245.023 455.412 245.023C455.412 245.023 451.002 247.053 456.051 249.822C461.1 252.591 463.845 254.499 460.813 255.614C457.782 256.728 449.161 254.202 447.188 253.087C445.215 251.973 443.131 251.135 441.511 248.84L425.284 239.938L435.205 225.531L445.821 235.117Z" fill="#E6B59F"/>
<path fill-rule="evenodd" clip-rule="evenodd" d="M343.985 157.665C371.225 162.144 383.67 171.201 374.587 254.257L371.743 267.494C362.24 260.71 303.397 242.619 301.423 231.091C302.449 228.884 298.249 229.535 299.549 225.575C303.959 212.216 313.483 194.113 322.258 178.89C328.971 167.274 333.877 156 343.985 157.665Z" fill="#E22A16"/>
<path fill-rule="evenodd" clip-rule="evenodd" d="M255.962 167.859C255.224 164.715 251.31 148.421 249.348 148.377C247.143 148.377 248.632 155.801 248.632 155.801C248.632 155.801 245.644 146.093 243.693 146.899C241.742 147.704 243.825 156.496 243.825 156.496C243.825 156.496 239.879 149.392 237.862 150.44C235.844 151.488 241.962 161.471 241.962 161.471C241.962 161.471 236.274 154.224 234.819 156.154C233.364 158.085 242.293 169.557 242.293 169.557C242.293 169.557 244.498 173.904 238.799 172.867C233.099 171.83 229.803 171.62 231.479 174.4C233.155 177.18 241.4 180.622 243.671 181.019C251.95 182.398 260.206 182.961 268.948 184.527L270.216 167.064L255.962 167.859Z" fill="#E6B59F"/>
<path fill-rule="evenodd" clip-rule="evenodd" d="M354.48 166.027C354.48 166.027 335.277 147.108 257.318 166.866C257.318 166.866 253.636 169.701 256.888 185.619C256.888 185.619 315.842 199.232 334.141 192.161L354.48 166.027Z" fill="#E22A16"/>
<path fill-rule="evenodd" clip-rule="evenodd" d="M291.249 311.808C291.249 311.808 287.589 348.52 285.064 361.361C285.166 362.955 284.944 364.554 284.414 366.061C283.884 367.568 283.055 368.952 281.978 370.131C275.496 376.75 263.359 384.472 265.266 390.848C268.209 400.699 281.416 391.091 294.324 385.255C306.637 379.684 301.919 378.736 305.149 366.502L320.781 320.467L291.249 311.808Z" fill="#E6B59F"/>
<path fill-rule="evenodd" clip-rule="evenodd" d="M365.801 164.836C365.801 164.836 380.936 166.656 405.1 187.814C415.716 197.125 432.218 216.022 445.821 234.312C444.628 237.936 442.459 241.161 439.554 243.633C436.648 246.104 433.119 247.727 429.352 248.322C429.352 248.322 397.736 228.52 380.793 211.995C380.275 211.488 377.365 210.672 376.88 210.164C373.782 207.02 373.683 204.328 372.129 201.637L365.801 164.836Z" fill="#E22A16"/>
<path fill-rule="evenodd" clip-rule="evenodd" d="M372.922 255.459C372.922 255.459 374.212 282.751 365.691 293.121C357.17 303.49 324.639 309.337 316.449 344.009L284.05 336.287C284.05 336.287 293.42 282.365 319.326 270.241L323.426 254.224L372.922 255.459Z" fill="#1B4D7B"/>
<path fill-rule="evenodd" clip-rule="evenodd" d="M384.442 172.128L377.244 168.156C364.522 182.089 360.907 193.087 343.346 184.527C332.323 179.166 335.63 173.01 342.332 157.643L333.833 157.776C324.829 167.632 317.296 178.737 311.466 190.749C309.102 195.632 307.015 200.644 305.216 205.763L299.836 220.004L295.757 231.477C295.757 231.477 299.979 258.537 364.577 264.439V264.351L371.82 264.737C373.705 258.967 380.76 228.013 381.51 216.198C381.675 213.749 382.094 213.407 381.51 212.834C380.925 212.26 380.242 211.168 379.647 211.014C357.247 204.737 374.421 182.696 384.442 172.128Z" fill="#1B4D7B"/>
<path fill-rule="evenodd" clip-rule="evenodd" d="M289.783 325.222C296.727 328.156 310.518 331.223 320.417 331.962C323.724 332.216 319.26 342.994 316.746 344.527C312.337 347.152 304.356 345.63 299.406 344.648C296.353 344.064 283.698 339.607 283.213 336C282.91 333.367 283.158 330.7 283.94 328.167C285.77 322.155 285.572 323.446 289.783 325.222Z" fill="#033352"/>
<path fill-rule="evenodd" clip-rule="evenodd" d="M262.091 389.988C262.091 389.988 262.091 395.205 264.902 396.022C267.713 396.838 275.154 400.644 313.56 382.012L312.282 378.129L262.091 389.988Z" fill="#32082F"/>
<path fill-rule="evenodd" clip-rule="evenodd" d="M291.304 368.355C292.505 368.741 296.198 368.973 302.923 363.755C304.025 362.883 306.715 360.192 308.534 366.082L312.37 378.471C304.256 381.515 269.984 397.368 263.59 392.624C261.309 390.936 261.386 387.649 265.795 383.049C269.282 379.78 272.963 376.727 276.819 373.904C281.052 370.594 281.46 368.079 281.857 365.343C282.485 361.063 287.622 362.144 289.705 363.622C291.359 364.792 290.069 367.969 291.304 368.355Z" fill="#B81916"/>
<path fill-rule="evenodd" clip-rule="evenodd" d="M277.028 386.458C276.464 384.741 275.418 383.223 274.014 382.086C272.61 380.95 270.909 380.242 269.113 380.048C267.961 380.992 266.857 381.994 265.806 383.049C263.039 385.873 261.97 388.212 262.091 389.977C262.123 390.5 262.272 391.011 262.528 391.469C262.784 391.927 263.139 392.322 263.568 392.624C265.773 394.268 271.351 393.44 278.02 391.521C277.941 389.793 277.607 388.087 277.028 386.458Z" fill="#32082F"/>
<path fill-rule="evenodd" clip-rule="evenodd" d="M301.82 369.59C302.583 369.275 303.423 369.2 304.229 369.375C305.036 369.55 305.769 369.967 306.333 370.57C306.896 371.173 307.263 371.933 307.383 372.75C307.503 373.567 307.372 374.401 307.006 375.141C306.641 375.881 306.059 376.492 305.337 376.892C304.616 377.293 303.789 377.464 302.968 377.382C302.147 377.3 301.371 376.97 300.742 376.435C300.114 375.901 299.663 375.187 299.45 374.389C299.134 373.438 299.206 372.401 299.65 371.502C300.094 370.604 300.873 369.917 301.82 369.59Z" fill="#EBEBEB"/>
<path fill-rule="evenodd" clip-rule="evenodd" d="M272.277 377.588C272.204 377.606 272.128 377.61 272.053 377.599C271.979 377.587 271.907 377.562 271.843 377.523C271.778 377.484 271.722 377.432 271.678 377.372C271.633 377.311 271.601 377.242 271.583 377.169C271.565 377.097 271.561 377.021 271.572 376.947C271.584 376.874 271.61 376.803 271.649 376.739C271.688 376.676 271.739 376.62 271.8 376.577C271.86 376.533 271.929 376.502 272.001 376.485C272.001 376.485 276.543 375.294 278.616 379.144C278.656 379.211 278.683 379.285 278.694 379.363C278.705 379.441 278.699 379.52 278.678 379.596C278.657 379.672 278.621 379.742 278.572 379.803C278.522 379.864 278.461 379.915 278.391 379.951C278.322 379.987 278.245 380.009 278.167 380.014C278.089 380.02 278.01 380.01 277.936 379.984C277.862 379.957 277.794 379.916 277.737 379.863C277.679 379.81 277.633 379.745 277.601 379.673C275.915 376.629 272.277 377.588 272.277 377.588Z" fill="#EBEBEB"/>
<path fill-rule="evenodd" clip-rule="evenodd" d="M275.452 375.029C275.383 375.059 275.308 375.075 275.233 375.075C275.157 375.075 275.083 375.059 275.013 375.029C274.944 374.999 274.882 374.955 274.83 374.9C274.779 374.845 274.739 374.78 274.713 374.709C274.658 374.57 274.66 374.415 274.717 374.277C274.775 374.139 274.884 374.028 275.022 373.97C275.022 373.97 279.332 372.172 281.118 377.213C281.143 377.286 281.153 377.362 281.148 377.439C281.143 377.515 281.123 377.589 281.089 377.658C281.055 377.727 281.008 377.788 280.951 377.839C280.893 377.889 280.827 377.928 280.754 377.952C280.682 377.977 280.605 377.987 280.529 377.982C280.453 377.977 280.378 377.957 280.31 377.923C280.241 377.89 280.18 377.843 280.129 377.785C280.079 377.728 280.04 377.661 280.016 377.588C278.66 373.694 275.463 375.029 275.452 375.029Z" fill="#EBEBEB"/>
<path fill-rule="evenodd" clip-rule="evenodd" d="M278.34 372.668C278.199 372.72 278.044 372.715 277.907 372.656C277.769 372.596 277.66 372.486 277.601 372.348C277.547 372.208 277.55 372.052 277.61 371.913C277.67 371.775 277.782 371.666 277.921 371.609C277.921 371.609 282.231 369.811 284.017 374.841C284.067 374.983 284.059 375.139 283.995 375.275C283.931 375.412 283.816 375.517 283.675 375.57C283.605 375.596 283.531 375.608 283.456 375.605C283.381 375.602 283.308 375.584 283.24 375.552C283.172 375.52 283.111 375.475 283.061 375.419C283.011 375.363 282.973 375.298 282.948 375.228C281.559 371.322 278.351 372.657 278.34 372.668Z" fill="#EBEBEB"/>
<path fill-rule="evenodd" clip-rule="evenodd" d="M280.633 369.657C280.564 369.686 280.489 369.701 280.414 369.701C280.338 369.701 280.264 369.686 280.194 369.658C280.125 369.629 280.061 369.587 280.008 369.534C279.955 369.48 279.912 369.417 279.883 369.348C279.831 369.205 279.835 369.049 279.895 368.909C279.954 368.77 280.064 368.659 280.203 368.598C280.203 368.598 284.513 366.811 286.299 371.841C286.349 371.983 286.341 372.139 286.277 372.275C286.213 372.411 286.098 372.517 285.957 372.569C285.816 372.619 285.66 372.611 285.524 372.547C285.388 372.483 285.282 372.368 285.23 372.227C283.841 368.322 280.633 369.657 280.633 369.657Z" fill="#EBEBEB"/>
<path fill-rule="evenodd" clip-rule="evenodd" d="M367.003 204.031C367.01 203.957 367.031 203.885 367.066 203.819C367.101 203.753 367.148 203.695 367.206 203.648C367.263 203.601 367.329 203.566 367.4 203.544C367.471 203.523 367.546 203.516 367.62 203.523C367.694 203.53 367.766 203.552 367.831 203.586C367.897 203.621 367.955 203.669 368.002 203.726C368.049 203.784 368.085 203.85 368.106 203.921C368.128 203.992 368.135 204.067 368.127 204.141L362.097 261.604C362.102 261.685 362.088 261.767 362.058 261.843C362.028 261.919 361.982 261.987 361.923 262.044C361.863 262.1 361.793 262.142 361.715 262.168C361.638 262.195 361.556 262.203 361.474 262.194C361.393 262.186 361.315 262.159 361.245 262.117C361.175 262.074 361.115 262.017 361.07 261.95C361.024 261.882 360.994 261.805 360.981 261.724C360.968 261.644 360.973 261.561 360.995 261.482L367.003 204.031Z" fill="#033352"/>
<path fill-rule="evenodd" clip-rule="evenodd" d="M322.401 189.778L364.17 209.315C349.949 248.873 295.25 218.89 322.401 189.778Z" fill="#033352"/>
<path fill-rule="evenodd" clip-rule="evenodd" d="M342.828 103.942C342.828 103.942 342.574 109.745 344.944 108.156C349.982 104.77 360.377 91.4217 365.096 82.5855L362.307 77.2573C361.204 75.1172 352.385 79.1326 348.042 84.7476C342.971 91.3003 342.365 100.004 342.828 103.942Z" fill="#4D1400"/>
<path fill-rule="evenodd" clip-rule="evenodd" d="M347.017 109.248C347.017 109.248 345.915 97.1801 334.571 97.2242C326.855 97.2242 321.343 110.462 324.937 118.184C328.244 125.255 339.929 125.079 341.009 122.861L347.017 109.248Z" fill="#E6B59F"/>
<path fill-rule="evenodd" clip-rule="evenodd" d="M372.084 161.549L348.935 151.311L342.982 162.883C342.219 164.328 341.762 165.915 341.641 167.544C341.519 169.174 341.736 170.811 342.278 172.352C342.819 173.894 343.674 175.307 344.787 176.502C345.9 177.698 347.249 178.649 348.748 179.298C351.889 180.635 355.417 180.743 358.634 179.601C361.852 178.459 364.523 176.15 366.121 173.132L372.084 161.549Z" fill="#E6B59F"/>
<path fill-rule="evenodd" clip-rule="evenodd" d="M372.36 160.92L362.031 156.684L347.326 154.323L344.614 159.375C351.603 166.877 363.519 169.624 367.311 170.33L372.36 160.92Z" fill="#CF7866"/>
<path fill-rule="evenodd" clip-rule="evenodd" d="M354.215 160.964C313.759 138.074 340.37 110.043 361.932 79.1657L422.451 115.349C409.201 148.079 402.355 188.178 354.215 160.964Z" fill="#E6B59F"/>
<path fill-rule="evenodd" clip-rule="evenodd" d="M406.996 143.181C410.613 142.26 414.421 142.429 417.943 143.667C436.297 150.638 412.354 176.761 401.187 162.475C398.982 159.662 397.88 156.419 398.508 155.371L406.996 143.181Z" fill="#E6B59F"/>
<path fill-rule="evenodd" clip-rule="evenodd" d="M420.401 152.9C420.426 152.969 420.436 153.043 420.43 153.117C420.425 153.191 420.403 153.262 420.368 153.327C420.332 153.392 420.283 153.448 420.224 153.492C420.165 153.537 420.097 153.568 420.025 153.584C419.953 153.6 419.878 153.6 419.806 153.584C419.734 153.569 419.666 153.538 419.606 153.495C419.547 153.451 419.498 153.395 419.462 153.33C419.426 153.266 419.404 153.194 419.398 153.121C419.344 152.869 419.251 152.627 419.122 152.403C418.647 151.663 417.93 151.11 417.094 150.837C415.86 150.434 414.538 150.388 413.279 150.705C411.97 151 410.713 151.495 409.554 152.172C409.41 152.26 409.752 152.073 409.752 152.084L409.928 152.37C410.099 152.631 410.25 152.904 410.38 153.187C410.594 153.598 410.679 154.065 410.624 154.525C410.569 154.986 410.377 155.419 410.072 155.768C409.181 156.611 408.087 157.208 406.897 157.5C406.831 157.529 406.759 157.543 406.687 157.542C406.615 157.542 406.544 157.526 406.478 157.496C406.413 157.467 406.354 157.423 406.306 157.37C406.258 157.316 406.222 157.253 406.199 157.184C406.177 157.116 406.169 157.043 406.176 156.972C406.184 156.9 406.206 156.831 406.241 156.768C406.277 156.705 406.325 156.651 406.383 156.608C406.441 156.565 406.507 156.534 406.577 156.518C407.587 156.282 408.52 155.792 409.289 155.095C409.459 154.886 409.564 154.63 409.589 154.361C409.615 154.092 409.56 153.822 409.432 153.584C409.323 153.355 409.198 153.134 409.057 152.922C408.991 152.812 408.925 152.712 408.859 152.591C408.55 152.05 408.473 151.609 409.057 151.278C410.307 150.549 411.66 150.014 413.07 149.69C414.528 149.336 416.055 149.397 417.479 149.866C418.545 150.219 419.451 150.938 420.037 151.896C420.209 152.21 420.332 152.548 420.401 152.9Z" fill="#CF7866"/>
<path fill-rule="evenodd" clip-rule="evenodd" d="M344.559 101.151C363.729 109.668 386.702 95.7129 386.702 95.7129C386.702 95.7129 390.218 130.826 414.161 141.074C433.772 115.029 429.076 97.1911 402.19 79.5849C390.428 71.8629 375.733 67.7813 361.822 76.441C355.053 80.655 350.842 90.131 344.559 101.151Z" fill="#4D1400"/>
<path fill-rule="evenodd" clip-rule="evenodd" d="M386.404 91.1459C384.056 95.6246 370.486 104.384 365.68 105.09C360.873 105.796 372.878 108.399 378.688 106.259C385.432 103.695 391.009 98.7565 394.374 92.3704C398.254 85.222 386.404 91.1459 386.404 91.1459Z" fill="#4D1400"/>
<path fill-rule="evenodd" clip-rule="evenodd" d="M416.686 158.283C416.636 158.41 416.538 158.511 416.414 158.566C416.29 158.621 416.149 158.625 416.022 158.578C415.895 158.53 415.792 158.434 415.735 158.311C415.677 158.188 415.67 158.047 415.716 157.919C415.979 157.257 416.105 156.547 416.086 155.835C416.066 155.122 415.902 154.42 415.603 153.773C415.304 153.126 414.876 152.547 414.346 152.07C413.816 151.594 413.194 151.231 412.519 151.002C412.451 150.981 412.389 150.945 412.336 150.898C412.283 150.851 412.24 150.793 412.209 150.729C412.179 150.664 412.163 150.595 412.161 150.524C412.159 150.452 412.172 150.382 412.198 150.316C412.225 150.25 412.264 150.19 412.315 150.14C412.366 150.09 412.426 150.051 412.492 150.026C412.558 150 412.629 149.988 412.7 149.991C412.771 149.994 412.841 150.012 412.905 150.043C413.706 150.319 414.443 150.754 415.071 151.323C415.698 151.892 416.204 152.583 416.558 153.353C416.911 154.123 417.105 154.958 417.127 155.805C417.149 156.652 416.999 157.496 416.686 158.283Z" fill="#CF7866"/>
<path fill-rule="evenodd" clip-rule="evenodd" d="M330.239 108.498C330.157 108.611 330.037 108.69 329.901 108.72C329.765 108.751 329.623 108.731 329.5 108.664C329.444 108.63 329.395 108.584 329.358 108.529C329.321 108.475 329.297 108.413 329.286 108.348C329.276 108.282 329.279 108.216 329.297 108.152C329.315 108.089 329.347 108.03 329.39 107.98C329.864 107.325 330.47 106.777 331.168 106.371C331.866 105.965 332.642 105.71 333.445 105.623C334.248 105.536 335.061 105.618 335.83 105.864C336.599 106.11 337.308 106.516 337.911 107.053C337.961 107.097 338 107.15 338.027 107.21C338.054 107.27 338.068 107.335 338.068 107.401C338.068 107.466 338.054 107.531 338.027 107.591C338 107.651 337.961 107.705 337.911 107.748C337.818 107.854 337.689 107.922 337.55 107.94C337.41 107.959 337.268 107.926 337.151 107.847C336.668 107.406 336.099 107.07 335.479 106.862C334.858 106.655 334.202 106.579 333.551 106.64C332.9 106.701 332.269 106.898 331.698 107.218C331.128 107.538 330.631 107.974 330.239 108.498Z" fill="#CF7866"/>
<path fill-rule="evenodd" clip-rule="evenodd" d="M331.297 103.402C331.236 103.429 331.17 103.443 331.103 103.443C331.036 103.444 330.97 103.431 330.908 103.405C330.846 103.379 330.79 103.341 330.743 103.293C330.697 103.245 330.66 103.189 330.636 103.126C330.601 102.992 330.62 102.849 330.688 102.728C330.755 102.607 330.867 102.516 331 102.475C331.811 102.167 332.68 102.039 333.546 102.1C334.518 102.184 335.439 102.569 336.181 103.203C336.997 103.899 337.61 104.802 337.955 105.818C338.492 107.448 338.673 109.175 338.485 110.881C338.418 111.731 337.779 111.72 336.941 111.697C336.677 111.675 336.412 111.675 336.148 111.697C335.857 111.703 335.574 111.787 335.328 111.94C335.081 112.094 334.881 112.311 334.748 112.569C334.438 113.528 334.388 114.552 334.604 115.536C334.613 115.676 334.57 115.814 334.485 115.926C334.4 116.037 334.278 116.114 334.141 116.143C334.078 116.161 334.011 116.165 333.945 116.156C333.879 116.146 333.817 116.123 333.76 116.088C333.704 116.053 333.656 116.006 333.619 115.951C333.582 115.896 333.557 115.833 333.546 115.768C333.298 114.6 333.379 113.386 333.778 112.26C333.988 111.815 334.316 111.436 334.726 111.164C335.136 110.892 335.612 110.737 336.104 110.716C336.426 110.684 336.751 110.684 337.074 110.716C337.283 110.716 337.404 111.124 337.415 110.925C337.592 109.347 337.43 107.748 336.941 106.237C336.643 105.383 336.126 104.622 335.442 104.031C334.845 103.544 334.115 103.248 333.348 103.181C332.656 103.107 331.957 103.183 331.297 103.402Z" fill="#CF7866"/>
<path fill-rule="evenodd" clip-rule="evenodd" d="M373.958 62.6517C390.361 82.1884 409.774 95.1613 439.626 103.038C440.482 106.416 440.831 109.904 440.662 113.385C411.56 104.913 380.187 88.719 357.743 69.072C362.703 65.9428 368.202 63.7656 373.958 62.6517Z" fill="#612200"/>
<path fill-rule="evenodd" clip-rule="evenodd" d="M419.993 127.406C415.969 119 412.442 123.424 410.072 132.249C407.702 141.074 417.414 136.287 421.757 136.132C426.1 135.978 419.993 127.406 419.993 127.406Z" fill="#C42B23"/>
<path fill-rule="evenodd" clip-rule="evenodd" d="M431.171 132.415C440.1 129.822 439.163 135.404 434.191 143.071C429.22 150.738 426.298 140.28 423.509 136.926C420.72 133.573 431.171 132.415 431.171 132.415Z" fill="#C42B23"/>
<path fill-rule="evenodd" clip-rule="evenodd" d="M416.212 128.002C416.106 127.895 416.047 127.75 416.047 127.599C416.047 127.449 416.106 127.304 416.212 127.197C416.264 127.143 416.327 127.1 416.396 127.071C416.465 127.042 416.539 127.027 416.614 127.027C416.689 127.027 416.763 127.042 416.832 127.071C416.902 127.1 416.964 127.143 417.017 127.197C418.205 128.479 419.292 129.851 420.269 131.3C421.139 132.613 421.47 133.661 421.007 134.113C420.357 134.742 414.768 134.499 414.757 134.499C414.682 134.497 414.608 134.479 414.541 134.447C414.473 134.416 414.412 134.371 414.361 134.315C414.311 134.26 414.272 134.195 414.247 134.124C414.223 134.053 414.212 133.979 414.217 133.904C414.218 133.829 414.234 133.756 414.265 133.688C414.295 133.62 414.339 133.559 414.393 133.509C414.448 133.458 414.512 133.419 414.582 133.394C414.652 133.369 414.727 133.359 414.801 133.363C414.801 133.363 419.916 133.584 420.213 133.297C420.213 133.297 419.872 132.756 419.32 131.918C418.379 130.54 417.34 129.232 416.212 128.002Z" fill="#4D1400"/>
<path fill-rule="evenodd" clip-rule="evenodd" d="M420.379 132.591C420.616 132.201 420.929 131.863 421.299 131.596C421.669 131.329 422.089 131.138 422.534 131.035C422.978 130.933 423.439 130.92 423.888 130.998C424.338 131.075 424.767 131.242 425.152 131.488C425.916 132.015 426.442 132.823 426.616 133.735C426.789 134.648 426.596 135.593 426.078 136.364L425.791 136.816C425.554 137.206 425.241 137.544 424.87 137.811C424.5 138.078 424.081 138.269 423.636 138.372C423.192 138.474 422.731 138.487 422.282 138.41C421.832 138.332 421.402 138.165 421.018 137.919C420.254 137.392 419.728 136.584 419.554 135.672C419.381 134.759 419.574 133.814 420.092 133.043L420.379 132.591Z" fill="#C42B23"/>
<path fill-rule="evenodd" clip-rule="evenodd" d="M419.861 132.249C420.452 131.337 421.372 130.689 422.429 130.44C422.94 130.321 423.469 130.306 423.986 130.395C424.503 130.484 424.997 130.676 425.439 130.958C425.875 131.259 426.247 131.643 426.535 132.087C426.822 132.532 427.019 133.03 427.114 133.551C427.321 134.639 427.1 135.765 426.497 136.695L426.188 137.191C425.594 138.097 424.674 138.741 423.62 138.989C423.109 139.109 422.579 139.125 422.062 139.036C421.545 138.947 421.052 138.755 420.61 138.471C420.174 138.17 419.802 137.787 419.514 137.342C419.227 136.897 419.03 136.4 418.935 135.878C418.728 134.79 418.949 133.664 419.552 132.734L419.839 132.282L419.861 132.249ZM420.908 132.911L420.599 133.385C420.177 134.038 420.027 134.83 420.18 135.592C420.246 135.951 420.382 136.294 420.581 136.601C420.779 136.908 421.037 137.172 421.338 137.379C421.646 137.574 421.99 137.706 422.349 137.767C422.709 137.828 423.077 137.816 423.432 137.732C424.163 137.562 424.799 137.115 425.207 136.485L425.494 136.033C425.916 135.38 426.066 134.588 425.913 133.827C425.847 133.467 425.711 133.124 425.513 132.817C425.314 132.51 425.056 132.246 424.755 132.039H424.7C424.392 131.843 424.048 131.711 423.689 131.65C423.329 131.59 422.961 131.602 422.606 131.686C421.906 131.866 421.299 132.303 420.908 132.911Z" fill="#4D1400"/>
<path fill-rule="evenodd" clip-rule="evenodd" d="M433.552 134.621C433.702 134.624 433.845 134.685 433.95 134.793C434.055 134.9 434.114 135.044 434.114 135.194C434.114 135.269 434.099 135.343 434.07 135.412C434.041 135.481 433.999 135.544 433.946 135.596C433.892 135.649 433.829 135.69 433.759 135.717C433.69 135.745 433.616 135.758 433.541 135.757C431.857 135.733 430.173 135.832 428.503 136.055L426.894 136.298C426.894 136.706 430.443 140.379 430.454 140.39C430.557 140.499 430.615 140.643 430.615 140.793C430.615 140.943 430.557 141.087 430.454 141.196C430.347 141.301 430.202 141.361 430.052 141.361C429.901 141.361 429.757 141.301 429.65 141.196C429.65 141.196 425.736 137.18 425.769 136.264C425.769 135.625 426.794 135.161 428.349 134.93C430.074 134.704 431.812 134.6 433.552 134.621Z" fill="#4D1400"/>
<path fill-rule="evenodd" clip-rule="evenodd" d="M377.861 143.6C381.884 149.789 372.79 159.761 360.388 154.047C352.981 150.638 346.223 142.685 349.497 136.794C352.914 130.627 357.059 134.588 361.568 138.471C367.664 143.799 374.025 137.699 377.861 143.6Z" fill="#290000"/>
<path fill-rule="evenodd" clip-rule="evenodd" d="M360.664 145.465C357.414 144.387 353.869 144.645 350.809 146.182C352.375 148.386 354.315 150.297 356.541 151.83C357.754 152.68 359.042 153.419 360.389 154.036C361.839 154.714 363.368 155.207 364.941 155.503C367.36 155.973 369.861 155.786 372.184 154.963C370.497 150.947 365.415 147.141 360.664 145.465Z" fill="#C42B23"/>
<path fill-rule="evenodd" clip-rule="evenodd" d="M347.237 122.972C350.037 124.814 351.525 127.517 350.544 129.006C349.563 130.495 346.499 130.208 343.699 128.366C340.899 126.524 339.4 123.81 340.392 122.321C341.384 120.831 344.448 121.118 347.237 122.972Z" fill="#CF7866"/>
<path fill-rule="evenodd" clip-rule="evenodd" d="M392.258 147.175C395.322 148.984 397.031 151.764 396.083 153.396C395.135 155.029 391.872 154.875 388.807 153.065C385.743 151.256 384.023 148.487 384.982 146.855C385.941 145.222 389.193 145.365 392.258 147.175Z" fill="#CF7866"/>
<path fill-rule="evenodd" clip-rule="evenodd" d="M362.538 156.97C359.331 155.93 356.307 154.392 353.576 152.414C353.571 152.433 353.571 152.452 353.576 152.47C352.716 153.507 353.885 155.305 356.189 156.474L356.806 156.794C359.11 157.963 361.678 158.074 362.538 157.026V156.97Z" fill="#CF7866"/>
<path fill-rule="evenodd" clip-rule="evenodd" d="M372.426 133.97C369.034 133.58 365.859 132.102 363.376 129.756C363.346 129.798 363.32 129.842 363.299 129.888C363.001 130.428 362.816 131.023 362.755 131.636C362.694 132.25 362.759 132.869 362.946 133.457C363.133 134.044 363.437 134.587 363.841 135.053C364.245 135.519 364.739 135.897 365.294 136.165L365.922 136.463C367.094 136.966 368.413 137.002 369.61 136.563C370.807 136.124 371.791 135.244 372.36 134.102L372.426 133.97Z" fill="#CF7866"/>
<path fill-rule="evenodd" clip-rule="evenodd" d="M364.026 94.2898C363.779 94.4069 363.496 94.4209 363.238 94.3288C362.981 94.2368 362.771 94.0462 362.654 93.7989C362.537 93.5517 362.523 93.2681 362.615 93.0105C362.707 92.753 362.897 92.5425 363.144 92.4255C363.895 92.0645 364.699 91.8262 365.525 91.7195C366.941 91.5354 368.379 91.7612 369.67 92.3704C371.06 93.0474 372.177 94.1803 372.834 95.5805C373.224 96.4257 373.48 97.3263 373.595 98.2501C373.614 98.5131 373.532 98.7736 373.366 98.9786C373.201 99.1835 372.963 99.3175 372.702 99.3533C372.438 99.3753 372.177 99.2946 371.971 99.1281C371.766 98.9616 371.633 98.7221 371.599 98.4597C371.521 97.7514 371.323 97.0615 371.015 96.4189C370.559 95.4494 369.779 94.6693 368.81 94.2126C367.881 93.7695 366.843 93.6084 365.823 93.7493C365.198 93.8291 364.591 94.0117 364.026 94.2898Z" fill="#290000"/>
<path fill-rule="evenodd" clip-rule="evenodd" d="M397.516 112.558C397.27 112.675 396.988 112.69 396.732 112.599C396.476 112.507 396.266 112.318 396.149 112.073C396.032 111.827 396.017 111.545 396.108 111.288C396.199 111.032 396.388 110.822 396.634 110.705C397.387 110.339 398.195 110.1 399.026 109.999C400.437 109.811 401.872 110.033 403.16 110.638C404.555 111.314 405.673 112.452 406.324 113.86C406.715 114.704 406.972 115.605 407.084 116.529C407.106 116.793 407.026 117.055 406.859 117.26C406.693 117.466 406.454 117.599 406.191 117.632C405.927 117.657 405.664 117.578 405.458 117.411C405.252 117.244 405.12 117.002 405.089 116.739C405.007 116.032 404.814 115.344 404.516 114.698C404.052 113.734 403.275 112.956 402.311 112.492C401.381 112.053 400.343 111.892 399.324 112.028C398.696 112.105 398.086 112.284 397.516 112.558Z" fill="#290000"/>
<path fill-rule="evenodd" clip-rule="evenodd" d="M400.029 119.033C401.86 120.149 403.452 121.617 404.713 123.353C405.973 125.089 406.876 127.058 407.371 129.145C407.865 131.233 407.941 133.398 407.593 135.515C407.245 137.632 406.481 139.659 405.345 141.479C404.208 143.298 402.723 144.874 400.973 146.115C399.224 147.355 397.246 148.236 395.155 148.707C393.063 149.177 390.898 149.227 388.787 148.854C386.676 148.481 384.659 147.693 382.854 146.535C379.213 144.249 376.627 140.609 375.666 136.416C374.705 132.223 375.446 127.82 377.728 124.174C378.853 122.369 380.323 120.804 382.054 119.568C383.784 118.333 385.741 117.451 387.813 116.973C389.884 116.496 392.03 116.432 394.126 116.785C396.222 117.139 398.228 117.903 400.029 119.033ZM405.1 129.635C404.487 126.936 403.089 124.479 401.083 122.573C399.077 120.668 396.552 119.4 393.826 118.928C391.101 118.456 388.297 118.802 385.768 119.922C383.239 121.042 381.097 122.886 379.613 125.222C379.583 125.285 379.546 125.344 379.503 125.399C377.576 128.543 376.959 132.318 377.783 135.914C378.608 139.509 380.808 142.637 383.913 144.626L384.089 144.737C386.444 146.187 389.176 146.909 391.94 146.81C394.704 146.711 397.377 145.796 399.623 144.181C401.869 142.565 403.587 140.321 404.562 137.731C405.536 135.141 405.723 132.32 405.1 129.624V129.635Z" fill="white"/>
<path fill-rule="evenodd" clip-rule="evenodd" d="M404.736 140.909C404.574 140.863 404.423 140.786 404.291 140.681C404.159 140.575 404.05 140.445 403.97 140.297C403.89 140.148 403.84 139.986 403.824 139.818C403.808 139.65 403.826 139.481 403.876 139.32C403.953 138.979 404.159 138.682 404.451 138.49C404.744 138.299 405.099 138.228 405.442 138.294L414.338 140.379C414.5 140.426 414.652 140.505 414.784 140.611C414.915 140.717 415.024 140.849 415.104 140.998C415.185 141.147 415.234 141.31 415.25 141.479C415.266 141.647 415.248 141.817 415.198 141.979C415.118 142.318 414.911 142.614 414.62 142.805C414.329 142.996 413.975 143.068 413.632 143.005L404.736 140.909Z" fill="white"/>
<path fill-rule="evenodd" clip-rule="evenodd" d="M347.888 104.615C348.056 104.932 348.094 105.303 347.992 105.647C347.89 105.991 347.657 106.282 347.343 106.456C347.029 106.629 346.659 106.673 346.314 106.576C345.968 106.479 345.674 106.251 345.496 105.939L343.677 102.63C343.541 102.316 343.528 101.963 343.639 101.64C343.75 101.317 343.978 101.048 344.278 100.884C344.578 100.721 344.928 100.676 345.26 100.758C345.591 100.84 345.88 101.044 346.069 101.328L347.888 104.615Z" fill="white"/>
<path fill-rule="evenodd" clip-rule="evenodd" d="M372.007 123.656C371.728 123.719 371.436 123.672 371.191 123.524C370.946 123.376 370.768 123.138 370.695 122.861C370.634 122.585 370.682 122.296 370.827 122.054C370.973 121.812 371.206 121.635 371.478 121.56C371.478 121.56 377.662 119.971 378.423 125.972C378.448 126.255 378.364 126.536 378.187 126.758C378.011 126.98 377.756 127.125 377.475 127.164C377.191 127.192 376.907 127.109 376.683 126.932C376.459 126.755 376.312 126.498 376.273 126.215C375.821 122.674 372.018 123.656 372.007 123.656Z" fill="white"/>
<path fill-rule="evenodd" clip-rule="evenodd" d="M366.727 102.453L366.551 102.343C363.417 100.405 359.645 99.781 356.055 100.607C352.464 101.433 349.343 103.642 347.37 106.755C347.341 106.815 347.304 106.871 347.259 106.921C345.329 110.066 344.71 113.844 345.534 117.442C346.359 121.04 348.562 124.17 351.669 126.16L351.834 126.27C354.97 128.202 358.739 128.823 362.328 127.997C365.917 127.171 369.038 124.966 371.015 121.857C371.041 121.793 371.079 121.733 371.126 121.681C373.052 118.536 373.67 114.761 372.846 111.166C372.021 107.57 369.82 104.442 366.716 102.453H366.727ZM367.829 100.556C371.467 102.845 374.049 106.486 375.007 110.678C375.966 114.87 375.224 119.271 372.944 122.916C370.668 126.557 367.04 129.144 362.858 130.108C358.676 131.072 354.282 130.335 350.644 128.057C347.002 125.771 344.416 122.132 343.455 117.939C342.494 113.746 343.236 109.342 345.518 105.696C346.643 103.891 348.113 102.326 349.843 101.091C351.574 99.8549 353.531 98.973 355.602 98.4955C357.674 98.0179 359.819 97.9541 361.915 98.3076C364.012 98.6612 366.018 99.4251 367.818 100.556H367.829Z" fill="white"/>
<path fill-rule="evenodd" clip-rule="evenodd" d="M387.385 131.201C389.127 128.52 392.004 126.645 394.672 128.388C397.34 130.131 398.806 134.852 397.064 137.533L396.59 138.261C396.174 138.896 395.638 139.444 395.011 139.871C394.385 140.299 393.68 140.599 392.937 140.754C392.194 140.91 391.428 140.917 390.683 140.776C389.938 140.635 389.227 140.348 388.592 139.932C387.958 139.517 387.411 138.98 386.983 138.353C386.556 137.725 386.256 137.02 386.101 136.277C385.946 135.534 385.939 134.767 386.08 134.021C386.22 133.275 386.507 132.564 386.922 131.929L387.385 131.201Z" fill="white"/>
<path fill-rule="evenodd" clip-rule="evenodd" d="M395.895 140.136C395.852 140.206 395.794 140.265 395.726 140.311C395.658 140.357 395.582 140.388 395.501 140.402C395.42 140.416 395.338 140.413 395.258 140.393C395.179 140.373 395.104 140.337 395.04 140.286C394.976 140.236 394.922 140.172 394.884 140.1C394.846 140.028 394.823 139.948 394.817 139.866C394.812 139.784 394.823 139.702 394.851 139.625C394.879 139.549 394.923 139.478 394.98 139.419C396.371 137.69 397.06 135.5 396.909 133.286C396.836 132.126 396.456 131.007 395.807 130.043C395.166 129.121 394.246 128.429 393.183 128.068C391.254 127.532 389.194 127.737 387.407 128.642C387.264 128.701 387.103 128.702 386.959 128.644C386.814 128.587 386.698 128.475 386.635 128.333C386.577 128.191 386.576 128.031 386.634 127.889C386.691 127.746 386.803 127.632 386.944 127.572C388.997 126.554 391.355 126.337 393.558 126.965C394.852 127.406 395.974 128.244 396.766 129.359C397.543 130.494 398.007 131.815 398.111 133.187C398.28 135.701 397.488 138.185 395.895 140.136Z" fill="#290000"/>
<path fill-rule="evenodd" clip-rule="evenodd" d="M355.406 113.286C357.081 110.727 360.499 108.509 363.045 110.186C366.176 111.907 366.352 116.805 364.666 119.342L364.214 120.037C363.411 121.265 362.154 122.123 360.719 122.423C359.285 122.723 357.79 122.44 356.563 121.637C355.337 120.834 354.479 119.576 354.18 118.14C353.88 116.704 354.162 115.208 354.965 113.981L355.406 113.286Z" fill="white"/>
<path fill-rule="evenodd" clip-rule="evenodd" d="M354.314 111.896C356.067 109.381 359.22 108.531 361.347 110.021C363.475 111.51 363.795 114.753 362.042 117.268L361.568 117.952C359.815 120.478 356.662 121.262 354.535 119.839C352.407 118.416 352.088 115.106 353.84 112.58L354.314 111.896Z" fill="#290000"/>
<path fill-rule="evenodd" clip-rule="evenodd" d="M363.519 121.902C363.41 122.008 363.264 122.068 363.111 122.068C362.959 122.068 362.812 122.008 362.703 121.902C362.649 121.847 362.606 121.783 362.577 121.712C362.547 121.641 362.532 121.565 362.532 121.488C362.532 121.411 362.547 121.335 362.577 121.264C362.606 121.193 362.649 121.128 362.703 121.074C363.716 120.172 364.458 119.007 364.847 117.708C365.236 116.408 365.257 115.027 364.908 113.716C364.662 112.9 364.24 112.147 363.673 111.51C363.141 110.903 362.467 110.437 361.711 110.153C359.981 109.513 357.776 109.877 355.549 111.907C355.433 111.994 355.288 112.034 355.144 112.02C355 112.006 354.866 111.939 354.769 111.831C354.671 111.724 354.617 111.584 354.616 111.439C354.616 111.294 354.669 111.154 354.766 111.047C357.368 108.686 360.003 108.278 362.108 109.061C363.04 109.416 363.871 109.992 364.533 110.738C365.214 111.503 365.722 112.406 366.021 113.385C366.432 114.898 366.416 116.494 365.974 117.998C365.532 119.501 364.682 120.853 363.519 121.902Z" fill="#290000"/>
<path fill-rule="evenodd" clip-rule="evenodd" d="M354.116 108.929C354.369 108.544 354.764 108.275 355.215 108.182C355.666 108.089 356.135 108.179 356.519 108.432C356.904 108.685 357.172 109.081 357.265 109.532C357.358 109.983 357.268 110.452 357.015 110.837L356.872 111.047C356.749 111.238 356.589 111.403 356.402 111.533C356.215 111.662 356.004 111.753 355.782 111.8C355.559 111.847 355.33 111.85 355.106 111.808C354.883 111.765 354.67 111.679 354.48 111.554C354.095 111.302 353.826 110.907 353.731 110.456C353.636 110.006 353.723 109.536 353.973 109.149L354.116 108.929Z" fill="white"/>
<path fill-rule="evenodd" clip-rule="evenodd" d="M385.423 129.712C387.055 126.976 390.218 126.038 392.478 127.605C394.738 129.171 395.256 132.646 393.581 135.327L393.14 136.066C391.508 138.791 388.355 139.739 386.084 138.173C383.814 136.606 383.318 133.12 384.982 130.396L385.423 129.712Z" fill="#290000"/>
<path fill-rule="evenodd" clip-rule="evenodd" d="M386.04 126.656C386.169 126.456 386.336 126.283 386.532 126.148C386.727 126.012 386.948 125.917 387.181 125.868C387.414 125.819 387.654 125.816 387.888 125.861C388.121 125.905 388.344 125.995 388.543 126.127C388.945 126.39 389.227 126.803 389.327 127.275C389.426 127.746 389.334 128.238 389.072 128.642L388.917 128.862C388.789 129.063 388.622 129.236 388.426 129.371C388.23 129.506 388.01 129.601 387.777 129.651C387.544 129.7 387.304 129.702 387.07 129.658C386.836 129.614 386.614 129.523 386.415 129.392C386.014 129.126 385.734 128.713 385.635 128.243C385.536 127.772 385.626 127.282 385.886 126.877L386.04 126.656Z" fill="white"/>
<path fill-rule="evenodd" clip-rule="evenodd" d="M165.547 233.694C154.865 241.67 141.163 254.135 136.224 263.06L111.333 308.024L126.601 317.952L161.567 277.059C164.797 274.058 174.156 266.027 179.205 263.027C177.882 252.403 177.474 242.883 165.547 233.694Z" fill="#C07A53"/>
<path fill-rule="evenodd" clip-rule="evenodd" d="M110.76 309.568C116.503 297.831 121.508 288.112 128.177 276.617L129.081 275.073C129.081 275.073 129.345 280.666 151.227 291.223L126.534 318.934L116.536 315.272L110.76 309.568Z" fill="white"/>
<path fill-rule="evenodd" clip-rule="evenodd" d="M150.919 291.08C148.901 290.098 147.071 289.16 145.407 288.267L124.462 315.845L127.979 316.794L128.42 316.915L151.227 291.267L150.919 291.08Z" fill="#DCCABD"/>
<path fill-rule="evenodd" clip-rule="evenodd" d="M146.608 246.524C145.308 247.781 162.493 250.208 170.486 273.871C217.545 262.574 239.934 252.812 230.817 208.234L191.133 205.619L175.7 218.327L146.608 246.524Z" fill="#033352"/>
<path fill-rule="evenodd" clip-rule="evenodd" d="M107.629 207.517C104.598 206.016 88.889 198.338 87.5111 199.894C86.1332 201.449 93.0229 205.41 93.0229 205.41C93.0229 205.41 83.1899 201.361 82.5395 203.49C81.8891 205.619 90.3772 209.778 90.3772 209.778C90.3772 209.778 82.0214 208.245 81.5584 210.572C81.0954 212.9 93.1882 214.61 93.1882 214.61C93.1882 214.61 83.5426 214.389 84.1379 216.816C84.7332 219.243 99.9347 219.673 99.9347 219.673C99.9347 219.673 104.884 220.776 100.287 224.737C95.6906 228.697 93.2764 231.201 96.6386 231.697C100.001 232.194 108.302 227.759 110.087 226.182C111.873 224.604 113.824 223.314 115.004 220.611C132.642 205.531 164.18 188.531 174.134 155.878C163.111 153.793 157.268 151.598 146.223 149.513C134.593 167.969 120.472 189.954 107.629 207.517Z" fill="#E6B59F"/>
<path fill-rule="evenodd" clip-rule="evenodd" d="M200.988 133.694C175.501 135.967 160.906 126.502 136.72 161.902C136.72 161.902 132.476 165.917 132.465 166.105C132.399 167.362 133.347 168.763 135.166 170.186C142.508 175.967 165.922 188.62 171.125 183.909C172.293 182.861 195.288 140.765 200.988 133.694Z" fill="#DC9318"/>
<path fill-rule="evenodd" clip-rule="evenodd" d="M197.824 132.492C207.745 132.756 215.396 133.65 221.359 137.169C220.904 138.121 220.358 139.026 219.728 139.872C214.955 146.347 205.816 149.8 199.312 147.472C193.117 145.266 191.596 138.769 195.553 132.558C196.308 132.497 197.066 132.475 197.824 132.492Z" fill="#E6B59F"/>
<path fill-rule="evenodd" clip-rule="evenodd" d="M235.712 228.002C236.814 168.895 232.714 125.796 189.623 122.905C162.571 132.69 166.969 177.985 156.916 208.432C156.012 211.157 153.807 212.337 153.135 214.963C160.796 225.233 210.468 246.645 235.712 228.002Z" fill="#DC9318"/>
<path fill-rule="evenodd" clip-rule="evenodd" d="M295.625 58.9561C295.956 54.2567 294.942 49.1492 291.348 51.9622C289.143 53.6721 288.36 61.4492 288.041 68.2777C287.842 72.6903 289.022 76.5292 286.244 78.7576C279.2 84.4277 259.732 102.398 242.646 116.375C246.03 127.13 248.896 132.657 252.28 143.413C286.343 128.278 291.271 106.27 305.006 85.3433C312.579 81.6699 321.883 75.9225 321.012 73.6831C320.141 71.4437 311.896 74.4333 311.896 74.4333C311.896 74.4333 324.771 67.1415 322.5 64.4388C320.23 61.7361 309.471 67.6158 309.471 67.6158C309.471 67.6158 322.699 55.4812 319.204 52.7565C315.71 50.0317 304.102 61.8133 304.102 61.8133C306.461 57.7758 312.811 46.3141 308.721 46.1155C305.116 45.8949 297.367 56.5072 295.625 58.9561Z" fill="#E6B59F"/>
<path fill-rule="evenodd" clip-rule="evenodd" d="M249.524 110.605C246.471 113.209 245.633 113.915 242.657 116.375C246.041 127.13 248.907 132.657 252.291 143.413C279.332 131.4 288.008 115.062 297.312 98.3605C297.168 98.5811 304.4 86.9209 296.871 99.0334C289.342 111.146 273.071 128.002 264.715 128.675C256.359 129.348 249.8 124.108 249.524 110.605Z" fill="#CF7866"/>
<path fill-rule="evenodd" clip-rule="evenodd" d="M295.14 58.9451C295.14 58.831 295.185 58.7216 295.266 58.6409C295.346 58.5602 295.456 58.5149 295.57 58.5149C295.684 58.5149 295.793 58.5602 295.874 58.6409C295.954 58.7216 296 58.831 296 58.9451C295.957 60.1126 295.779 61.2712 295.471 62.398C296.397 63.5894 301.214 70.3296 298.028 76.6396C297.974 76.7406 297.883 76.8167 297.774 76.8517C297.665 76.8867 297.546 76.8779 297.444 76.8271C297.392 76.8024 297.345 76.7675 297.307 76.7245C297.269 76.6815 297.24 76.6313 297.221 76.5767C297.203 76.5222 297.195 76.4645 297.199 76.4071C297.204 76.3497 297.219 76.2937 297.245 76.2424C300.398 70.0207 295.041 63.2143 294.677 62.7841C294.624 62.7297 294.587 62.662 294.569 62.5882C294.552 62.5144 294.555 62.4372 294.578 62.3649C294.902 61.2517 295.09 60.1035 295.14 58.9451Z" fill="#CF7866"/>
<path fill-rule="evenodd" clip-rule="evenodd" d="M298.59 62.1994C298.498 62.131 298.436 62.0295 298.418 61.9162C298.399 61.8029 298.426 61.6869 298.491 61.5927C298.524 61.5458 298.566 61.506 298.615 61.4756C298.663 61.4452 298.717 61.4247 298.774 61.4155C298.83 61.4063 298.888 61.4084 298.943 61.4218C298.999 61.4351 299.051 61.4595 299.098 61.4934C299.098 61.4934 308.093 67.8034 308.655 75.1062C308.66 75.1627 308.653 75.2196 308.635 75.2735C308.618 75.3274 308.59 75.3774 308.553 75.4204C308.516 75.4635 308.471 75.4988 308.42 75.5244C308.37 75.55 308.315 75.5653 308.258 75.5695C308.143 75.5787 308.029 75.5423 307.94 75.468C307.851 75.3937 307.795 75.2875 307.784 75.1724C307.266 68.2777 298.624 62.2215 298.59 62.1994Z" fill="#CF7866"/>
<path fill-rule="evenodd" clip-rule="evenodd" d="M227.665 163.832C227.665 163.832 244.465 157.445 262.576 140.523C252.997 131.907 246.107 124.097 247.959 110.826L212.684 129.006L227.665 163.832Z" fill="#DC9318"/>
<path fill-rule="evenodd" clip-rule="evenodd" d="M143.081 98.3935C143.081 98.3935 145.594 103.622 146.939 101.096C149.783 95.735 152.671 79.0334 152.638 69.0058L147.711 65.6302C145.738 64.2623 139.873 71.9732 138.672 78.9892C137.305 87.1856 140.865 95.1062 143.081 98.3935Z" fill="#4D1400"/>
<path fill-rule="evenodd" clip-rule="evenodd" d="M149.342 101.063C149.342 101.063 142.651 90.9584 132.697 96.3638C125.906 100.059 127.317 114.301 134.075 119.375C140.303 124.053 150.544 118.349 150.445 115.878L149.342 101.063Z" fill="#E6B59F"/>
<path fill-rule="evenodd" clip-rule="evenodd" d="M206.323 128.73L181.09 130.683L180.197 139.1C178.577 154.124 203.931 151.168 205.353 137.93L206.323 128.73Z" fill="#CF7866"/>
<path fill-rule="evenodd" clip-rule="evenodd" d="M206.356 128.002L195.211 129.105L180.66 134.036L179.944 139.828C189.149 143.137 201.23 139.905 205.011 138.724L206.356 128.002Z" fill="#CF7866"/>
<path fill-rule="evenodd" clip-rule="evenodd" d="M180.043 143.203C133.601 142.221 143.842 104.902 148.328 67.4393L218.714 70.6385C222.429 105.785 235.293 144.373 180.043 143.203Z" fill="#E6B59F"/>
<path fill-rule="evenodd" clip-rule="evenodd" d="M195.707 69.5905L216.774 70.5502C219.827 78.2722 217.777 101.063 217.777 101.063L208.605 82.3097C208.605 82.3097 204.758 82.0449 189.402 83.8982C174.046 85.7515 157.886 84.0085 147.292 75.6688C152.374 74.7201 177.552 71.532 195.707 69.5905Z" fill="#CF7866"/>
<path fill-rule="evenodd" clip-rule="evenodd" d="M218.174 102.508C220.938 99.9771 224.391 98.3226 228.095 97.7537C247.551 95.1944 238.755 129.546 222.197 122.266C218.89 120.831 216.388 118.515 216.487 117.268L218.174 102.508Z" fill="#E6B59F"/>
<path fill-rule="evenodd" clip-rule="evenodd" d="M233.816 111.245C233.82 111.375 233.775 111.501 233.691 111.6C233.606 111.698 233.488 111.761 233.359 111.776C233.23 111.791 233.1 111.758 232.995 111.682C232.89 111.606 232.817 111.494 232.791 111.367C232.709 110.659 232.485 109.975 232.131 109.357C231.776 108.739 231.3 108.2 230.73 107.772C230.161 107.345 229.51 107.038 228.818 106.871C228.126 106.704 227.407 106.679 226.706 106.799C226.635 106.814 226.562 106.814 226.491 106.799C226.42 106.784 226.353 106.754 226.295 106.711C226.236 106.669 226.187 106.614 226.151 106.552C226.115 106.489 226.092 106.419 226.084 106.347C226.077 106.275 226.084 106.203 226.106 106.134C226.128 106.065 226.164 106.001 226.213 105.947C226.261 105.893 226.32 105.85 226.386 105.82C226.452 105.79 226.523 105.774 226.595 105.774C227.431 105.638 228.286 105.674 229.107 105.879C229.929 106.083 230.7 106.452 231.375 106.964C232.05 107.475 232.614 108.118 233.034 108.854C233.453 109.59 233.719 110.403 233.816 111.245Z" fill="#CF7866"/>
<path fill-rule="evenodd" clip-rule="evenodd" d="M234.577 104.726C234.652 104.832 234.685 104.963 234.668 105.093C234.651 105.222 234.586 105.341 234.486 105.424C234.386 105.508 234.258 105.551 234.127 105.544C233.997 105.537 233.874 105.481 233.783 105.387C233.618 105.194 233.425 105.027 233.21 104.891C232.44 104.434 231.531 104.274 230.652 104.439C229.379 104.674 228.196 105.259 227.235 106.127C226.214 107.026 225.34 108.079 224.644 109.248C224.644 109.315 224.788 109.05 224.799 109.05L225.074 109.215C225.354 109.363 225.62 109.537 225.868 109.734C226.26 109.994 226.564 110.368 226.737 110.806C226.91 111.244 226.946 111.724 226.838 112.183C226.451 113.346 225.771 114.391 224.865 115.216C224.77 115.316 224.639 115.374 224.502 115.377C224.364 115.38 224.231 115.328 224.132 115.233C224.032 115.138 223.975 115.007 223.972 114.87C223.969 114.732 224.02 114.599 224.115 114.499C224.894 113.813 225.486 112.94 225.835 111.962C225.889 111.689 225.859 111.405 225.749 111.149C225.638 110.893 225.453 110.677 225.218 110.528C225.012 110.375 224.794 110.239 224.567 110.12L224.248 109.921C223.729 109.601 223.443 109.26 223.773 108.708C224.534 107.473 225.474 106.357 226.562 105.399C227.677 104.408 229.042 103.744 230.509 103.479C231.631 103.284 232.785 103.499 233.761 104.086C234.065 104.255 234.34 104.471 234.577 104.726Z" fill="#CF7866"/>
<path fill-rule="evenodd" clip-rule="evenodd" d="M134.196 108.333C134.176 108.472 134.107 108.601 134.003 108.695C133.898 108.79 133.764 108.845 133.623 108.851C133.557 108.846 133.494 108.828 133.437 108.796C133.379 108.765 133.329 108.722 133.289 108.67C133.25 108.618 133.222 108.558 133.207 108.494C133.192 108.43 133.191 108.364 133.204 108.3C133.31 107.498 133.583 106.727 134.005 106.037C134.428 105.347 134.99 104.754 135.656 104.295C136.322 103.837 137.077 103.523 137.872 103.375C138.667 103.227 139.484 103.247 140.27 103.435C140.335 103.446 140.397 103.471 140.451 103.508C140.506 103.545 140.551 103.594 140.585 103.651C140.619 103.707 140.639 103.771 140.646 103.836C140.652 103.902 140.644 103.968 140.623 104.031C140.593 104.169 140.514 104.291 140.4 104.375C140.287 104.458 140.146 104.497 140.005 104.483C139.369 104.316 138.705 104.286 138.056 104.393C137.407 104.501 136.789 104.744 136.24 105.108C135.692 105.471 135.227 105.946 134.874 106.502C134.522 107.058 134.291 107.682 134.196 108.333Z" fill="#CF7866"/>
<path fill-rule="evenodd" clip-rule="evenodd" d="M132.719 103.347C132.678 103.4 132.627 103.445 132.568 103.478C132.509 103.512 132.444 103.532 132.377 103.54C132.31 103.547 132.242 103.54 132.178 103.52C132.113 103.501 132.054 103.468 132.002 103.424C131.906 103.325 131.852 103.192 131.852 103.054C131.852 102.916 131.906 102.784 132.002 102.685C132.568 102.025 133.272 101.498 134.064 101.14C134.954 100.749 135.942 100.637 136.897 100.82C137.942 101.046 138.907 101.554 139.686 102.288C140.925 103.472 141.895 104.909 142.53 106.502C142.871 107.274 142.309 107.605 141.56 107.947C141.319 108.062 141.087 108.195 140.865 108.344C140.613 108.487 140.403 108.696 140.26 108.948C140.116 109.201 140.044 109.488 140.049 109.778C140.232 110.767 140.669 111.691 141.317 112.459C141.394 112.576 141.425 112.718 141.402 112.857C141.38 112.996 141.306 113.122 141.196 113.209C141.151 113.257 141.096 113.295 141.035 113.321C140.975 113.348 140.909 113.361 140.843 113.361C140.777 113.361 140.712 113.348 140.651 113.321C140.59 113.295 140.536 113.257 140.49 113.209C139.73 112.292 139.231 111.187 139.046 110.01C139.021 109.516 139.131 109.025 139.364 108.59C139.597 108.155 139.945 107.791 140.369 107.539C140.635 107.355 140.915 107.193 141.207 107.053C141.394 106.954 141.692 107.263 141.615 107.053C141.023 105.579 140.125 104.248 138.98 103.148C138.315 102.52 137.492 102.085 136.599 101.891C135.857 101.747 135.088 101.832 134.394 102.133C133.757 102.415 133.186 102.829 132.719 103.347Z" fill="#CF7866"/>
<path fill-rule="evenodd" clip-rule="evenodd" d="M149.717 76.0549C174.454 85.1338 202.707 80.2799 209.465 78.5811C210.225 78.3935 210.038 78.3715 210.258 79.1106C211.361 82.762 215.406 96.43 216.994 106.833C217.6 110.859 220.543 105.145 223.476 103.126C233.65 96.1211 244.42 72.4697 227.676 63.5783C229.461 62.6018 231.077 61.3427 232.46 59.8497C235.37 56.0549 231.093 54.4884 223.531 58.8348C224.801 56.4732 225.651 53.9089 226.044 51.2562C226.199 46.8436 222.638 47.2959 219.309 53.3081C208.285 30.142 154.193 28.9065 135.21 67.8475C128.916 80.7653 140.171 105.74 143.841 104.593C144.404 104.417 144.371 101.284 144.69 99.2981C145.693 92.944 146.443 81.5154 149.717 76.0549Z" fill="#4D1400"/>
<path fill-rule="evenodd" clip-rule="evenodd" d="M143.015 61.0962C141.913 60.8094 140.81 60.5005 139.763 60.1586C143.299 55.1527 147.678 50.8003 152.705 47.2959C172.801 55.6908 190.846 56.1211 212.761 45.2551C214.624 46.7301 216.262 48.4693 217.622 50.4178C217.821 50.7377 218.03 51.0687 218.273 51.4217C218.515 51.7747 218.857 52.4145 219.111 52.933C196.534 63.4239 167.145 67.4062 143.015 61.0962Z" fill="#612200"/>
<path fill-rule="evenodd" clip-rule="evenodd" d="M183.372 110.793C180.213 112.046 176.734 112.247 173.451 111.367V111.521C173.441 112.138 173.558 112.75 173.793 113.319C174.029 113.889 174.378 114.405 174.82 114.835C175.262 115.265 175.787 115.599 176.363 115.819C176.939 116.038 177.553 116.137 178.169 116.11H178.853C180.123 115.998 181.303 115.405 182.151 114.451C183 113.498 183.452 112.256 183.416 110.98L183.372 110.793Z" fill="#CF7866"/>
<path fill-rule="evenodd" clip-rule="evenodd" d="M192.698 116.695C199.158 120.247 195.862 133.341 182.226 134.191C174.09 134.698 164.39 130.881 164.489 124.152C164.599 117.092 170.089 118.57 175.92 119.905C183.802 121.714 186.536 113.319 192.698 116.695Z" fill="#290000"/>
<path fill-rule="evenodd" clip-rule="evenodd" d="M178.422 126.502C175.051 127.093 172.05 128.997 170.078 131.797C172.502 132.976 175.113 133.723 177.794 134.003C179.257 134.178 180.733 134.222 182.204 134.135C183.803 134.041 185.384 133.749 186.911 133.264C189.263 132.528 191.378 131.18 193.04 129.359C189.678 126.667 183.405 125.718 178.422 126.502Z" fill="#C42B23"/>
<path fill-rule="evenodd" clip-rule="evenodd" d="M156.012 113.032C159.319 113.319 161.931 115.007 161.777 116.772C161.623 118.537 158.79 119.75 155.438 119.453C152.087 119.155 149.519 117.478 149.673 115.702C149.827 113.926 152.66 112.734 156.012 113.032Z" fill="#CF7866"/>
<path fill-rule="evenodd" clip-rule="evenodd" d="M207.073 113.021C210.622 113.165 213.444 114.797 213.367 116.684C213.29 118.57 210.358 119.993 206.808 119.85C203.258 119.706 200.436 118.074 200.503 116.187C200.569 114.301 203.512 112.889 207.073 113.021Z" fill="#CF7866"/>
<path fill-rule="evenodd" clip-rule="evenodd" d="M156.045 91.5982C155.998 91.7249 155.927 91.8413 155.836 91.9407C155.745 92.04 155.635 92.1204 155.513 92.1773C155.39 92.2342 155.258 92.2663 155.123 92.272C154.988 92.2777 154.854 92.2568 154.727 92.2104C154.601 92.164 154.484 92.0932 154.385 92.0018C154.286 91.9105 154.205 91.8005 154.149 91.6781C154.092 91.5557 154.06 91.4233 154.054 91.2884C154.048 91.1536 154.069 91.0189 154.115 90.8921C154.713 89.3792 155.76 88.0856 157.114 87.1856C157.934 86.6305 158.862 86.2546 159.837 86.0824C160.883 85.922 161.953 86.0321 162.945 86.4024C164.785 87.1374 166.334 88.4546 167.355 90.153C167.429 90.2659 167.48 90.3924 167.505 90.5251C167.53 90.6578 167.529 90.7942 167.501 90.9264C167.474 91.0587 167.42 91.1841 167.344 91.2956C167.268 91.4071 167.17 91.5024 167.057 91.5761C166.945 91.6522 166.82 91.7053 166.687 91.7321C166.555 91.7589 166.418 91.7589 166.286 91.7322C166.153 91.7055 166.027 91.6525 165.916 91.5765C165.804 91.5004 165.709 91.4028 165.635 91.2893C164.874 89.9803 163.715 88.9485 162.328 88.3439C161.656 88.0935 160.932 88.0176 160.223 88.1233C159.525 88.2457 158.86 88.5125 158.271 88.9065C157.273 89.5561 156.496 90.4951 156.045 91.5982Z" fill="#290000"/>
<path fill-rule="evenodd" clip-rule="evenodd" d="M194.01 90.12C193.976 90.2514 193.917 90.375 193.836 90.4835C193.755 90.592 193.652 90.6832 193.536 90.752C193.419 90.8207 193.289 90.8655 193.155 90.8839C193.021 90.9023 192.884 90.8939 192.753 90.8591C192.622 90.8269 192.499 90.769 192.391 90.6886C192.282 90.6082 192.191 90.507 192.122 90.391C192.054 90.2749 192.009 90.1463 191.99 90.0126C191.972 89.8789 191.98 89.7429 192.015 89.6125C192.183 88.9329 192.491 88.2961 192.92 87.7431C193.349 87.1902 193.889 86.7335 194.506 86.4024C195.63 85.7862 196.896 85.478 198.177 85.5088C199.481 85.5239 200.764 85.8411 201.925 86.4355C202.66 86.7966 203.312 87.3067 203.839 87.9334C204.367 88.5601 204.758 89.2897 204.989 90.0758C205.035 90.3291 204.984 90.5903 204.848 90.8085C204.712 91.0267 204.499 91.1864 204.252 91.2565C204.004 91.3267 203.74 91.3023 203.509 91.188C203.279 91.0738 203.099 90.8779 203.005 90.6384C202.842 90.1287 202.578 89.6574 202.227 89.2534C201.877 88.8495 201.447 88.5212 200.966 88.2887C200.098 87.8467 199.139 87.6126 198.166 87.6048C197.245 87.5798 196.334 87.7926 195.52 88.2225C195.153 88.4199 194.83 88.6899 194.57 89.0161C194.311 89.3422 194.12 89.7178 194.01 90.12Z" fill="#290000"/>
<path fill-rule="evenodd" clip-rule="evenodd" d="M202.63 103.457C202.69 103.645 202.711 103.844 202.692 104.04C202.673 104.237 202.614 104.427 202.519 104.6C202.423 104.773 202.294 104.925 202.139 105.047C201.983 105.168 201.804 105.257 201.613 105.307C201.423 105.357 201.223 105.368 201.028 105.339C200.833 105.309 200.646 105.241 200.478 105.137C200.31 105.033 200.165 104.896 200.052 104.734C199.939 104.573 199.86 104.389 199.819 104.196C199.497 102.859 198.671 101.697 197.515 100.953C196.828 100.511 196.038 100.256 195.222 100.214C194.448 100.173 193.679 100.369 193.018 100.776C192.031 101.449 191.334 102.469 191.067 103.633C191.019 103.818 190.936 103.992 190.82 104.144C190.705 104.296 190.56 104.423 190.394 104.517C190.229 104.612 190.046 104.673 189.856 104.695C189.667 104.717 189.475 104.702 189.292 104.648C188.921 104.545 188.606 104.299 188.416 103.964C188.226 103.629 188.176 103.233 188.278 102.861C188.725 100.991 189.873 99.3638 191.485 98.3163C192.619 97.6057 193.941 97.2557 195.278 97.3125C196.606 97.3658 197.896 97.7733 199.015 98.4928C200.809 99.6244 202.103 101.401 202.63 103.457Z" fill="#290000"/>
<path fill-rule="evenodd" clip-rule="evenodd" d="M160.068 103.633C159.963 103.998 159.721 104.309 159.393 104.498C159.064 104.688 158.675 104.743 158.306 104.652C157.938 104.561 157.619 104.33 157.418 104.008C157.216 103.687 157.146 103.299 157.224 102.927C157.502 101.958 157.975 101.056 158.614 100.277C159.253 99.4971 160.044 98.8563 160.939 98.3936C162.006 97.8143 163.188 97.479 164.401 97.4118C165.669 97.3363 166.93 97.6604 168.005 98.3384H168.093C169.604 99.4257 170.623 101.068 170.926 102.905C170.985 103.099 171.003 103.303 170.979 103.503C170.956 103.704 170.891 103.898 170.788 104.073C170.686 104.247 170.549 104.399 170.386 104.518C170.222 104.637 170.036 104.72 169.839 104.764C169.641 104.807 169.437 104.81 169.239 104.77C169.04 104.731 168.852 104.651 168.686 104.536C168.52 104.42 168.38 104.272 168.274 104.099C168.168 103.927 168.099 103.735 168.071 103.534C167.912 102.452 167.349 101.471 166.495 100.787H166.418C165.855 100.436 165.194 100.273 164.533 100.324C163.76 100.371 163.007 100.59 162.328 100.964C161.789 101.231 161.311 101.606 160.923 102.065C160.534 102.524 160.243 103.058 160.068 103.633Z" fill="#290000"/>
<path fill-rule="evenodd" clip-rule="evenodd" d="M185.5 135.724C182.185 136.33 178.796 136.408 175.457 135.956C175.452 135.977 175.452 136 175.457 136.022C175.193 137.357 177.078 138.383 179.657 138.327H180.352C182.931 138.327 185.246 137.136 185.511 135.812C185.498 135.785 185.494 135.754 185.5 135.724Z" fill="#CF7866"/>
<path fill-rule="evenodd" clip-rule="evenodd" d="M112.645 304.373C112.645 304.373 95.5914 304.67 89.782 304.516C83.2781 304.34 69.8184 307.483 89.0324 318.14C106.847 328.002 121.001 333.418 124.242 333.584C125.928 333.661 126.568 327.66 129.952 317.996C131.374 313.926 130.735 314.323 126.645 314.367C121.133 314.433 115.423 313.109 114.585 307.318C114.155 304.417 113.538 305.134 112.645 304.373Z" fill="#32082F"/>
<path fill-rule="evenodd" clip-rule="evenodd" d="M107.21 304.505H105.171C105.711 309.789 106.736 311.355 107.552 310.793C108.368 310.23 107.32 304.99 107.21 304.505Z" fill="white"/>
<path fill-rule="evenodd" clip-rule="evenodd" d="M103.55 304.505H101.489C102.04 309.613 103.032 311.124 103.848 310.572C104.664 310.021 103.771 305.608 103.55 304.505Z" fill="white"/>
<path fill-rule="evenodd" clip-rule="evenodd" d="M99.9128 304.505H97.8293C98.3805 309.403 99.3616 310.848 100.166 310.307C100.971 309.767 100.188 305.994 99.9128 304.505Z" fill="white"/>
<path fill-rule="evenodd" clip-rule="evenodd" d="M126.204 330.749C115.963 326.557 92.8467 316.993 87.2687 313.793C84.2855 312.193 81.8995 309.67 80.4672 306.601C77.7554 308.598 78.2625 312.205 89.0215 318.14C106.836 328.002 120.99 333.418 124.231 333.584C124.947 333.595 125.543 332.613 126.204 330.749Z" fill="#B56136"/>
<path fill-rule="evenodd" clip-rule="evenodd" d="M160.862 149.061C160.837 148.989 160.827 148.912 160.832 148.836C160.837 148.759 160.857 148.685 160.891 148.616C160.925 148.547 160.972 148.486 161.029 148.436C161.087 148.385 161.153 148.346 161.226 148.322C161.298 148.297 161.375 148.287 161.451 148.292C161.527 148.297 161.602 148.317 161.67 148.351C161.739 148.385 161.8 148.432 161.851 148.489C161.901 148.547 161.94 148.613 161.964 148.686C163.166 152.15 163.662 158.758 163.739 165.52C163.86 175.448 163.089 185.674 162.394 187.009C162.36 187.076 162.312 187.135 162.254 187.183C162.196 187.23 162.129 187.266 162.057 187.288C161.985 187.309 161.91 187.316 161.835 187.308C161.761 187.3 161.688 187.277 161.623 187.241C161.556 187.207 161.498 187.16 161.45 187.104C161.402 187.047 161.366 186.981 161.345 186.91C161.323 186.838 161.316 186.764 161.324 186.69C161.332 186.616 161.355 186.544 161.391 186.48C162.031 185.255 162.725 175.25 162.604 165.52C162.494 158.89 162.042 152.392 160.862 149.061Z" fill="#D06C19"/>
<path fill-rule="evenodd" clip-rule="evenodd" d="M231.336 162.574C231.314 162.699 231.252 162.812 231.159 162.897C231.066 162.983 230.948 163.035 230.822 163.046C230.697 163.058 230.571 163.027 230.465 162.96C230.358 162.893 230.277 162.792 230.233 162.674C229.274 150.76 231.104 143.766 231.115 143.744C231.166 143.612 231.263 143.504 231.388 143.44C231.513 143.376 231.658 143.36 231.794 143.395C231.93 143.431 232.049 143.515 232.127 143.632C232.205 143.749 232.237 143.891 232.217 144.031C232.217 144.031 230.388 150.87 231.336 162.574Z" fill="#D06C19"/>
<path fill-rule="evenodd" clip-rule="evenodd" d="M306.693 89.3919C306.693 89.3919 301.357 91.3555 302.283 95.5916C303.209 99.8276 303.066 101.571 301.876 100.831C295.592 96.9264 289.375 78.0736 302.746 75.04L306.693 89.3919Z" fill="#E22A16"/>
<path fill-rule="evenodd" clip-rule="evenodd" d="M296.529 23.104C296.99 22.9488 297.486 22.9336 297.955 23.0605C298.424 23.1873 298.845 23.4505 299.165 23.8167C299.484 24.1829 299.689 24.6357 299.751 25.118C299.814 25.6002 299.732 26.0902 299.517 26.5261C299.301 26.962 298.962 27.3242 298.541 27.5669C298.12 27.8097 297.636 27.9221 297.151 27.89C296.666 27.8578 296.202 27.6826 295.816 27.3864C295.431 27.0902 295.142 26.6864 294.986 26.2259C294.88 25.9196 294.837 25.5954 294.857 25.2721C294.878 24.9488 294.962 24.6328 295.106 24.3425C295.25 24.0521 295.449 23.7931 295.694 23.5805C295.938 23.368 296.222 23.206 296.529 23.104Z" fill="#E22A16"/>
<path fill-rule="evenodd" clip-rule="evenodd" d="M328.552 81.9677C328.552 81.9677 333.976 80.2689 335.806 84.174C337.636 88.0791 338.804 89.3919 339.3 88.0902C341.924 81.1624 335.42 62.398 322.963 68.1453L328.552 81.9677Z" fill="#E22A16"/>
<path fill-rule="evenodd" clip-rule="evenodd" d="M318.356 87.5827H318.278L307.553 91.2562C289.54 63.0929 285.186 54.9959 299.472 32.0284C324.826 41.5816 326.237 50.6715 329.026 84.0086L318.356 87.5827Z" fill="#1B4D7B"/>
<path fill-rule="evenodd" clip-rule="evenodd" d="M299.726 31.5651C299.705 31.4832 299.654 31.412 299.584 31.3653C299.514 31.3185 299.428 31.2994 299.345 31.3118C299.261 31.3241 299.185 31.367 299.132 31.4321C299.078 31.4972 299.05 31.5799 299.053 31.6644C299.048 31.7046 299.048 31.7454 299.053 31.7857L299.505 33.1095C299.533 33.1857 299.586 33.2499 299.656 33.2915C299.725 33.3331 299.807 33.3495 299.887 33.3378C299.968 33.3262 300.041 33.2872 300.096 33.2276C300.151 33.1679 300.184 33.0911 300.189 33.0102C300.194 32.9699 300.194 32.9291 300.189 32.8889L299.737 31.5651H299.726ZM318.245 88.4983C318.266 88.5802 318.317 88.6514 318.387 88.6981C318.458 88.7449 318.543 88.764 318.626 88.7516C318.71 88.7393 318.786 88.6965 318.84 88.6314C318.894 88.5662 318.921 88.4835 318.918 88.3991C318.923 88.3588 318.923 88.318 318.918 88.2777L318.598 87.329C318.57 87.2528 318.517 87.1885 318.448 87.1469C318.378 87.1054 318.296 87.089 318.216 87.1007C318.136 87.1123 318.062 87.1513 318.007 87.2109C317.952 87.2706 317.92 87.3473 317.915 87.4283C317.903 87.4679 317.903 87.51 317.915 87.5496L318.234 88.4983H318.245ZM317.474 86.2259C317.502 86.302 317.555 86.3663 317.624 86.4079C317.694 86.4495 317.776 86.4658 317.856 86.4542C317.936 86.4425 318.01 86.4036 318.065 86.3439C318.12 86.2843 318.152 86.2075 318.157 86.1266C318.162 86.0863 318.162 86.0455 318.157 86.0052L317.705 84.6704C317.685 84.5868 317.634 84.5139 317.562 84.4664C317.49 84.4189 317.403 84.4003 317.318 84.4142C317.233 84.4282 317.157 84.4736 317.104 84.5416C317.051 84.6095 317.026 84.6949 317.033 84.7807C317.027 84.821 317.027 84.8618 317.033 84.9021L317.485 86.2259H317.474ZM316.581 83.5673C316.602 83.6491 316.652 83.7203 316.723 83.7671C316.793 83.8139 316.878 83.8329 316.962 83.8206C317.045 83.8083 317.121 83.7654 317.175 83.7003C317.229 83.6352 317.257 83.5524 317.253 83.468C317.259 83.4277 317.259 83.3869 317.253 83.3467L316.801 82.0229C316.774 81.9467 316.72 81.8824 316.651 81.8408C316.581 81.7992 316.499 81.7829 316.419 81.7946C316.339 81.8062 316.265 81.8451 316.21 81.9048C316.156 81.9645 316.123 82.0412 316.118 82.1222C316.113 82.1625 316.113 82.2032 316.118 82.2435L316.57 83.5673H316.581ZM315.677 80.9197C315.705 80.9965 315.759 81.061 315.83 81.1023C315.901 81.1435 315.983 81.159 316.064 81.146C316.145 81.1329 316.218 81.0922 316.272 81.0308C316.327 80.9695 316.358 80.8912 316.36 80.8094C316.366 80.7691 316.366 80.7284 316.36 80.6881L315.908 79.3643C315.875 79.301 315.823 79.2497 315.76 79.2175C315.696 79.1854 315.624 79.1739 315.553 79.1849C315.483 79.1958 315.417 79.2286 315.366 79.2786C315.315 79.3286 315.281 79.3933 315.269 79.4636C315.259 79.5034 315.259 79.5451 315.269 79.5849L315.71 80.9197H315.677ZM314.784 78.2612C314.805 78.343 314.856 78.4142 314.926 78.461C314.996 78.5077 315.081 78.5268 315.165 78.5145C315.248 78.5021 315.324 78.4593 315.378 78.3942C315.432 78.3291 315.46 78.2463 315.456 78.1619C315.462 78.118 315.462 78.0734 315.456 78.0295L315.004 76.7057C314.977 76.6295 314.924 76.5653 314.854 76.5237C314.784 76.4821 314.703 76.4658 314.622 76.4774C314.542 76.4891 314.468 76.528 314.414 76.5876C314.359 76.6473 314.326 76.7241 314.321 76.805C314.315 76.8452 314.315 76.8861 314.321 76.9264L314.773 78.2612H314.784ZM313.88 75.6026C313.908 75.6788 313.961 75.7431 314.031 75.7846C314.1 75.8262 314.182 75.8426 314.262 75.8309C314.342 75.8193 314.416 75.7803 314.471 75.7207C314.526 75.661 314.559 75.5843 314.564 75.5033C314.574 75.4635 314.574 75.4218 314.564 75.382L314.123 74.0471C314.094 73.9704 314.04 73.9059 313.97 73.8646C313.899 73.8234 313.816 73.8079 313.736 73.8209C313.655 73.834 313.581 73.8747 313.527 73.936C313.473 73.9974 313.442 74.0757 313.439 74.1575C313.429 74.1973 313.429 74.239 313.439 74.2788L313.88 75.6026ZM312.987 72.944C313.015 73.0202 313.068 73.0845 313.138 73.1261C313.207 73.1676 313.289 73.184 313.369 73.1723C313.449 73.1607 313.523 73.1218 313.578 73.0621C313.633 73.0024 313.666 72.9257 313.671 72.8447C313.676 72.8044 313.676 72.7637 313.671 72.7234L313.219 71.3996C313.191 71.3234 313.138 71.2591 313.068 71.2176C312.999 71.176 312.917 71.1596 312.837 71.1713C312.756 71.1829 312.683 71.2219 312.628 71.2815C312.573 71.3412 312.54 71.4179 312.535 71.4989C312.53 71.5392 312.53 71.58 312.535 71.6202L312.987 72.944ZM312.083 70.2965C312.112 70.3732 312.166 70.4377 312.236 70.479C312.307 70.5203 312.39 70.5357 312.47 70.5227C312.551 70.5096 312.625 70.469 312.679 70.4076C312.733 70.3462 312.764 70.2679 312.767 70.1861C312.777 70.1464 312.777 70.1046 312.767 70.0648L312.326 68.741C312.298 68.6648 312.245 68.6006 312.175 68.559C312.106 68.5174 312.024 68.5011 311.944 68.5127C311.864 68.5244 311.79 68.5633 311.735 68.6229C311.68 68.6826 311.647 68.7594 311.642 68.8403C311.632 68.8801 311.632 68.9219 311.642 68.9617L312.083 70.2965ZM311.19 67.6379C311.218 67.7141 311.271 67.7784 311.341 67.8199C311.41 67.8615 311.492 67.8779 311.572 67.8662C311.653 67.8546 311.726 67.8156 311.781 67.756C311.836 67.6963 311.869 67.6195 311.874 67.5386C311.879 67.4946 311.879 67.4502 311.874 67.4062L311.422 66.0825C311.394 66.0063 311.341 65.942 311.271 65.9004C311.202 65.8588 311.12 65.8425 311.04 65.8541C310.96 65.8658 310.886 65.9047 310.831 65.9644C310.776 66.024 310.743 66.1008 310.738 66.1817C310.732 66.2219 310.732 66.2629 310.738 66.3031L311.19 67.6379ZM310.286 64.9793C310.314 65.0555 310.367 65.1198 310.437 65.1614C310.507 65.2029 310.588 65.2193 310.668 65.2076C310.749 65.196 310.822 65.157 310.877 65.0974C310.932 65.0377 310.965 64.961 310.97 64.88C310.98 64.8402 310.98 64.7985 310.97 64.7587L310.529 63.4239C310.501 63.3471 310.447 63.2826 310.376 63.2413C310.305 63.2001 310.223 63.1846 310.142 63.1977C310.061 63.2107 309.987 63.2514 309.933 63.3128C309.879 63.3741 309.848 63.4524 309.845 63.5342C309.835 63.574 309.835 63.6157 309.845 63.6555L310.286 64.9793ZM309.394 62.3207C309.421 62.3969 309.474 62.4612 309.544 62.5028C309.614 62.5444 309.695 62.5607 309.776 62.5491C309.856 62.5374 309.929 62.4985 309.984 62.4388C310.039 62.3791 310.072 62.3024 310.077 62.2214C310.082 62.1812 310.082 62.1404 310.077 62.1001L309.625 60.7763C309.604 60.6945 309.553 60.6233 309.483 60.5765C309.413 60.5297 309.328 60.5107 309.244 60.523C309.161 60.5354 309.085 60.5782 309.031 60.6433C308.977 60.7084 308.949 60.7912 308.953 60.8756C308.947 60.9159 308.947 60.9567 308.953 60.997L309.405 62.3207H309.394ZM308.49 59.6732C308.518 59.7499 308.572 59.8145 308.643 59.8557C308.713 59.897 308.796 59.9124 308.877 59.8994C308.957 59.8864 309.031 59.8457 309.085 59.7843C309.139 59.7229 309.17 59.6446 309.173 59.5629C309.178 59.5226 309.178 59.4818 309.173 59.4415L308.721 58.1178C308.693 58.0416 308.64 57.9773 308.571 57.9357C308.501 57.8941 308.419 57.8778 308.339 57.8894C308.259 57.9011 308.185 57.94 308.13 57.9997C308.075 58.0593 308.043 58.1361 308.038 58.217C308.027 58.2568 308.027 58.2986 308.038 58.3384L308.479 59.6732H308.49ZM307.553 57.0146C307.58 57.0908 307.633 57.1551 307.703 57.1967C307.773 57.2382 307.854 57.2546 307.935 57.2429C308.015 57.2313 308.089 57.1924 308.143 57.1327C308.198 57.073 308.231 56.9963 308.236 56.9153C308.242 56.8751 308.242 56.8342 308.236 56.794L307.784 55.4592C307.763 55.3773 307.713 55.3061 307.642 55.2594C307.572 55.2126 307.487 55.1935 307.403 55.2059C307.32 55.2182 307.244 55.2611 307.19 55.3262C307.136 55.3913 307.108 55.474 307.112 55.5585C307.106 55.6024 307.106 55.6469 307.112 55.6908L307.564 57.0146H307.553ZM306.66 54.356C306.681 54.4379 306.731 54.5091 306.802 54.5558C306.872 54.6026 306.957 54.6217 307.041 54.6093C307.124 54.597 307.2 54.5541 307.254 54.489C307.308 54.4239 307.336 54.3412 307.332 54.2568C307.338 54.2165 307.338 54.1757 307.332 54.1354L306.88 52.8006C306.852 52.7238 306.798 52.6593 306.727 52.6181C306.656 52.5768 306.574 52.5614 306.493 52.5744C306.412 52.5874 306.339 52.6281 306.285 52.6895C306.231 52.7509 306.199 52.8291 306.197 52.9109C306.191 52.9512 306.191 52.992 306.197 53.0323L306.649 54.356H306.66ZM305.756 51.6975C305.783 51.7736 305.837 51.8379 305.906 51.8795C305.976 51.9211 306.058 51.9374 306.138 51.9258C306.218 51.9141 306.292 51.8752 306.347 51.8155C306.402 51.7559 306.434 51.6791 306.439 51.5982C306.444 51.5579 306.444 51.5171 306.439 51.4768L305.987 50.1531C305.966 50.0712 305.916 50 305.845 49.9532C305.775 49.9065 305.69 49.8874 305.606 49.8997C305.523 49.9121 305.447 49.9549 305.393 50.02C305.339 50.0851 305.311 50.1679 305.315 50.2523C305.309 50.2926 305.309 50.3334 305.315 50.3737L305.767 51.6975H305.756ZM304.863 49.0499C304.883 49.1336 304.935 49.2064 305.006 49.2539C305.078 49.3014 305.165 49.32 305.25 49.3061C305.335 49.2922 305.412 49.2467 305.464 49.1788C305.517 49.1108 305.543 49.0254 305.535 48.9396C305.541 48.8993 305.541 48.8585 305.535 48.8182L305.083 47.4945C305.056 47.4183 305.002 47.354 304.933 47.3124C304.863 47.2708 304.781 47.2545 304.701 47.2661C304.621 47.2778 304.547 47.3167 304.492 47.3764C304.437 47.4361 304.405 47.5128 304.4 47.5938C304.394 47.634 304.394 47.6749 304.4 47.7151L304.852 49.0499H304.863ZM304.003 46.3693C304.031 46.4455 304.084 46.5097 304.153 46.5513C304.223 46.5929 304.305 46.6092 304.385 46.5976C304.465 46.5859 304.539 46.547 304.594 46.4873C304.649 46.4277 304.681 46.3509 304.686 46.27C304.698 46.2303 304.698 46.1883 304.686 46.1486L304.245 44.8138C304.218 44.7377 304.165 44.6734 304.095 44.6318C304.025 44.5902 303.944 44.5739 303.863 44.5855C303.783 44.5972 303.71 44.6361 303.655 44.6958C303.6 44.7554 303.567 44.8322 303.562 44.9131C303.55 44.9565 303.55 45.0021 303.562 45.0455L304.003 46.3693ZM303.143 43.7328C303.171 43.8089 303.224 43.8732 303.294 43.9148C303.363 43.9564 303.445 43.9727 303.525 43.9611C303.605 43.9494 303.679 43.9105 303.734 43.8508C303.789 43.7912 303.822 43.7144 303.827 43.6335C303.832 43.5932 303.832 43.5524 303.827 43.5121L303.375 42.1773C303.346 42.1006 303.292 42.036 303.222 41.9948C303.151 41.9535 303.068 41.9381 302.988 41.9511C302.907 41.9641 302.833 42.0048 302.779 42.0662C302.725 42.1276 302.694 42.2059 302.691 42.2876C302.686 42.3279 302.686 42.3687 302.691 42.409L303.143 43.7328ZM302.239 41.0852C302.268 41.162 302.322 41.2265 302.392 41.2677C302.463 41.309 302.546 41.3244 302.626 41.3114C302.707 41.2984 302.781 41.2577 302.835 41.1963C302.889 41.1349 302.92 41.0567 302.923 40.9749C302.933 40.9351 302.933 40.8933 302.923 40.8535L302.482 39.5298C302.454 39.4536 302.401 39.3893 302.331 39.3477C302.262 39.3061 302.18 39.2898 302.1 39.3015C302.019 39.3131 301.946 39.352 301.891 39.4117C301.836 39.4714 301.803 39.5481 301.798 39.6291C301.788 39.6689 301.788 39.7106 301.798 39.7504L302.239 41.0852ZM301.346 38.4266C301.374 38.5028 301.427 38.5671 301.497 38.6087C301.566 38.6503 301.648 38.6666 301.728 38.655C301.809 38.6433 301.882 38.6044 301.937 38.5447C301.992 38.485 302.025 38.4083 302.03 38.3273C302.036 38.2834 302.036 38.2389 302.03 38.195L301.578 36.8712C301.557 36.7893 301.506 36.7182 301.436 36.6714C301.366 36.6246 301.28 36.6056 301.197 36.6179C301.113 36.6302 301.037 36.6731 300.984 36.7382C300.93 36.8033 300.902 36.886 300.905 36.9705C300.899 37.0107 300.899 37.0516 300.905 37.0918L301.357 38.4266H301.346ZM300.442 35.7681C300.47 35.8442 300.523 35.9085 300.593 35.9501C300.662 35.9917 300.744 36.008 300.824 35.9964C300.905 35.9847 300.978 35.9458 301.033 35.8861C301.088 35.8265 301.121 35.7497 301.126 35.6688C301.132 35.6285 301.132 35.5876 301.126 35.5474L300.63 34.2347C300.602 34.1585 300.549 34.0942 300.479 34.0526C300.41 34.0111 300.328 33.9947 300.248 34.0064C300.167 34.018 300.094 34.0569 300.039 34.1166C299.984 34.1763 299.951 34.253 299.946 34.334C299.935 34.3773 299.935 34.423 299.946 34.4663L300.442 35.7681Z" fill="#033352"/>
<path fill-rule="evenodd" clip-rule="evenodd" d="M307.376 90.9804C307.376 90.9804 317.529 83.6225 329.28 83.8541L334.626 89.3698C334.626 89.3698 325.973 102.387 306.781 99.0775L307.376 90.9804Z" fill="#1B4D7B"/>
<path fill-rule="evenodd" clip-rule="evenodd" d="M306.12 51.4989C307.862 50.9076 309.74 50.8465 311.517 51.3233C313.294 51.8002 314.89 52.7936 316.103 54.1779C317.316 55.5622 318.092 57.2754 318.332 59.1007C318.572 60.9261 318.266 62.7818 317.453 64.4331C316.639 66.0845 315.355 67.4574 313.761 68.3783C312.168 69.2992 310.338 69.7268 308.502 69.607C306.666 69.4872 304.907 68.8253 303.447 67.7051C301.987 66.5849 300.891 65.0567 300.299 63.3136C299.903 62.1556 299.739 60.9305 299.817 59.7089C299.895 58.4872 300.214 57.2931 300.755 56.1952C301.296 55.0972 302.048 54.1171 302.969 53.3111C303.889 52.5052 304.96 51.8893 306.12 51.4989Z" fill="#EBEBEB"/>
<path fill-rule="evenodd" clip-rule="evenodd" d="M307.035 54.2347C308.236 53.8263 309.532 53.7837 310.758 54.1122C311.984 54.4408 313.084 55.1257 313.921 56.0805C314.758 57.0352 315.293 58.2169 315.459 59.4759C315.624 60.735 315.413 62.015 314.852 63.1539C314.29 64.2928 313.404 65.2396 312.305 65.8744C311.206 66.5093 309.943 66.8037 308.677 66.7204C307.411 66.6371 306.198 66.1799 305.191 65.4066C304.184 64.6332 303.43 63.5785 303.022 62.3759C302.476 60.7638 302.591 59.0006 303.344 57.4739C304.096 55.9473 305.424 54.7821 307.035 54.2347Z" fill="#1B4D7B"/>
<path fill-rule="evenodd" clip-rule="evenodd" d="M297.477 25.9391L300.024 29.5243L302.57 33.1316C302.144 33.9752 301.404 34.6184 300.51 34.9235C299.616 35.2286 298.638 35.1714 297.786 34.7642L297.631 30.3516L297.477 25.9391Z" fill="#E22A16"/>
<path fill-rule="evenodd" clip-rule="evenodd" d="M307.608 91.5982C307.532 91.6685 307.443 91.722 307.345 91.7551C307.248 91.7883 307.144 91.8003 307.042 91.7904C306.939 91.7805 306.84 91.7489 306.751 91.6978C306.661 91.6466 306.584 91.577 306.523 91.4936C306.462 91.4102 306.42 91.3148 306.399 91.2139C306.378 91.1129 306.379 91.0087 306.401 90.908C306.424 90.8074 306.467 90.7126 306.529 90.63C306.59 90.5474 306.669 90.4788 306.759 90.4289C306.759 90.4289 316.757 83.126 329.445 83.0378C329.638 83.0378 329.823 83.1145 329.96 83.251C330.096 83.3876 330.173 83.5728 330.173 83.7659C330.173 83.959 330.096 84.1441 329.96 84.2807C329.823 84.4172 329.638 84.4939 329.445 84.4939C317.231 84.5601 307.63 91.5982 307.608 91.5982Z" fill="white"/>
<path fill-rule="evenodd" clip-rule="evenodd" d="M310.264 63.821C308.791 64.014 307.297 63.6895 306.037 62.9028C304.776 62.1162 303.828 60.9163 303.353 59.5077C303.21 59.0735 303.111 58.6264 303.055 58.1729C302.65 59.3083 302.574 60.5347 302.833 61.7118C303.092 62.8889 303.678 63.9691 304.522 64.8289C305.366 65.6887 306.435 66.2932 307.607 66.5735C308.778 66.8537 310.005 66.7982 311.146 66.4134C312.534 65.942 313.719 65.0101 314.505 63.7721C315.291 62.5342 315.631 61.0646 315.468 59.607C315.143 60.5236 314.615 61.355 313.924 62.0388C313.233 62.7227 312.397 63.2414 311.477 63.5563C311.082 63.682 310.676 63.7706 310.264 63.821Z" fill="#033352"/>
<path fill-rule="evenodd" clip-rule="evenodd" d="M301.931 63.9203C302.449 59.2319 301.633 54.0913 297.929 56.7609C295.724 58.3825 294.622 66.1266 294.005 72.933C293.63 77.3456 294.655 81.2176 291.8 83.3356L289.827 84.8469C293.134 90.3626 302.195 83.6666 302.614 82.6406C306.748 72.1166 301.512 71.0135 301.831 67.1966C301.016 68.1122 302.316 63.4349 301.931 63.9203Z" fill="#E6B59F"/>
<path fill-rule="evenodd" clip-rule="evenodd" d="M301.445 63.8872C301.448 63.8297 301.463 63.7733 301.487 63.7214C301.512 63.6695 301.547 63.6232 301.591 63.5851C301.634 63.5471 301.684 63.5181 301.739 63.4998C301.793 63.4816 301.851 63.4745 301.908 63.479C302.023 63.4875 302.131 63.5408 302.207 63.6274C302.283 63.714 302.322 63.8271 302.316 63.9424C302.222 65.1076 301.996 66.2585 301.644 67.3731C302.515 68.5976 307.079 75.5254 303.639 81.714C303.581 81.8141 303.487 81.8876 303.375 81.9185C303.264 81.9495 303.145 81.9354 303.044 81.8795C302.994 81.853 302.949 81.8166 302.913 81.7725C302.878 81.7283 302.851 81.6773 302.836 81.6227C302.82 81.568 302.816 81.5107 302.824 81.4543C302.831 81.398 302.85 81.3437 302.879 81.2948C306.263 75.2055 301.181 68.2005 300.828 67.7482C300.778 67.6877 300.745 67.6152 300.731 67.5378C300.718 67.4604 300.724 67.3809 300.751 67.3069C301.121 66.1997 301.355 65.0513 301.445 63.8872Z" fill="#CF7866"/>
</g>
<defs>
<clipPath id="clip0_31_2">
<rect width="603" height="420" fill="white"/>
</clipPath>
</defs>
</svg>
