<svg width="501" height="500" viewBox="0 0 501 500" fill="none" xmlns="http://www.w3.org/2000/svg">
<path d="M341.909 92.064C417.564 135.743 411.59 403.298 339.608 445.484C267.627 487.669 36.3818 364.045 36.9889 270.766C37.5961 177.487 266.254 48.3847 341.909 92.064Z" fill="#3CA642"/>
<g clip-path="url(#clip0_76_3020)">
<path fill-rule="evenodd" clip-rule="evenodd" d="M208.993 168.51C209.17 164.419 208.172 159.992 205.099 162.521C202.026 165.051 201.789 183.816 201.789 183.816L192.273 194.676L205.821 205.18L217.797 191.237C224.309 187.848 232.313 182.65 231.473 180.723C230.633 178.796 223.538 181.583 223.538 181.583C223.538 181.583 234.605 174.942 232.56 172.65C230.514 170.348 221.275 175.723 221.275 175.723C221.275 175.723 232.51 164.834 229.418 162.571C226.325 160.308 216.453 170.753 216.453 170.753C218.41 167.186 223.686 157.057 220.119 156.988C216.967 156.919 210.455 166.336 208.993 168.51Z" fill="#E6B59F"/>
<path fill-rule="evenodd" clip-rule="evenodd" d="M201.838 181.919C201.799 183.095 201.789 183.816 201.789 183.816L192.273 194.676L205.821 205.18L215.86 193.49C208.844 190.99 204.279 186.454 201.829 181.919H201.838Z" fill="#CF7866"/>
<path fill-rule="evenodd" clip-rule="evenodd" d="M208.548 168.51C208.548 168.292 208.726 168.114 208.943 168.114C209.161 168.114 209.338 168.292 209.338 168.51C209.338 168.51 209.338 170.012 208.953 171.523C209.793 172.551 214.141 178.312 211.502 183.865C211.414 184.063 211.176 184.152 210.979 184.053C210.781 183.964 210.692 183.727 210.791 183.529C213.41 178.025 208.508 172.215 208.232 171.899C208.143 171.8 208.093 171.662 208.133 171.523C208.548 170.061 208.538 168.529 208.538 168.52L208.548 168.51Z" fill="#CF7866"/>
<path fill-rule="evenodd" clip-rule="evenodd" d="M211.641 171.276C211.463 171.158 211.414 170.911 211.532 170.733C211.651 170.555 211.898 170.506 212.076 170.624C212.095 170.644 220.08 175.911 220.732 182.255C220.752 182.472 220.593 182.67 220.376 182.69C220.159 182.709 219.961 182.551 219.941 182.334C219.329 176.365 211.651 171.296 211.631 171.276H211.641Z" fill="#CF7866"/>
<path fill-rule="evenodd" clip-rule="evenodd" d="M200.247 183.786C174.842 205.664 165.692 210.417 131.542 205.545L131.581 206.524C132.253 207.235 133.182 208.322 133.646 209.863L137.263 231.85C149.882 236.84 186.463 245.901 212.925 196.919L200.257 183.786H200.247Z" fill="#E3DEED"/>
<path fill-rule="evenodd" clip-rule="evenodd" d="M43.1028 338.075C43.1028 338.075 75.1088 356.554 96.2946 351.465C98.9132 350.832 104.131 347.295 106.364 341.336C109.032 334.231 113.133 322.7 113.775 298.451L76.1365 304.231C76.1365 304.231 81.9171 324.459 75.2372 325.15C68.5574 325.842 49.8913 320.951 49.8913 320.951L43.1028 338.075Z" fill="#E6B59F"/>
<path fill-rule="evenodd" clip-rule="evenodd" d="M55.4152 322.245L50.1089 341.84L38.7254 337.364C35.7314 343.619 31.9171 349.271 26.0772 353.055C19.5752 357.275 15.0989 354.656 13.4882 352.621C10.2669 348.55 29.5456 311.494 32.2531 312.295C39.3282 314.389 47.6879 319.34 55.4053 322.245H55.4152Z" fill="#C7BDDB"/>
<path fill-rule="evenodd" clip-rule="evenodd" d="M83.1523 343.283C83.0337 343.026 83.1326 342.72 83.3895 342.601C83.6464 342.482 83.9527 342.581 84.0713 342.838C84.0713 342.858 87.2432 349.449 92.8361 350.911C93.1128 350.98 93.2709 351.257 93.2018 351.534C93.1326 351.81 92.8559 351.969 92.5792 351.899C86.5219 350.308 83.1622 343.303 83.1523 343.283Z" fill="#CF7866"/>
<path fill-rule="evenodd" clip-rule="evenodd" d="M37.4013 342.66C37.1345 342.996 36.6602 343.056 36.3242 342.789C36.0179 342.542 35.9389 342.117 36.1464 341.791C36.2353 341.465 36.1958 340.565 35.761 339.36C35.2867 338.036 34.3381 336.445 32.5594 335.052C31.512 334.222 30.178 333.461 28.4882 332.858C28.093 332.72 27.8855 332.275 28.0238 331.88C28.1622 331.484 28.6068 331.277 29.0021 331.415C30.8598 332.087 32.342 332.927 33.4981 333.846C35.5436 335.457 36.6503 337.305 37.2037 338.846C37.7867 340.467 37.7472 341.85 37.5693 342.344C37.5199 342.473 37.4705 342.581 37.4013 342.66Z" fill="#3A2E53"/>
<path fill-rule="evenodd" clip-rule="evenodd" d="M33.7253 345.862C32.3419 338.925 25.7609 340.98 29.1107 332.255C31.3439 326.435 36.423 319.943 40.257 315.229C38.6759 312.591 32.8854 310.545 30.6522 310.457C28.5474 310.377 7.07507 348.727 11.4822 355.476C13.7352 358.925 19.6443 361.346 23.5672 359.399C26.1957 358.095 34.2392 348.372 33.7352 345.852L33.7253 345.862Z" fill="#3A2E53"/>
<path fill-rule="evenodd" clip-rule="evenodd" d="M119.615 299.488C119.615 299.488 126.216 340.21 111.176 373.826L134.803 378.065C134.803 378.065 156.226 338.273 153.449 300.506L119.615 299.488Z" fill="#E6B59F"/>
<path fill-rule="evenodd" clip-rule="evenodd" d="M119.99 302.275C120.603 307.443 121.66 319.3 120.623 333.54C120.573 334.182 120.396 336.178 120.336 336.83C129.615 336.949 141.038 334.814 151.384 330.496C151.453 330.091 151.908 327.443 151.977 327.028C153.419 318.441 154.111 309.419 153.449 300.506L126.404 299.686C122.915 300.061 120.623 300.318 120.623 300.318C120.623 300.318 120.386 301.03 119.99 302.265V302.275Z" fill="#CF7866"/>
<path fill-rule="evenodd" clip-rule="evenodd" d="M62.8658 321.01C62.8658 321.01 71.8975 245.2 71.4825 215.812C92.8659 207.848 107.026 206.079 134.032 205.891C139.684 205.852 148.775 237.354 150.297 242.196C157.688 265.624 163.4 290.249 165.05 320.022C142.234 335.091 77.5595 339.37 62.856 321.02L62.8658 321.01Z" fill="#735BA5"/>
<path fill-rule="evenodd" clip-rule="evenodd" d="M114.565 364.824L137.984 372.097L129.862 390.427L138.103 398.056L124.714 403.658L104.378 389.39L114.565 364.824Z" fill="#C7BDDB"/>
<path fill-rule="evenodd" clip-rule="evenodd" d="M134.664 342.848C134.388 342.789 134.21 342.522 134.269 342.245C134.328 341.969 134.595 341.791 134.872 341.85C134.892 341.85 142.797 343.51 146.809 340.763C147.046 340.605 147.362 340.664 147.52 340.891C147.678 341.129 147.619 341.445 147.382 341.603C143.014 344.587 134.694 342.848 134.664 342.848Z" fill="#CF7866"/>
<path fill-rule="evenodd" clip-rule="evenodd" d="M131.65 391.198C131.976 391.475 132.016 391.959 131.739 392.275C131.492 392.571 131.057 392.631 130.741 392.423C130.425 392.315 129.516 392.324 128.291 392.72C126.957 393.145 125.336 394.044 123.874 395.783C123.014 396.801 122.204 398.105 121.542 399.775C121.384 400.17 120.939 400.358 120.544 400.2C120.148 400.042 119.961 399.597 120.119 399.202C120.85 397.374 121.749 395.921 122.708 394.795C124.388 392.809 126.265 391.771 127.836 391.267C129.476 390.743 130.86 390.822 131.354 391.02C131.473 391.069 131.581 391.129 131.67 391.198H131.65Z" fill="#3A2E53"/>
<path fill-rule="evenodd" clip-rule="evenodd" d="M134.724 394.992C127.737 396.139 129.565 402.779 120.969 399.143C115.227 396.712 108.913 391.415 104.338 387.423C101.64 388.915 99.4073 394.627 99.2393 396.86C99.012 399.963 137.115 421.475 143.577 417.552C147.095 415.417 149.714 409.587 147.905 405.605C146.69 402.927 137.253 394.558 134.714 394.982L134.724 394.992Z" fill="#3A2E53"/>
<path fill-rule="evenodd" clip-rule="evenodd" d="M61.1069 196.138L41.7986 205.417C43.0931 210.832 46.0871 215.002 50.0199 217.947L56.7591 211.543L52.9943 219.864C54.2492 220.545 55.5634 221.138 56.9271 221.622L60.2374 217.897L59.269 222.344C61.4034 222.907 63.6069 223.253 65.8401 223.371L69.6939 203.332L61.097 196.148L61.1069 196.138Z" fill="#4D1400"/>
<path fill-rule="evenodd" clip-rule="evenodd" d="M146.344 185.061L167.807 190.525C168.241 196.869 166.651 202.245 163.775 206.514L158.656 204.063L161.492 209.389C160.494 210.466 159.407 211.444 158.251 212.324L151.542 205.624L156.226 213.707C154.348 214.873 152.322 215.802 150.218 216.494L140.287 195.199L146.334 185.061H146.344Z" fill="#4D1400"/>
<path fill-rule="evenodd" clip-rule="evenodd" d="M148.103 185.525C148.755 184.162 150.386 183.599 151.73 184.271C153.073 184.942 153.637 186.603 152.975 187.976C152.975 187.996 150.168 193.856 144.556 199.389C143.479 200.446 141.769 200.417 140.722 199.31C139.674 198.213 139.704 196.464 140.771 195.397C145.702 190.535 148.093 185.535 148.093 185.525H148.103Z" fill="#D93735"/>
<path fill-rule="evenodd" clip-rule="evenodd" d="M57.1148 199.616C56.1465 198.46 56.2749 196.721 57.4014 195.733C58.5378 194.745 60.2374 194.893 61.2058 196.049C61.2156 196.059 64.7631 200.308 70.7512 203.796C72.0457 204.557 72.5101 206.237 71.769 207.561C71.0378 208.885 69.3876 209.34 68.0832 208.579C61.2749 204.616 57.1148 199.626 57.0951 199.616H57.1148Z" fill="#D93735"/>
<path fill-rule="evenodd" clip-rule="evenodd" d="M95.1091 109.636C144.151 87.8474 169.22 162.769 145.228 194.439C131.878 212.067 115.079 207.107 106.898 203.085C99.9708 209.014 84.9312 217.986 67.6189 204.231C25.9884 171.138 47.4311 101.583 95.1091 109.636Z" fill="#4D1400"/>
<path fill-rule="evenodd" clip-rule="evenodd" d="M86.0872 186.859L111.848 187.334L119.358 212.67C121.443 219.715 117.362 225.367 110.277 225.239C103.192 225.111 95.6919 219.241 93.5971 212.196L86.0872 186.859Z" fill="#E6B59F"/>
<path fill-rule="evenodd" clip-rule="evenodd" d="M136.562 161.948C136.562 161.948 142.826 153.618 152.481 155.614C156.72 156.494 159.991 162.344 159.417 168.006C157.767 184.478 137.392 182.571 136.987 176.622L136.552 161.938L136.562 161.948Z" fill="#E6B59F"/>
<path fill-rule="evenodd" clip-rule="evenodd" d="M153.726 168.144C153.815 168.421 153.666 168.727 153.39 168.816C153.113 168.905 152.807 168.757 152.718 168.48C152.718 168.47 151.097 163.342 145.613 165.021C145.326 165.11 145.03 164.942 144.951 164.666C144.862 164.379 145.03 164.083 145.307 164.004C151.799 162.027 153.726 168.134 153.736 168.154L153.726 168.144Z" fill="#CF7866"/>
<path fill-rule="evenodd" clip-rule="evenodd" d="M89.9211 199.804L100.781 199.834L116.552 203.194L119.062 211.662C110.445 214.547 99.7729 213.648 93.7749 212.759C93.7156 212.571 93.6464 212.383 93.597 212.196L89.9211 199.804Z" fill="#CF7866"/>
<path fill-rule="evenodd" clip-rule="evenodd" d="M110.633 206.533C156.305 200.773 142.372 165.15 134.091 128.796L65.0397 139.201C65.0002 174.122 56.2946 213.381 110.633 206.524V206.533Z" fill="#E6B59F"/>
<path fill-rule="evenodd" clip-rule="evenodd" d="M139.457 151.385C137.827 144.073 135.831 136.444 134.082 128.796L65.03 139.201C65.03 146.237 64.6643 153.44 64.5359 160.407C68.5774 162.265 73.2711 162.304 78.4885 160.822C85.2573 158.905 87.3027 156.346 87.3027 156.346L120.653 150.852C120.653 150.852 132.115 154.231 139.447 151.375L139.457 151.385Z" fill="#CF7866"/>
<path fill-rule="evenodd" clip-rule="evenodd" d="M68.854 170.476C68.854 170.476 64.437 166.939 58.5773 166.81C48.7651 166.593 45.85 175.209 48.0437 181.978C52.9054 196.998 73.271 191.188 72.0853 184.804L68.8639 170.476H68.854Z" fill="#E6B59F"/>
<path fill-rule="evenodd" clip-rule="evenodd" d="M52.9646 174.913C52.6681 174.903 52.4409 174.656 52.4507 174.359C52.4606 174.063 52.7077 173.836 53.0041 173.846C53.0338 173.846 53.2215 173.806 53.4784 173.747C55.2571 173.342 59.9508 172.265 63.686 177.008C64.0614 177.482 63.9231 177.828 63.518 178.144C63.3895 178.243 63.2413 178.322 63.0733 178.421C62.8065 178.569 62.4705 178.757 62.2729 179.024C62.1444 179.191 62.0456 179.379 61.9863 179.587V179.607C61.9073 179.854 61.8974 180.13 61.9863 180.397C62.0753 180.684 62.2927 180.98 62.6583 181.257C63.014 181.524 63.5081 181.771 64.18 181.978C64.4666 182.067 64.6247 182.363 64.5358 182.64C64.4468 182.927 64.1504 183.085 63.8638 182.996C63.0634 182.749 62.4607 182.442 62.016 182.107C61.4626 181.692 61.1365 181.217 60.9784 180.733C60.8203 180.239 60.8401 179.755 60.9784 179.31V179.28C61.0871 178.954 61.2452 178.658 61.4429 178.391C61.7788 177.946 62.2136 177.699 62.5693 177.502L62.6682 177.442C59.3875 173.51 55.3065 174.439 53.7353 174.804C53.3994 174.883 53.1622 174.933 52.9745 174.933L52.9646 174.913Z" fill="#CF7866"/>
<path fill-rule="evenodd" clip-rule="evenodd" d="M54.8321 180.822C54.8124 181.118 54.5554 181.336 54.259 181.316C53.9625 181.296 53.7452 181.039 53.7649 180.743C53.7649 180.723 54.1207 174.32 60.8993 174.626C61.1958 174.636 61.423 174.883 61.4132 175.18C61.4033 175.476 61.1464 175.703 60.8598 175.693C55.1384 175.437 54.842 180.792 54.842 180.812L54.8321 180.822Z" fill="#CF7866"/>
<path fill-rule="evenodd" clip-rule="evenodd" d="M139.971 148.46C122.52 152.027 118.696 145.367 112.125 134.883C112.125 134.883 116.463 147.106 115.168 149.409L96.9766 152.462C96.9766 152.462 96.7098 140.792 95.2374 139.251C95.2374 139.251 95.4153 151.365 93.7552 152.986L90.2177 153.272C90.2177 153.272 91.2256 143.875 90.0892 140.436C88.1524 160.634 66.2354 160.16 63.1128 156.978C60.1188 129.3 72.6188 117.502 96.937 114.428C118.4 111.711 138.923 118.757 139.951 148.46H139.971Z" fill="#4D1400"/>
<path fill-rule="evenodd" clip-rule="evenodd" d="M62.9845 193.865C64.8818 193.865 66.4331 192.314 66.4331 190.417C66.4331 188.52 64.8818 186.968 62.9845 186.968C61.0873 186.968 59.5359 188.52 59.5359 190.417C59.5359 192.314 61.0873 193.865 62.9845 193.865Z" fill="#D93735"/>
<path fill-rule="evenodd" clip-rule="evenodd" d="M147.441 182.62C149.338 182.62 150.89 181.069 150.89 179.172C150.89 177.274 149.338 175.723 147.441 175.723C145.544 175.723 143.992 177.274 143.992 179.172C143.992 181.069 145.544 182.62 147.441 182.62Z" fill="#D93735"/>
<path fill-rule="evenodd" clip-rule="evenodd" d="M152.748 161.267C153.034 161.178 153.331 161.346 153.41 161.622C153.499 161.909 153.331 162.205 153.054 162.284C152.886 162.334 152.639 162.344 152.293 162.353C150.603 162.393 146.087 162.512 143.983 167.848C143.914 168.016 144.072 167.64 144.082 167.65C144.17 167.689 144.289 167.729 144.408 167.769C144.684 167.857 144.991 167.966 145.307 168.134C146.315 168.678 146.809 169.399 146.779 170.437C146.75 171.346 146.285 172.472 145.346 173.905C145.188 174.152 144.852 174.221 144.605 174.063C144.358 173.905 144.289 173.569 144.447 173.322C145.267 172.047 145.682 171.108 145.702 170.407C145.722 169.834 145.416 169.409 144.793 169.073C144.566 168.954 144.299 168.865 144.052 168.776C143.923 168.737 143.795 168.688 143.686 168.648C143.084 168.411 142.728 168.114 142.985 167.462C145.346 161.474 150.386 161.336 152.263 161.286C152.52 161.286 152.708 161.276 152.748 161.267Z" fill="#CF7866"/>
<path fill-rule="evenodd" clip-rule="evenodd" d="M133.024 125.683C135.929 124.429 138.676 123.025 141.236 121.464C137.402 116.405 132.787 112.255 127.481 109.488C124.457 111.583 121.018 113.598 117.135 115.367C106.789 120.061 93.3006 122.986 76.2057 120.98C74.6939 120.802 73.1524 120.585 71.5911 120.328C68.1326 119.764 64.9211 119.221 61.9172 118.717C58.6662 121.593 55.8401 125.012 53.4883 128.816C57.5693 130.012 61.8579 130.99 66.2848 131.751C88.4785 135.565 114.032 133.875 133.004 125.683H133.024Z" fill="#612200"/>
<path fill-rule="evenodd" clip-rule="evenodd" d="M127.629 168.559C124.368 169.191 121.986 171.108 122.322 172.838C122.658 174.567 125.583 175.456 128.844 174.814C132.105 174.182 134.486 172.265 134.15 170.535C133.814 168.806 130.89 167.917 127.629 168.559Z" fill="#CF7866"/>
<path fill-rule="evenodd" clip-rule="evenodd" d="M77.6385 174.261C74.348 174.735 71.8776 176.533 72.1346 178.273C72.3816 180.012 75.2571 181.049 78.5476 180.575C81.8381 180.101 84.3085 178.302 84.0516 176.563C83.8046 174.824 80.9291 173.786 77.6385 174.261Z" fill="#CF7866"/>
<path fill-rule="evenodd" clip-rule="evenodd" d="M101.038 173.45C104.309 174.29 107.668 174.152 111.117 172.897C111.117 172.946 111.117 172.986 111.127 173.035C111.265 175.624 109.279 177.848 106.69 177.986L105.988 178.025C103.4 178.164 101.176 176.178 101.038 173.589C101.038 173.539 101.038 173.5 101.038 173.45Z" fill="#CF7866"/>
<path fill-rule="evenodd" clip-rule="evenodd" d="M77.6386 154.636C77.4904 155.209 76.9074 155.545 76.3343 155.407C75.7611 155.259 75.4252 154.676 75.5635 154.103C75.9785 152.522 76.9568 151 78.3007 149.913C79.1011 149.261 80.0299 148.767 81.0477 148.51C82.0754 148.243 83.192 148.223 84.3382 148.51C85.9588 148.935 87.6288 150.002 89.2098 151.948C89.5853 152.403 89.5161 153.075 89.0517 153.45C88.5971 153.826 87.9252 153.757 87.5497 153.292C86.2849 151.731 85.0003 150.891 83.8046 150.575C83.024 150.367 82.273 150.387 81.5813 150.565C80.8797 150.743 80.2177 151.099 79.6544 151.563C78.6663 152.363 77.9449 153.48 77.6386 154.636Z" fill="#290000"/>
<path fill-rule="evenodd" clip-rule="evenodd" d="M116.008 148.025C115.89 148.599 115.316 148.974 114.743 148.846C114.17 148.717 113.795 148.154 113.923 147.581C114.19 146.346 114.803 145.268 115.643 144.448C116.502 143.608 117.609 143.035 118.824 142.828C120.03 142.63 121.334 142.798 122.609 143.431C123.884 144.073 125.119 145.199 126.166 146.919C126.473 147.423 126.315 148.075 125.811 148.381C125.307 148.687 124.654 148.529 124.348 148.025C123.538 146.682 122.599 145.822 121.65 145.348C120.811 144.923 119.961 144.814 119.18 144.942C118.409 145.071 117.698 145.436 117.145 145.98C116.601 146.514 116.196 147.215 116.028 148.025H116.008Z" fill="#290000"/>
<path fill-rule="evenodd" clip-rule="evenodd" d="M126.967 162.255C127.253 163.035 126.848 163.905 126.067 164.191C125.287 164.478 124.417 164.073 124.131 163.292C123.587 161.8 122.579 160.753 121.433 160.17C120.652 159.774 119.803 159.597 118.982 159.646H118.963C118.182 159.695 117.431 159.952 116.799 160.437C115.969 161.069 115.336 162.106 115.069 163.579C114.921 164.399 114.141 164.942 113.32 164.794C112.5 164.646 111.957 163.865 112.105 163.045C112.51 160.763 113.577 159.103 114.971 158.045C116.087 157.195 117.401 156.731 118.765 156.642H118.805C120.148 156.563 121.522 156.85 122.787 157.482C124.585 158.391 126.137 160.002 126.957 162.255H126.967Z" fill="#290000"/>
<path fill-rule="evenodd" clip-rule="evenodd" d="M82.9744 166.603C82.8559 167.433 82.0752 168.006 81.2452 167.887C80.4151 167.769 79.842 166.988 79.9606 166.158C80.257 164.152 81.6306 162.314 83.4092 161.118C84.4567 160.417 85.6622 159.933 86.8875 159.755C88.1721 159.577 89.4863 159.735 90.6918 160.357C92.1741 161.118 93.4389 162.551 94.1701 164.844C94.427 165.644 93.9824 166.494 93.182 166.751C92.3816 167.008 91.5318 166.563 91.2749 165.763C90.8203 164.33 90.1088 163.47 89.2986 163.055C88.6958 162.739 87.9942 162.67 87.2926 162.769C86.5318 162.877 85.761 163.193 85.0792 163.638C83.9626 164.379 83.1128 165.466 82.9448 166.593L82.9744 166.603Z" fill="#290000"/>
<path fill-rule="evenodd" clip-rule="evenodd" d="M88.7553 181.464C81.8284 185.427 87.5497 197.976 103.37 197.759C112.807 197.63 123.429 193.184 122.323 186.603C121.166 179.715 115.06 181.573 108.548 183.322C99.7336 185.684 95.366 177.69 88.7652 181.464H88.7553Z" fill="#290000"/>
<path fill-rule="evenodd" clip-rule="evenodd" d="M106.621 189.962C111.621 190.288 115.129 192.769 116.996 194.498C114.585 195.812 111.581 196.771 108.449 197.294C106.769 197.581 105.05 197.739 103.36 197.759C101.344 197.788 99.4863 197.601 97.8065 197.265C94.6642 196.622 92.1049 195.407 90.178 193.925C93.676 190.98 100.761 189.577 106.611 189.962H106.621Z" fill="#C42B23"/>
<path fill-rule="evenodd" clip-rule="evenodd" d="M121.305 183.786C115.88 186.296 107.243 188.816 98.2908 186.948C94.7138 186.207 91.0774 184.755 87.5793 182.324C87.9153 182.008 88.3106 181.721 88.7552 181.464C94.2987 178.292 98.2612 183.421 104.615 183.757C105.83 183.816 107.125 183.707 108.538 183.332C113.933 181.889 119.042 180.367 121.305 183.786Z" fill="white"/>
<path fill-rule="evenodd" clip-rule="evenodd" d="M106.315 170.456C106.72 171.286 107.589 171.711 108.261 171.395C108.933 171.079 109.16 170.14 108.755 169.31C108.36 168.48 107.481 168.055 106.809 168.371C106.137 168.688 105.909 169.626 106.315 170.456Z" fill="white"/>
<path fill-rule="evenodd" clip-rule="evenodd" d="M100.781 200.14C104.052 200.575 107.411 200.506 110.86 199.854C110.86 199.883 110.86 199.903 110.87 199.923C111.008 201.247 109.022 202.383 106.433 202.462L105.731 202.482C103.142 202.551 100.919 201.533 100.781 200.209C100.781 200.19 100.781 200.16 100.781 200.14Z" fill="#CF7866"/>
<path fill-rule="evenodd" clip-rule="evenodd" d="M78.429 264.34C78.429 264.34 60.8301 314.132 72.6484 319.389C84.4666 324.646 89.7334 302.512 89.7334 302.512C89.7334 302.512 89.4468 322.522 103.014 320.328C116.581 318.134 104.229 264.577 104.229 264.577L78.429 264.34Z" fill="#6C3203"/>
<path fill-rule="evenodd" clip-rule="evenodd" d="M82.8954 301.287C82.6879 301.198 82.5891 300.97 82.678 300.763C82.7669 300.555 82.9942 300.456 83.2017 300.545C83.2215 300.545 89.1009 303.016 96.1662 301.583C96.3836 301.543 96.601 301.682 96.6405 301.899C96.68 302.117 96.5417 302.334 96.3243 302.373C89.0219 303.846 82.9152 301.296 82.8954 301.287Z" fill="#4F2400"/>
<path fill-rule="evenodd" clip-rule="evenodd" d="M115.198 291.998C115.563 291.919 115.919 291.83 116.255 291.731C118.676 291.049 118.231 288.806 116.324 288.559C114.813 288.362 113.38 288.5 112.233 288.352C100.435 286.879 107.352 287.71 114.2 284.063C117.955 282.067 115.475 280.348 109.15 281.405C102.816 282.462 98.1919 280.427 98.1919 280.427C98.1919 280.427 105.86 277.077 104.19 275.081C102.322 272.848 92.3421 276.761 89.2492 277.887L79.3381 275.14L75.0693 289.429L83.9132 292.887C84.7334 293.362 90.1484 297.235 96.3243 298.51C102.5 299.785 111.265 298.381 111.453 296.079C113.696 295.486 115.297 293.777 115.208 291.998H115.198Z" fill="#E6B59F"/>
<path fill-rule="evenodd" clip-rule="evenodd" d="M90.4349 277.443C89.9704 277.611 89.5653 277.769 89.2392 277.887L79.3281 275.14L75.0593 289.429L83.9032 292.887C84.4467 293.204 87.0159 295.022 90.4941 296.573C89.2491 290.279 89.5159 283.164 90.4349 277.443Z" fill="#CF7866"/>
<path fill-rule="evenodd" clip-rule="evenodd" d="M102.461 292.858C102.243 292.838 102.075 292.64 102.095 292.423C102.115 292.206 102.312 292.038 102.53 292.057C102.55 292.057 110.514 292.759 115.04 291.692C115.257 291.642 115.475 291.771 115.524 291.988C115.573 292.206 115.435 292.423 115.218 292.472C110.554 293.569 102.48 292.858 102.461 292.858Z" fill="#CF7866"/>
<path fill-rule="evenodd" clip-rule="evenodd" d="M100.682 296.652C100.474 296.593 100.356 296.366 100.415 296.158C100.474 295.951 100.702 295.832 100.909 295.891C101.344 296.02 104.081 296.089 106.759 296.02C108.735 295.97 110.642 295.842 111.522 295.605C111.729 295.546 111.957 295.674 112.006 295.891C112.065 296.099 111.937 296.326 111.729 296.376C110.791 296.623 108.814 296.761 106.779 296.81C104.042 296.879 101.176 296.8 100.682 296.642V296.652Z" fill="#CF7866"/>
<path fill-rule="evenodd" clip-rule="evenodd" d="M90.3263 276.514C69.9705 265.802 62.7373 263.589 64.842 260.565C67.095 257.314 68.597 255.901 75.2571 251.652C84.4567 245.792 89.0911 214.587 71.9073 215.852C34.0712 218.648 -3.80437 296.83 87.2927 299.567C85.7117 292.947 87.184 283.124 90.3263 276.504V276.514Z" fill="#E3DEED"/>
<path fill-rule="evenodd" clip-rule="evenodd" d="M64.2788 261.771C64.3381 261.563 64.6839 260.783 64.8322 260.575C67.0851 257.324 68.5871 255.911 75.2472 251.662C79.3381 249.053 82.5298 241.435 83.2907 233.885C79.6939 238.984 70.6622 244.864 64.4962 250.792C61.3934 253.777 58.4586 259.636 58.4586 259.636C58.4586 259.636 59.8223 259.933 64.2788 261.771ZM32.2333 252.858C31.9269 263.085 36.2451 273.49 45.929 282.126C55.3064 290.486 75.8401 293.164 86.6405 294.014C86.6702 296.01 86.8777 297.897 87.2729 299.587C38.0436 298.105 26.4823 274.597 32.2234 252.858H32.2333Z" fill="#DCCABD"/>
<path fill-rule="evenodd" clip-rule="evenodd" d="M79.3974 261.445C79.3974 261.445 70.3361 264.113 64.6542 271.86C53.0633 287.67 68.3993 295.457 74.6246 283.164C79.3381 273.866 82.3914 264.873 82.3914 264.873L79.3974 261.445Z" fill="#4F2400"/>
<path fill-rule="evenodd" clip-rule="evenodd" d="M104.694 267.808C104.694 267.808 111.976 273.816 114.15 283.184C118.597 302.285 101.433 303.401 100.544 289.656C99.8717 279.251 100.593 269.785 100.593 269.785L104.694 267.808Z" fill="#4F2400"/>
<path fill-rule="evenodd" clip-rule="evenodd" d="M86.9467 227.561C92.0751 228.253 95.672 232.976 94.9803 238.095C94.2886 243.223 89.5653 246.82 84.4467 246.128C79.3182 245.437 75.7214 240.713 76.4131 235.585C77.1048 230.456 81.8281 226.86 86.9566 227.551L86.9467 227.561Z" fill="#6C3203"/>
<path fill-rule="evenodd" clip-rule="evenodd" d="M87.0356 232.116C90.257 232.551 92.5199 235.516 92.0851 238.737C91.6503 241.958 88.6858 244.221 85.4645 243.786C82.2431 243.352 79.9803 240.387 80.4151 237.166C80.8499 233.945 83.8143 231.682 87.0356 232.116Z" fill="#934013"/>
<path fill-rule="evenodd" clip-rule="evenodd" d="M116.097 235.713C110.969 235.022 106.255 238.618 105.563 243.747C104.872 248.875 108.469 253.589 113.597 254.281C118.726 254.972 123.439 251.375 124.131 246.247C124.822 241.119 121.226 236.405 116.097 235.713Z" fill="#6C3203"/>
<path fill-rule="evenodd" clip-rule="evenodd" d="M114.813 240.081C111.591 239.646 108.627 241.909 108.192 245.13C107.757 248.352 110.02 251.316 113.241 251.751C116.463 252.186 119.427 249.923 119.862 246.702C120.297 243.48 118.034 240.516 114.813 240.081Z" fill="#934013"/>
<path fill-rule="evenodd" clip-rule="evenodd" d="M81.3045 239.607C91.6997 230.051 115.069 235.279 116.591 251.375C117.441 260.407 114.694 271.761 98.1622 270.466C78.7056 268.955 65.9882 253.678 81.3045 239.607Z" fill="#6C3203"/>
<path fill-rule="evenodd" clip-rule="evenodd" d="M95.4646 252.482C101.561 253.302 105.988 257.729 105.366 262.354C104.743 266.978 99.2887 270.071 93.2018 269.241C87.1049 268.421 82.678 263.994 83.3006 259.369C83.9231 254.745 89.3777 251.652 95.4646 252.482Z" fill="#934013"/>
<path fill-rule="evenodd" clip-rule="evenodd" d="M90.8599 245.931C91.7294 246.02 92.2927 247.087 92.1247 248.312C91.9567 249.547 91.1168 250.466 90.2571 250.377C89.3875 250.288 88.8243 249.221 88.9923 247.996C89.1603 246.761 90.0002 245.842 90.8599 245.931Z" fill="#290000"/>
<path fill-rule="evenodd" clip-rule="evenodd" d="M105.208 249.696C106.048 249.972 106.225 251.109 105.623 252.235C105.02 253.362 103.844 254.043 103.014 253.777C102.184 253.5 101.996 252.364 102.599 251.237C103.202 250.111 104.378 249.429 105.208 249.696Z" fill="#290000"/>
<path fill-rule="evenodd" clip-rule="evenodd" d="M95.1682 258.767C95.2077 258.599 95.3658 258.5 95.5338 258.539C95.6919 258.579 95.8006 258.737 95.7611 258.905L95.0892 261.761C95.0892 261.761 95.0793 261.81 95.0694 261.83C94.6939 262.64 94.1307 263.115 93.4982 263.322C92.9745 263.5 92.4014 263.5 91.8579 263.371C91.3243 263.243 90.8204 262.996 90.4053 262.68C89.8026 262.215 89.3876 261.603 89.3579 260.98C89.3579 260.812 89.4864 260.674 89.6445 260.664C89.8125 260.664 89.9508 260.792 89.9607 260.96C89.9804 261.385 90.2966 261.84 90.771 262.196C91.1168 262.462 91.5516 262.67 91.9963 262.779C92.4409 262.877 92.8955 262.887 93.3006 262.749C93.7749 262.591 94.2097 262.225 94.5061 261.593L95.1682 258.767Z" fill="#6C3203"/>
<path fill-rule="evenodd" clip-rule="evenodd" d="M95.1682 258.777C95.2077 258.609 95.3658 258.51 95.5338 258.549C95.7018 258.589 95.8006 258.747 95.7611 258.915L95.1188 261.751C95.1089 262.452 95.3362 262.966 95.7018 263.312C96.0081 263.619 96.4232 263.816 96.8579 263.915C97.3125 264.014 97.7868 264.014 98.2216 263.925C98.8046 263.806 99.2888 263.539 99.4864 263.164C99.5655 263.016 99.7433 262.956 99.8915 263.036C100.04 263.115 100.089 263.292 100.02 263.441C99.7334 263.984 99.0911 264.36 98.3402 264.508C97.8263 264.607 97.2631 264.607 96.7295 264.488C96.186 264.369 95.6722 264.122 95.2769 263.727C94.8026 263.263 94.4963 262.591 94.516 261.692C94.516 261.672 94.516 261.642 94.516 261.622L95.1682 258.757V258.777Z" fill="#6C3203"/>
<path fill-rule="evenodd" clip-rule="evenodd" d="M93.6761 254.962C94.4567 253.994 97.8954 255.012 98.9527 256.138C99.7334 256.968 98.35 258.322 96.8974 258.786C94.3085 259.626 92.7966 256.059 93.6662 254.952L93.6761 254.962Z" fill="#290000"/>
<path fill-rule="evenodd" clip-rule="evenodd" d="M197.026 186.543L209.338 200.852C209.121 201.217 208.904 201.573 208.676 201.929L196.107 187.314C196.414 187.057 196.72 186.8 197.026 186.533V186.543Z" fill="#DCCABD"/>
<path fill-rule="evenodd" clip-rule="evenodd" d="M64.8024 262.067C65.0099 262.255 65.0297 262.571 64.8419 262.789C64.6542 262.996 64.3281 263.016 64.1206 262.838C62.6482 261.534 60.8202 260.704 59.0415 260.279C57.0158 259.804 55.0692 259.864 53.7945 260.368C53.5375 260.476 53.2312 260.348 53.1324 260.081C53.0237 259.824 53.1522 259.518 53.419 259.419C54.8814 258.836 57.0553 258.757 59.2787 259.281C61.2055 259.735 63.1917 260.644 64.8024 262.067Z" fill="#DCCABD"/>
<path fill-rule="evenodd" clip-rule="evenodd" d="M86.4528 274.498C83.9034 277.393 82.4211 281.721 81.7788 286.247C81.1168 290.862 81.3144 295.654 82.1148 299.33C81.6899 299.3 81.2848 299.271 80.8697 299.241C80.1089 295.476 79.931 290.684 80.5931 286.079C81.2551 281.464 82.7571 277.018 85.3658 273.935C85.7314 274.123 86.097 274.31 86.4626 274.498H86.4528Z" fill="#DCCABD"/>
<path fill-rule="evenodd" clip-rule="evenodd" d="M280.475 329.617L230.327 378.559L242.827 393.006L302.096 356.84L280.475 329.617Z" fill="#E6B59F"/>
<path fill-rule="evenodd" clip-rule="evenodd" d="M229.26 379.903C238.469 369.972 246.325 361.83 256.394 352.413C256.839 351.998 257.283 351.583 257.738 351.158C257.738 351.158 256.345 356.781 274.971 373.777L242.165 393.895L233.311 387.275L229.26 379.903Z" fill="#FDF7F7"/>
<path fill-rule="evenodd" clip-rule="evenodd" d="M230.742 405.388C231.404 405.892 231.532 406.85 231.018 407.512L228.923 410.23C228.419 410.892 227.461 411.02 226.799 410.506C226.137 410.002 226.008 409.044 226.522 408.382L228.617 405.664C229.121 405.002 230.079 404.874 230.742 405.388Z" fill="#D93735"/>
<path fill-rule="evenodd" clip-rule="evenodd" d="M198.143 374.231C198.706 374.844 198.666 375.813 198.044 376.376L195.504 378.688C194.892 379.251 193.923 379.212 193.36 378.589C192.797 377.977 192.836 377.008 193.459 376.445L195.999 374.133C196.611 373.569 197.58 373.619 198.143 374.231Z" fill="#D93735"/>
<path fill-rule="evenodd" clip-rule="evenodd" d="M216.532 393.648C217.164 394.192 217.243 395.15 216.7 395.793L214.467 398.401C213.923 399.034 212.965 399.113 212.323 398.569C211.69 398.026 211.611 397.067 212.155 396.425L214.388 393.816C214.931 393.184 215.89 393.115 216.522 393.648H216.532Z" fill="#D93735"/>
<path fill-rule="evenodd" clip-rule="evenodd" d="M223.617 400.062C224.259 400.585 224.358 401.554 223.834 402.196L221.661 404.854C221.137 405.496 220.168 405.595 219.526 405.071C218.884 404.548 218.785 403.579 219.309 402.937L221.483 400.279C222.006 399.637 222.975 399.538 223.617 400.062Z" fill="#D93735"/>
<path fill-rule="evenodd" clip-rule="evenodd" d="M230.169 378.49C230.169 378.49 213.004 372.354 207.402 370.397C204.506 369.389 199.931 368.619 197.392 369.686C194.437 370.921 193.311 374.844 201.601 383.579C204.279 386.395 230.06 408.48 232.016 409.202C233.835 409.874 237.204 403.006 244.724 392.443C235.593 386.801 236.107 387.433 230.178 378.48L230.169 378.49Z" fill="#D93735"/>
<path fill-rule="evenodd" clip-rule="evenodd" d="M197.906 369.646C197.896 369.222 198.232 368.876 198.657 368.866C199.082 368.856 199.427 369.192 199.437 369.617C199.467 370.773 199.694 372.403 200.524 374.271C201.137 375.644 202.056 377.137 203.459 378.639C205.653 381 211.819 386.405 218.341 391.959C224.754 397.423 231.74 403.214 235.455 406.287C235.781 406.554 235.831 407.038 235.554 407.364C235.287 407.69 234.803 407.739 234.477 407.463C230.88 404.488 224.042 398.816 217.352 393.125C210.781 387.532 204.576 382.087 202.333 379.676C200.801 378.026 199.783 376.386 199.121 374.884C198.202 372.799 197.935 370.961 197.906 369.646Z" fill="white"/>
<path fill-rule="evenodd" clip-rule="evenodd" d="M215.238 380.437C215.198 380.012 215.514 379.647 215.929 379.607C216.354 379.567 216.72 379.884 216.759 380.299L217.837 391.741C217.876 392.166 217.56 392.532 217.145 392.571C216.72 392.611 216.354 392.295 216.315 391.88L215.238 380.437Z" fill="white"/>
<path fill-rule="evenodd" clip-rule="evenodd" d="M219.704 382.057C219.664 381.633 219.981 381.267 220.396 381.227C220.821 381.188 221.186 381.504 221.226 381.919L222.53 395.842C222.57 396.267 222.253 396.633 221.838 396.672C221.414 396.712 221.048 396.405 221.008 395.98L219.704 382.057Z" fill="white"/>
<path fill-rule="evenodd" clip-rule="evenodd" d="M224.931 376.514C224.931 376.514 227.343 382.423 225.673 382.324C224.003 382.226 223.795 380.842 222.926 375.842L224.931 376.514Z" fill="white"/>
<path fill-rule="evenodd" clip-rule="evenodd" d="M221.295 375.22C221.295 375.22 223.765 381.148 222.036 381.03C220.307 380.911 220.159 379.548 219.289 374.548L221.295 375.22Z" fill="white"/>
<path fill-rule="evenodd" clip-rule="evenodd" d="M217.678 373.876C217.678 373.876 219.941 379.656 218.419 379.686C216.908 379.716 216.542 378.204 215.672 373.204L217.678 373.876Z" fill="white"/>
<path fill-rule="evenodd" clip-rule="evenodd" d="M210.169 387.641C210.801 388.184 210.88 389.143 210.336 389.785L208.103 392.394C207.56 393.026 206.601 393.095 205.959 392.562C205.327 392.018 205.248 391.06 205.791 390.417L208.024 387.809C208.568 387.176 209.526 387.107 210.169 387.65V387.641Z" fill="#D93735"/>
<path fill-rule="evenodd" clip-rule="evenodd" d="M203.904 381.484C204.497 382.077 204.487 383.046 203.904 383.629L201.473 386.05C200.88 386.633 199.912 386.633 199.329 386.05C198.736 385.457 198.746 384.488 199.329 383.905L201.759 381.484C202.352 380.901 203.321 380.901 203.904 381.484Z" fill="#D93735"/>
<path fill-rule="evenodd" clip-rule="evenodd" d="M274.714 373.55C272.995 371.978 271.453 370.496 270.06 369.113L240.999 390.16C241.918 390.733 242.975 391.386 244.22 392.156C244.348 392.235 244.477 392.314 244.615 392.403L274.961 373.787C274.872 373.708 274.793 373.629 274.704 373.55H274.714Z" fill="#DCCABD"/>
<path fill-rule="evenodd" clip-rule="evenodd" d="M394.872 351.524L418.677 417.443L401.137 424.992L363.558 366.613L394.872 351.524Z" fill="#E6B59F"/>
<path fill-rule="evenodd" clip-rule="evenodd" d="M419.052 419.113C415.149 406.326 411.661 395.684 406.809 383.046C406.602 382.502 405.199 385.783 399.527 388.48C392.946 391.603 383.845 393.589 380.456 393.757L383.292 398.075L401.345 426.079L412.195 423.985L419.052 419.113Z" fill="#FDF7F7"/>
<path fill-rule="evenodd" clip-rule="evenodd" d="M409.22 442.255C408.42 442.492 407.955 443.342 408.193 444.143L409.161 447.433C409.398 448.234 410.248 448.698 411.048 448.461C411.849 448.224 412.313 447.374 412.076 446.573L411.108 443.283C410.871 442.483 410.021 442.018 409.22 442.255Z" fill="#D93735"/>
<path fill-rule="evenodd" clip-rule="evenodd" d="M450.88 424.992C450.129 425.368 449.823 426.277 450.199 427.028L451.73 430.101C452.096 430.852 453.015 431.158 453.766 430.783C454.517 430.407 454.823 429.498 454.448 428.747L452.916 425.674C452.55 424.923 451.631 424.617 450.88 424.992Z" fill="#D93735"/>
<path fill-rule="evenodd" clip-rule="evenodd" d="M426.71 436.455C425.92 436.732 425.505 437.601 425.782 438.392L426.928 441.633C427.204 442.423 428.074 442.838 428.865 442.562C429.655 442.285 430.07 441.415 429.793 440.625L428.647 437.384C428.37 436.593 427.501 436.178 426.71 436.455Z" fill="#D93735"/>
<path fill-rule="evenodd" clip-rule="evenodd" d="M417.797 439.874C417.007 440.131 416.562 440.99 416.829 441.781L417.896 445.042C418.153 445.832 419.013 446.277 419.813 446.02C420.604 445.763 421.048 444.903 420.792 444.103L419.724 440.842C419.467 440.052 418.608 439.607 417.807 439.874H417.797Z" fill="#D93735"/>
<path fill-rule="evenodd" clip-rule="evenodd" d="M419.477 417.384C419.477 417.384 437.699 417.858 443.637 418.075C446.701 418.184 451.246 419.113 453.232 421.03C455.545 423.253 455.169 427.324 444.29 432.463C440.772 434.123 408.756 445.388 406.671 445.358C404.734 445.328 404.072 437.7 400.88 425.141C411.434 423.174 410.732 423.579 419.487 417.384H419.477Z" fill="#D93735"/>
<path fill-rule="evenodd" clip-rule="evenodd" d="M451.345 420.22C451.503 419.824 451.958 419.647 452.343 419.805C452.738 419.963 452.916 420.417 452.758 420.803C452.323 421.85 451.582 423.204 450.347 424.597C449.122 425.971 447.402 427.384 445.001 428.56C442.056 430.002 434.29 432.828 426.137 435.664C418.064 438.481 409.517 441.336 404.981 442.848C404.576 442.977 404.151 442.759 404.013 442.364C403.884 441.959 404.102 441.534 404.497 441.396C408.973 439.913 417.452 437.068 425.624 434.222C433.716 431.396 441.414 428.599 444.319 427.176C446.513 426.109 448.074 424.824 449.191 423.579C450.297 422.344 450.95 421.139 451.335 420.22H451.345Z" fill="white"/>
<path fill-rule="evenodd" clip-rule="evenodd" d="M431.335 423.925C431.523 423.55 431.987 423.392 432.363 423.579C432.738 423.767 432.896 424.232 432.709 424.607L427.57 434.884C427.382 435.259 426.918 435.417 426.543 435.23C426.167 435.042 426.009 434.577 426.197 434.202L431.335 423.925Z" fill="white"/>
<path fill-rule="evenodd" clip-rule="evenodd" d="M426.582 423.807C426.77 423.431 427.234 423.273 427.61 423.461C427.985 423.649 428.143 424.113 427.956 424.488L421.701 436.998C421.513 437.374 421.048 437.532 420.673 437.344C420.297 437.157 420.139 436.692 420.327 436.317L426.582 423.807Z" fill="white"/>
<path fill-rule="evenodd" clip-rule="evenodd" d="M425.08 417.433C425.08 417.433 420.693 422.067 422.284 422.581C423.874 423.095 424.576 421.88 427.185 417.532L425.07 417.433H425.08Z" fill="white"/>
<path fill-rule="evenodd" clip-rule="evenodd" d="M428.934 417.542C428.934 417.542 424.487 422.176 426.137 422.69C427.797 423.204 428.43 421.988 431.038 417.641L428.924 417.542H428.934Z" fill="white"/>
<path fill-rule="evenodd" clip-rule="evenodd" d="M432.798 417.601C432.798 417.601 428.608 422.176 430.001 422.749C431.404 423.322 432.294 422.048 434.902 417.7L432.788 417.601H432.798Z" fill="white"/>
<path fill-rule="evenodd" clip-rule="evenodd" d="M434.823 433.154C434.033 433.431 433.618 434.301 433.894 435.091L435.041 438.332C435.317 439.123 436.187 439.538 436.977 439.261C437.768 438.985 438.183 438.115 437.906 437.324L436.76 434.083C436.483 433.293 435.614 432.878 434.823 433.154Z" fill="#D93735"/>
<path fill-rule="evenodd" clip-rule="evenodd" d="M442.887 429.666C442.126 430.002 441.78 430.901 442.116 431.672L443.509 434.815C443.845 435.575 444.754 435.921 445.515 435.585C446.276 435.249 446.622 434.35 446.286 433.579L444.892 430.447C444.556 429.686 443.647 429.34 442.887 429.676V429.666Z" fill="#D93735"/>
<path fill-rule="evenodd" clip-rule="evenodd" d="M405.475 423.125L387.027 392.66C384.576 393.234 382.432 393.599 380.999 393.718C380.801 393.737 380.614 393.747 380.446 393.757L383.282 398.075L400.959 425.496C400.93 425.378 400.9 425.259 400.87 425.141C403.025 424.736 404.714 424.439 406.108 424.153L405.485 423.115L405.475 423.125Z" fill="#DCCABD"/>
<path fill-rule="evenodd" clip-rule="evenodd" d="M445.061 155.189C445.08 150.308 443.677 145.1 440.149 148.253C438.005 150.17 437.699 158.263 437.847 165.338C437.946 169.923 439.428 173.796 436.711 176.286C429.794 182.62 410.851 202.531 394.092 218.144C398.331 229.024 401.681 234.537 405.93 245.417C440.199 227.452 443.806 204.369 456.612 181.8C464.191 177.462 473.47 170.901 472.383 168.658C471.286 166.405 462.985 170.051 462.985 170.051C462.985 170.051 475.831 161.632 473.292 158.994C470.752 156.355 460.011 163.174 460.011 163.174C460.011 163.174 472.857 149.695 469.072 147.156C465.288 144.616 454.043 157.492 454.043 157.492C456.207 153.154 461.997 140.871 457.758 140.95C454.003 141.019 446.711 152.521 445.07 155.17L445.061 155.189Z" fill="#E6B59F"/>
<path fill-rule="evenodd" clip-rule="evenodd" d="M402.985 209.676C400.001 212.571 397.017 215.427 394.082 218.144C398.321 229.024 401.671 234.537 405.92 245.417C433.124 231.158 440.999 213.668 449.497 195.782C449.359 196.02 449.221 196.257 449.092 196.504C435.298 222.314 415.614 232.532 414.082 227.937C413.005 224.705 407.768 215.941 402.985 209.666V209.676Z" fill="#CF7866"/>
<path fill-rule="evenodd" clip-rule="evenodd" d="M444.547 155.209C444.547 154.962 444.734 154.755 444.981 154.745C445.228 154.745 445.436 154.932 445.446 155.18C445.446 155.18 445.525 156.968 445.13 158.786C446.157 159.952 451.622 166.593 448.746 173.322C448.647 173.549 448.381 173.658 448.153 173.559C447.926 173.46 447.817 173.193 447.916 172.966C450.762 166.306 444.705 159.646 444.329 159.231C444.211 159.122 444.161 158.964 444.201 158.796C444.626 157.027 444.547 155.209 444.547 155.199V155.209Z" fill="#CF7866"/>
<path fill-rule="evenodd" clip-rule="evenodd" d="M448.361 158.342C448.143 158.213 448.084 157.936 448.213 157.719C448.341 157.512 448.618 157.442 448.835 157.571C448.865 157.591 458.598 163.48 459.675 170.98C459.715 171.227 459.537 171.454 459.29 171.494C459.043 171.533 458.815 171.355 458.776 171.108C457.758 164.023 448.39 158.352 448.361 158.342Z" fill="#CF7866"/>
<path fill-rule="evenodd" clip-rule="evenodd" d="M303.924 303.164L286.661 319.854L267.491 337.65C267.491 337.65 276.73 360.14 310.267 369.834L335.426 347.384L348.568 374.725C365.949 376.415 387.728 371.85 400.574 357.393L378.894 296.366L303.924 303.164Z" fill="#A32928"/>
<path fill-rule="evenodd" clip-rule="evenodd" d="M375.564 300.674C375.376 300.14 375.653 299.557 376.187 299.37C376.72 299.182 377.303 299.458 377.491 299.992L398.509 359.31C398.697 359.844 398.42 360.427 397.886 360.615C397.353 360.803 396.77 360.526 396.582 359.992L375.564 300.674Z" fill="white"/>
<path fill-rule="evenodd" clip-rule="evenodd" d="M372.175 304.36C371.987 303.826 372.264 303.243 372.797 303.055C373.331 302.868 373.914 303.144 374.102 303.678L395.119 362.996C395.307 363.53 395.031 364.113 394.497 364.301C393.963 364.488 393.38 364.212 393.193 363.678L372.175 304.36Z" fill="white"/>
<path fill-rule="evenodd" clip-rule="evenodd" d="M313.054 304.202C313.469 303.816 314.112 303.836 314.497 304.251C314.882 304.666 314.863 305.308 314.447 305.694L272.432 344.953C272.017 345.338 271.374 345.318 270.989 344.903C270.604 344.488 270.623 343.846 271.038 343.461L313.054 304.202Z" fill="white"/>
<path fill-rule="evenodd" clip-rule="evenodd" d="M310.89 300.348C311.305 299.963 311.947 299.982 312.333 300.387C312.718 300.802 312.698 301.445 312.293 301.83L270.406 341.158C269.991 341.544 269.349 341.524 268.963 341.109C268.578 340.694 268.598 340.052 269.003 339.666L310.89 300.348Z" fill="white"/>
<path fill-rule="evenodd" clip-rule="evenodd" d="M326.167 340.368C325.92 340.229 325.831 339.923 325.959 339.676C326.098 339.429 326.404 339.34 326.651 339.468L335.04 344.024C335.159 344.083 335.238 344.192 335.287 344.31L337.076 349.34C337.175 349.607 337.036 349.903 336.77 349.992C336.503 350.091 336.206 349.953 336.117 349.686L334.388 344.834L326.167 340.378V340.368Z" fill="#521514"/>
<path fill-rule="evenodd" clip-rule="evenodd" d="M295.228 128.055C297.264 123.618 300.732 119.488 302.609 123.836C303.746 126.474 300.623 133.944 297.501 140.298C295.475 144.419 292.511 147.304 293.924 150.713C297.521 159.369 306.325 185.407 314.951 206.632C306.523 214.715 301.157 218.302 292.728 226.385C269.22 195.654 275.673 173.203 273.568 147.344C268.519 140.209 262.866 130.357 264.803 128.776C266.74 127.195 272.738 134.004 272.738 134.004C272.738 134.004 264.635 120.96 268.044 119.636C271.453 118.312 278.331 129.023 278.331 129.023C278.331 129.023 272.362 111.385 276.858 110.674C281.355 109.962 286.137 126.385 286.137 126.385C285.999 121.543 285.92 107.956 289.734 109.814C293.104 111.464 294.882 124.962 295.248 128.055H295.228Z" fill="#E6B59F"/>
<path fill-rule="evenodd" clip-rule="evenodd" d="M310.436 195.199C311.918 199.073 313.43 202.927 314.942 206.632C306.513 214.715 301.147 218.302 292.718 226.385C274.052 201.988 274.27 182.818 274.102 163.006C274.121 163.282 274.151 163.549 274.171 163.836C275.811 193.055 289.359 210.614 292.679 207.087C295.011 204.616 303.459 198.855 310.446 195.199H310.436Z" fill="#CF7866"/>
<path fill-rule="evenodd" clip-rule="evenodd" d="M294.882 127.867C295.001 127.65 295.268 127.561 295.495 127.67C295.712 127.788 295.801 128.055 295.692 128.282C295.692 128.282 294.853 129.903 294.497 131.681C294.467 131.849 294.339 131.978 294.19 132.027C293.647 132.245 285.376 135.743 285.159 142.966C285.159 143.213 284.941 143.411 284.694 143.401C284.447 143.401 284.25 143.183 284.26 142.936C284.487 135.614 292.234 131.889 293.667 131.266C294.072 129.458 294.902 127.867 294.902 127.857L294.882 127.867Z" fill="#CF7866"/>
<path fill-rule="evenodd" clip-rule="evenodd" d="M290.811 128.618C291.058 128.589 291.285 128.766 291.315 129.013C291.345 129.261 291.167 129.488 290.92 129.517C290.89 129.517 280.001 130.713 276.098 136.711C275.959 136.919 275.683 136.978 275.475 136.84C275.268 136.701 275.208 136.425 275.347 136.217C279.487 129.863 290.791 128.618 290.821 128.618H290.811Z" fill="#CF7866"/>
<path fill-rule="evenodd" clip-rule="evenodd" d="M374.131 268.213C374.131 268.213 399.783 259.182 413.825 245.832C409.951 225.832 399.981 213.628 393.321 211.8L356.167 233.263L374.121 268.213H374.131Z" fill="#D93735"/>
<path fill-rule="evenodd" clip-rule="evenodd" d="M317.441 203.312C320.287 212.986 327.432 221.524 334.685 232.581L304.902 260.437C304.902 260.437 287.362 246.672 282.649 220.437C288.588 215.446 302.916 202.205 317.451 203.302L317.441 203.312Z" fill="#D93735"/>
<path fill-rule="evenodd" clip-rule="evenodd" d="M388.904 319.152C388.904 319.152 380.347 270.951 381.839 239.775C352.56 229.073 348.232 228.51 317.086 226.484C317.086 226.484 299.19 265.417 291.315 315.042C318.36 328.708 364.013 340.14 388.904 319.152Z" fill="#D93735"/>
<path fill-rule="evenodd" clip-rule="evenodd" d="M310.979 183.579C310.979 183.579 313.123 189.201 314.734 186.701C318.143 181.415 322.609 164.438 323.449 154.093L318.677 150.17C316.75 148.589 310.001 156.029 308.143 163.164C305.989 171.454 308.973 179.982 310.979 183.569V183.579Z" fill="#4D1400"/>
<path fill-rule="evenodd" clip-rule="evenodd" d="M317.214 186.879C317.214 186.879 311.177 175.861 300.406 180.565C293.054 183.776 293.262 198.599 299.813 204.429C305.851 209.804 316.938 204.824 317.066 202.265L317.224 186.879H317.214Z" fill="#E6B59F"/>
<path fill-rule="evenodd" clip-rule="evenodd" d="M362.481 224.488L336.197 224.281L334.102 235.091C333.143 240.041 338.242 245.111 344.527 245.526C351.187 245.97 359.112 241.474 360.278 235.871L362.481 224.488Z" fill="#E6B59F"/>
<path fill-rule="evenodd" clip-rule="evenodd" d="M362.57 223.786L350.93 224.004L335.436 227.808L334.181 233.717C343.41 237.966 356.206 235.674 360.228 234.784L362.56 223.776L362.57 223.786Z" fill="#CF7866"/>
<path fill-rule="evenodd" clip-rule="evenodd" d="M345.287 233.075C297.313 227.966 311.196 190.367 319.131 152.106L391.691 161.612C392.432 198.203 402.363 239.152 345.287 233.085V233.075Z" fill="#E6B59F"/>
<path fill-rule="evenodd" clip-rule="evenodd" d="M316.137 165.97C317.333 160.515 317.965 157.689 319.131 152.106L391.691 161.612C391.76 165.16 391.918 168.757 392.096 172.334C391.562 172.047 390.89 168.925 390.337 168.579C389.013 173.589 368.509 179.774 364.566 167.087C359.477 179.518 340.06 175.703 337.254 165.871C334.932 171.079 322.649 171.267 320.416 164.923C318.973 165.723 317.787 165.891 316.137 165.99V165.97Z" fill="#4D1400"/>
<path fill-rule="evenodd" clip-rule="evenodd" d="M388.321 194.448C388.321 194.448 392.847 190.684 398.963 190.407C419.319 189.488 407.195 224.162 390.703 215.19C387.452 213.421 385.021 210.802 385.238 209.537L388.321 194.458V194.448Z" fill="#E6B59F"/>
<path fill-rule="evenodd" clip-rule="evenodd" d="M392.017 195.437C392.017 195.437 382.234 180.456 386.454 165.812L399.477 162.067C403.153 161.01 403.756 171.938 401.701 179.814C399.606 187.838 394.774 192.848 392.017 195.437Z" fill="#4D1400"/>
<path fill-rule="evenodd" clip-rule="evenodd" d="M320.89 161.355C323.113 167.709 335.07 168.786 337.955 159.824C337.669 173.322 364.843 175.407 364.161 162.353C368.104 175.041 389.853 170.357 391.177 165.357C412.017 178.322 415.386 148.954 400.88 148.272C411.088 133.134 392.847 124.162 387.797 134.389C389.932 119.132 369.764 115.436 366.058 129.122C366.029 121.247 359.527 117.185 352.313 116.395C344.764 115.575 336.503 120.753 335.426 127.492C329.526 115.555 310.613 120.822 313.39 138.46C313.39 138.46 303.242 139.112 302.629 150.921C302.165 159.853 313.617 165.367 320.87 161.336L320.89 161.355Z" fill="#4D1400"/>
<path fill-rule="evenodd" clip-rule="evenodd" d="M401.424 147.442C403.124 144.676 403.875 142.126 403.934 139.883C403.973 138.411 398.311 143.806 393.084 136.454C389.616 141.76 369.566 145.693 365.624 133.006C363.43 145.812 341.928 143.707 342.214 130.209C338.074 138.569 329.25 136.8 327.027 130.446C324.477 131.859 317.422 134.073 314.003 129.596C313.153 132.067 312.857 135.031 313.4 138.48C316.246 141.83 318.272 144.102 325.525 140.071C327.748 146.425 335.11 148.786 340.979 140.832C340.693 154.33 365.199 154.853 366.108 143.006C371.009 154.27 392.6 149.349 393.924 144.349C395.673 146.77 397.58 148.085 401.424 147.462V147.442Z" fill="#612200"/>
<path fill-rule="evenodd" clip-rule="evenodd" d="M403.736 204.834C403.746 205.13 403.519 205.377 403.222 205.387C402.926 205.397 402.679 205.17 402.669 204.873C402.669 204.854 402.501 199.498 396.77 199.616C396.473 199.616 396.236 199.389 396.226 199.093C396.226 198.796 396.454 198.559 396.75 198.549C403.529 198.401 403.736 204.814 403.736 204.834Z" fill="#CF7866"/>
<path fill-rule="evenodd" clip-rule="evenodd" d="M405.1 198.174C405.268 198.411 405.218 198.747 404.971 198.915C404.734 199.083 404.398 199.033 404.23 198.786C404.082 198.569 403.894 198.381 403.677 198.213C403.044 197.729 402.135 197.462 401.078 197.531C399.971 197.601 398.707 198.035 397.382 198.964C396.404 199.656 395.406 200.614 394.438 201.899C394.329 202.047 394.576 201.731 394.586 201.741C394.645 201.78 394.754 201.859 394.863 201.939C395.11 202.106 395.376 202.294 395.633 202.531C396.454 203.322 396.74 204.162 396.434 205.15C396.167 206.02 395.406 206.968 394.122 208.105C393.904 208.302 393.558 208.282 393.371 208.055C393.173 207.838 393.193 207.492 393.42 207.304C394.556 206.306 395.209 205.506 395.426 204.834C395.594 204.28 395.426 203.796 394.912 203.312C394.724 203.134 394.487 202.976 394.28 202.828C394.181 202.759 394.082 202.689 393.963 202.601C393.45 202.205 393.183 201.83 393.608 201.267C394.655 199.893 395.732 198.855 396.79 198.104C398.282 197.047 399.744 196.553 401.039 196.474C402.373 196.385 403.519 196.751 404.349 197.373C404.655 197.61 404.922 197.877 405.129 198.174H405.1Z" fill="#CF7866"/>
<path fill-rule="evenodd" clip-rule="evenodd" d="M300.9 193.055C300.831 193.352 300.544 193.569 300.258 193.529C299.971 193.49 299.803 193.223 299.872 192.927C299.872 192.907 301.246 186.929 307.619 188.529C307.896 188.599 308.034 188.895 307.935 189.182C307.837 189.478 307.53 189.656 307.254 189.587C301.997 188.263 300.9 193.045 300.9 193.055Z" fill="#CF7866"/>
<path fill-rule="evenodd" clip-rule="evenodd" d="M299.813 187.778C299.586 187.996 299.25 188.006 299.072 187.798C298.884 187.591 298.924 187.245 299.151 187.027C299.853 186.365 300.623 185.891 301.424 185.624C302.382 185.298 303.39 185.269 304.378 185.545C305.347 185.822 306.285 186.395 307.135 187.304C308.143 188.361 309.032 189.883 309.714 191.899C309.991 192.729 309.378 192.986 308.578 193.312C308.331 193.411 308.064 193.52 307.827 193.658C307.194 194.033 306.868 194.478 306.849 195.061C306.829 195.773 307.185 196.711 307.926 197.946C308.074 198.184 307.985 198.529 307.728 198.707C307.471 198.885 307.155 198.836 307.007 198.599C306.167 197.195 305.762 196.089 305.791 195.17C305.821 194.122 306.355 193.352 307.382 192.739C307.698 192.551 308.015 192.423 308.291 192.314C308.489 192.235 308.766 192.571 308.696 192.373C308.064 190.496 307.234 189.093 306.325 188.114C305.584 187.324 304.773 186.83 303.973 186.603C303.183 186.375 302.392 186.405 301.631 186.662C300.989 186.879 300.376 187.265 299.803 187.798L299.813 187.778Z" fill="#CF7866"/>
<path fill-rule="evenodd" clip-rule="evenodd" d="M304.695 178.925C304.981 178.905 305.228 179.112 305.248 179.399C305.268 179.686 305.06 179.923 304.783 179.952C304.121 180.002 303.43 180.12 302.728 180.308C302.046 180.486 301.345 180.733 300.623 181.049C299.704 181.454 298.904 182.057 298.232 182.808C296.572 184.666 295.663 187.452 295.465 190.456C295.268 193.5 295.791 196.751 296.997 199.518C297.777 201.296 298.835 202.867 300.159 204.053C300.366 204.241 300.386 204.567 300.198 204.774C300.011 204.982 299.685 205.002 299.477 204.814C298.034 203.529 296.888 201.83 296.058 199.923C294.783 196.998 294.23 193.579 294.438 190.387C294.645 187.166 295.643 184.162 297.461 182.116C298.232 181.257 299.141 180.565 300.208 180.101C300.979 179.765 301.74 179.498 302.471 179.31C303.242 179.103 303.993 178.984 304.704 178.925H304.695Z" fill="#CF7866"/>
<path fill-rule="evenodd" clip-rule="evenodd" d="M408.845 202.65C408.875 202.373 409.122 202.166 409.408 202.195C409.685 202.225 409.892 202.472 409.863 202.759C409.596 205.259 408.825 207.818 407.61 210.041C406.474 212.136 404.952 213.935 403.124 215.11C402.887 215.259 402.57 215.199 402.422 214.952C402.274 214.715 402.343 214.399 402.58 214.251C404.26 213.164 405.663 211.494 406.721 209.547C407.867 207.442 408.598 205.022 408.845 202.65Z" fill="#CF7866"/>
<path fill-rule="evenodd" clip-rule="evenodd" d="M351.582 199.923C348.202 200.921 344.744 200.881 341.216 199.646C341.216 199.695 341.216 199.745 341.206 199.794C341.009 202.561 343.015 204.873 345.683 204.942L346.404 204.962C349.062 205.031 351.384 202.838 351.582 200.071C351.582 200.021 351.582 199.972 351.582 199.923Z" fill="#CF7866"/>
<path fill-rule="evenodd" clip-rule="evenodd" d="M360.712 206.84C367.096 211.069 362.521 224.29 348.341 223.964C339.882 223.767 330.179 218.984 330.88 212.037C331.611 204.765 337.165 206.771 343.084 208.658C351.078 211.217 354.645 202.798 360.722 206.83L360.712 206.84Z" fill="#290000"/>
<path fill-rule="evenodd" clip-rule="evenodd" d="M345.08 215.694C340.623 216 337.58 218.609 335.979 220.417C338.202 221.82 340.93 222.858 343.756 223.431C345.277 223.747 346.819 223.925 348.331 223.954C350.139 223.994 351.789 223.816 353.281 223.47C356.068 222.818 358.301 221.553 359.961 219.992C356.7 216.85 350.287 215.328 345.07 215.694H345.08Z" fill="#C42B23"/>
<path fill-rule="evenodd" clip-rule="evenodd" d="M323.064 199.814C326.493 200.417 329.023 202.373 328.706 204.192C328.39 206.01 325.347 206.998 321.918 206.395C318.489 205.792 315.959 203.836 316.275 202.018C316.592 200.199 319.635 199.211 323.064 199.814Z" fill="#CF7866"/>
<path fill-rule="evenodd" clip-rule="evenodd" d="M375.91 204.32C379.576 204.775 382.353 206.711 382.106 208.658C381.868 210.595 378.697 211.8 375.031 211.346C371.365 210.891 368.588 208.954 368.835 207.008C369.072 205.071 372.244 203.865 375.91 204.32Z" fill="#CF7866"/>
<path fill-rule="evenodd" clip-rule="evenodd" d="M324.991 177.749C324.744 178.282 324.111 178.52 323.568 178.272C323.034 178.025 322.797 177.393 323.044 176.85C323.736 175.367 324.971 174.043 326.483 173.213C327.382 172.719 328.39 172.393 329.437 172.324C330.495 172.245 331.592 172.423 332.669 172.927C334.19 173.628 335.643 174.982 336.849 177.176C337.135 177.689 336.947 178.342 336.424 178.628C335.91 178.915 335.258 178.727 334.971 178.203C334.003 176.444 332.896 175.387 331.769 174.863C331.038 174.527 330.297 174.409 329.586 174.458C328.854 174.508 328.153 174.735 327.511 175.091C326.394 175.703 325.485 176.672 324.981 177.749H324.991Z" fill="#290000"/>
<path fill-rule="evenodd" clip-rule="evenodd" d="M364.398 179.527C364.21 180.081 363.598 180.377 363.044 180.189C362.491 180.002 362.195 179.389 362.382 178.836C362.896 177.353 363.944 176.336 365.248 175.743C366.414 175.209 367.778 175.021 369.121 175.15C370.455 175.278 371.789 175.713 372.906 176.435C374.339 177.344 375.426 178.707 375.762 180.466C375.87 181.049 375.495 181.603 374.912 181.721C374.329 181.84 373.776 181.454 373.657 180.871C373.44 179.745 372.708 178.855 371.75 178.243C370.92 177.709 369.912 177.383 368.904 177.284C367.916 177.185 366.928 177.314 366.117 177.689C365.327 178.055 364.685 178.668 364.388 179.537L364.398 179.527Z" fill="#290000"/>
<path fill-rule="evenodd" clip-rule="evenodd" d="M372.155 194.063C372.293 194.883 371.74 195.664 370.92 195.802C370.1 195.941 369.319 195.387 369.181 194.567C368.904 193.006 368.114 191.79 367.086 191.01C366.394 190.486 365.584 190.15 364.784 190.051C363.993 189.952 363.193 190.071 362.491 190.437C361.562 190.911 360.752 191.82 360.228 193.223C359.942 194.004 359.072 194.399 358.291 194.103C357.511 193.816 357.116 192.946 357.402 192.166C358.212 190.002 359.556 188.559 361.118 187.759C362.392 187.107 363.776 186.889 365.129 187.057C366.463 187.225 367.778 187.749 368.894 188.599C370.495 189.814 371.73 191.682 372.145 194.053L372.155 194.063Z" fill="#290000"/>
<path fill-rule="evenodd" clip-rule="evenodd" d="M328.094 190.476C327.827 191.276 326.957 191.701 326.167 191.425C325.366 191.158 324.941 190.288 325.218 189.498C325.87 187.581 327.55 186.01 329.517 185.16C330.673 184.656 331.947 184.399 333.173 184.448C334.477 184.498 335.752 184.893 336.819 185.713C338.143 186.731 339.131 188.361 339.437 190.753C339.546 191.583 338.953 192.344 338.123 192.452C337.293 192.561 336.532 191.968 336.424 191.138C336.226 189.646 335.683 188.678 334.971 188.134C334.428 187.719 333.756 187.512 333.054 187.482C332.273 187.452 331.463 187.62 330.712 187.946C329.487 188.48 328.459 189.399 328.094 190.476Z" fill="#290000"/>
<path fill-rule="evenodd" clip-rule="evenodd" d="M344.714 196.029C344.438 196.909 343.627 197.442 342.916 197.225C342.204 197.008 341.849 196.108 342.135 195.229C342.422 194.35 343.222 193.816 343.934 194.033C344.645 194.251 345.001 195.15 344.714 196.029Z" fill="white"/>
<path fill-rule="evenodd" clip-rule="evenodd" d="M351.582 225.852C348.104 226.178 344.635 225.98 341.167 225.209C341.167 225.239 341.147 225.259 341.147 225.279C340.752 226.622 342.609 227.848 345.287 228.016L346.009 228.065C348.687 228.233 351.177 227.275 351.562 225.921C351.562 225.901 351.572 225.871 351.582 225.852Z" fill="#CF7866"/>
<path fill-rule="evenodd" clip-rule="evenodd" d="M302.461 252.571C302.313 252.334 302.382 252.018 302.629 251.869C302.866 251.721 303.183 251.79 303.331 252.037C304.25 253.51 304.754 255.16 304.902 257.018C305.05 258.846 304.862 260.862 304.388 263.105C304.329 263.381 304.062 263.559 303.785 263.5C303.509 263.441 303.331 263.174 303.39 262.897C303.845 260.753 304.032 258.826 303.884 257.097C303.746 255.407 303.291 253.905 302.461 252.571Z" fill="#521514"/>
<path fill-rule="evenodd" clip-rule="evenodd" d="M384.487 254.419C384.665 254.202 384.981 254.162 385.208 254.33C385.426 254.508 385.465 254.824 385.297 255.051C384.24 256.395 383.538 257.907 383.123 259.607C382.699 261.336 382.58 263.263 382.679 265.407C382.689 265.694 382.471 265.931 382.195 265.941C381.908 265.951 381.671 265.733 381.661 265.457C381.552 263.213 381.691 261.188 382.135 259.37C382.59 257.522 383.351 255.881 384.497 254.419H384.487Z" fill="#521514"/>
<path fill-rule="evenodd" clip-rule="evenodd" d="M321.167 388.846C301.671 388.846 285.87 404.656 285.87 424.143C285.87 443.629 301.681 459.449 321.167 459.449C340.653 459.449 356.463 443.639 356.463 424.143C356.463 404.647 340.663 388.846 321.167 388.846Z" fill="#4D1400"/>
<path fill-rule="evenodd" clip-rule="evenodd" d="M287.046 415.052L289.991 413.352L296.226 409.755L302.461 413.352L308.696 416.949V431.346L302.461 434.943L296.226 438.54L289.991 434.943L287.046 433.243C286.275 430.338 285.86 427.295 285.86 424.153C285.86 421.01 286.275 417.957 287.046 415.062V415.052Z" fill="#C9CACA"/>
<path fill-rule="evenodd" clip-rule="evenodd" d="M287.352 413.965L289.596 412.67L289.635 412.65L295.831 409.073C296.088 408.925 296.384 408.935 296.621 409.073C297.145 409.37 302.847 412.67 302.847 412.67L309.082 416.267C309.329 416.415 309.477 416.672 309.477 416.949V431.346C309.477 431.662 309.299 431.929 309.032 432.058L302.847 435.625L302.807 435.645L296.611 439.222C296.354 439.37 296.058 439.36 295.821 439.222C295.297 438.925 289.596 435.625 289.596 435.625L287.352 434.33C287.145 433.629 286.947 432.907 286.779 432.186L290.386 434.271L296.226 437.641L307.906 430.901V417.413L302.066 414.044L296.226 410.674L286.779 416.129C286.947 415.407 287.145 414.686 287.352 413.984V413.965Z" fill="#5C5C5B"/>
<path fill-rule="evenodd" clip-rule="evenodd" d="M321.167 409.745L327.392 413.352L333.627 416.949V424.143V431.346L327.392 434.943L321.167 438.54L314.931 434.943L308.696 431.346V424.143V416.949L314.931 413.352L321.167 409.745Z" fill="#5C5C5B"/>
<path fill-rule="evenodd" clip-rule="evenodd" d="M355.287 433.234L352.333 434.943L346.098 438.54L339.862 434.943L333.627 431.346V416.949L339.862 413.352L346.098 409.755L352.333 413.352L355.287 415.062C356.058 417.967 356.473 421.01 356.473 424.153C356.473 427.295 356.058 430.338 355.287 433.243V433.234Z" fill="#C9CACA"/>
<path fill-rule="evenodd" clip-rule="evenodd" d="M354.971 434.32L352.718 435.625L352.679 435.645L346.483 439.222C346.226 439.37 345.93 439.36 345.692 439.222C345.169 438.925 339.467 435.625 339.467 435.625L333.232 432.028C332.985 431.88 332.837 431.623 332.837 431.346V416.949C332.837 416.633 333.015 416.366 333.281 416.237L339.467 412.67L339.507 412.65L345.702 409.073C345.959 408.925 346.256 408.935 346.493 409.073C347.017 409.37 352.718 412.67 352.718 412.67L354.971 413.975C355.179 414.676 355.376 415.397 355.544 416.119L351.928 414.034L346.088 410.664L334.408 417.413V430.901L340.248 434.271L346.088 437.641L355.544 432.176C355.376 432.897 355.179 433.619 354.971 434.32Z" fill="#4D1400"/>
<path fill-rule="evenodd" clip-rule="evenodd" d="M296.275 399.113V409.508L290.04 413.105L287.115 414.795C288.765 408.777 291.967 403.392 296.275 399.113Z" fill="#5C5C5B"/>
<path fill-rule="evenodd" clip-rule="evenodd" d="M312.293 389.973L314.971 391.524L321.206 395.121V409.518L314.971 413.115L308.736 416.712L302.501 413.115L296.266 409.518V399.123C300.633 394.775 306.137 391.573 312.283 389.973H312.293Z" fill="#C9CACA"/>
<path fill-rule="evenodd" clip-rule="evenodd" d="M313.4 389.706C314.408 390.289 315.366 390.842 315.366 390.842L321.602 394.439C321.849 394.587 321.997 394.844 321.997 395.121V409.518C321.997 409.834 321.819 410.101 321.552 410.23L309.131 417.394C308.874 417.542 308.578 417.532 308.341 417.394C307.817 417.097 302.115 413.797 302.115 413.797L295.88 410.2C295.633 410.052 295.485 409.795 295.485 409.518V399.933C295.989 399.39 296.522 398.876 297.056 398.362V409.064L302.896 412.433L308.736 415.803L320.416 409.054V395.566L314.576 392.196L311.226 390.259C311.937 390.052 312.659 389.864 313.39 389.696L313.4 389.706Z" fill="#5C5C5B"/>
<path fill-rule="evenodd" clip-rule="evenodd" d="M346.137 399.192V409.508L339.902 413.105L333.667 416.702L327.431 413.105L321.196 409.508V395.111L327.431 391.514L330.08 389.982C336.246 391.593 341.76 394.824 346.127 399.192H346.137Z" fill="#C9CACA"/>
<path fill-rule="evenodd" clip-rule="evenodd" d="M346.928 400.012V409.508C346.928 409.824 346.75 410.091 346.483 410.22L334.062 417.384C333.805 417.532 333.509 417.522 333.272 417.384C332.748 417.087 327.046 413.787 327.046 413.787L320.811 410.19C320.564 410.042 320.416 409.785 320.416 409.508V395.111C320.416 394.795 320.594 394.528 320.86 394.399L328.983 389.706C329.714 389.874 330.436 390.062 331.147 390.269L321.987 395.556V409.044L327.827 412.413L333.667 415.783L345.347 409.034V398.411C345.89 398.925 346.414 399.449 346.918 399.992L346.928 400.012Z" fill="#5C5C5B"/>
<path fill-rule="evenodd" clip-rule="evenodd" d="M355.208 414.765L352.333 413.105L346.098 409.508V399.152C350.376 403.421 353.558 408.777 355.208 414.775V414.765Z" fill="#4D1400"/>
<path fill-rule="evenodd" clip-rule="evenodd" d="M355.189 414.805C352.145 413.046 349.102 411.277 346.058 409.538V399.063L346.127 399.133C348.281 401.287 350.169 403.718 351.71 406.366C353.232 408.975 354.428 411.791 355.248 414.765L355.278 414.854L355.198 414.805H355.189ZM352.353 413.075L355.149 414.686C354.339 411.751 353.153 408.975 351.651 406.396C350.119 403.777 348.272 401.376 346.147 399.241V409.479L352.362 413.065L352.353 413.075Z" fill="#4D1400"/>
<path fill-rule="evenodd" clip-rule="evenodd" d="M287.115 433.49L290.04 435.18L296.275 438.777V449.172C291.977 444.894 288.765 439.518 287.115 433.49Z" fill="#4D1400"/>
<path fill-rule="evenodd" clip-rule="evenodd" d="M296.275 449.172V438.777L302.511 435.18L308.746 431.583L314.981 435.18L321.216 438.777V453.174L314.981 456.771L312.303 458.323C306.157 456.732 300.653 453.52 296.285 449.182L296.275 449.172Z" fill="#C9CACA"/>
<path fill-rule="evenodd" clip-rule="evenodd" d="M295.485 448.362V438.777C295.485 438.461 295.663 438.194 295.93 438.065L302.115 434.498L302.155 434.479L308.35 430.901C308.607 430.753 308.904 430.763 309.141 430.901C309.665 431.198 315.366 434.498 315.366 434.498L321.602 438.095C321.849 438.243 321.997 438.5 321.997 438.777V453.174C321.997 453.49 321.819 453.757 321.552 453.886L315.366 457.453L315.327 457.473L313.4 458.579C312.669 458.411 311.947 458.224 311.236 458.016L320.416 452.71V439.222L314.576 435.852L308.736 432.482L297.056 439.232V449.933C296.513 449.429 295.989 448.905 295.485 448.362Z" fill="#4D1400"/>
<path fill-rule="evenodd" clip-rule="evenodd" d="M330.09 458.303L327.441 456.771L321.206 453.174V438.777L327.441 435.18L333.677 431.583L339.912 435.18L346.147 438.777V449.093C341.779 453.471 336.266 456.702 330.1 458.303H330.09Z" fill="#C9CACA"/>
<path fill-rule="evenodd" clip-rule="evenodd" d="M328.993 458.569C327.995 457.996 327.046 457.453 327.046 457.453L320.811 453.856C320.564 453.708 320.416 453.451 320.416 453.174V438.777C320.416 438.461 320.594 438.194 320.86 438.065L327.046 434.498L327.086 434.479L333.281 430.901C333.538 430.753 333.835 430.763 334.072 430.901C334.596 431.198 340.297 434.498 340.297 434.498L346.532 438.095C346.779 438.243 346.928 438.5 346.928 438.777V448.273C346.414 448.817 345.89 449.34 345.357 449.854V439.232L339.517 435.862L333.677 432.492L321.997 439.241V452.73L327.837 456.099L331.157 458.016C330.445 458.224 329.724 458.411 328.993 458.579V458.569Z" fill="#4D1400"/>
<path fill-rule="evenodd" clip-rule="evenodd" d="M346.098 449.143V438.787L352.333 435.19L355.208 433.53C353.558 439.528 350.376 444.884 346.098 449.152V449.143Z" fill="#4D1400"/>
<path fill-rule="evenodd" clip-rule="evenodd" d="M346.058 449.143V438.767C349.131 436.988 352.195 435.22 355.268 433.451L355.238 433.54C354.418 436.514 353.222 439.33 351.701 441.939C350.159 444.587 348.272 447.018 346.117 449.172L346.048 449.241V449.143H346.058ZM346.137 445.981V449.044C348.262 446.909 350.119 444.508 351.641 441.89C353.143 439.311 354.329 436.534 355.139 433.599L346.127 438.797V445.971L346.137 445.981Z" fill="#4D1400"/>
<path fill-rule="evenodd" clip-rule="evenodd" d="M352.046 407.038C353.153 420.654 346.75 434.39 334.309 442.018C319.151 451.317 299.981 448.53 288.034 436.356C286.631 432.552 285.86 428.431 285.86 424.143C285.86 404.647 301.671 388.846 321.157 388.846C334.447 388.846 346.019 396.188 352.036 407.038H352.046Z" fill="#4D1400"/>
<path fill-rule="evenodd" clip-rule="evenodd" d="M287.046 415.052L289.991 413.352L296.226 409.755L302.461 413.352L308.696 416.949V431.346L302.461 434.943L296.226 438.54L289.991 434.943L287.046 433.243C286.275 430.338 285.86 427.295 285.86 424.153C285.86 421.01 286.275 417.957 287.046 415.062V415.052Z" fill="white"/>
<path fill-rule="evenodd" clip-rule="evenodd" d="M287.352 413.965L289.596 412.67L289.635 412.65L295.831 409.073C296.088 408.925 296.384 408.935 296.621 409.073C297.145 409.37 302.847 412.67 302.847 412.67L309.082 416.267C309.329 416.415 309.477 416.672 309.477 416.949V431.346C309.477 431.662 309.299 431.929 309.032 432.058L302.847 435.625L302.807 435.645L296.611 439.222C296.354 439.37 296.058 439.36 295.821 439.222C295.297 438.925 289.596 435.625 289.596 435.625L287.352 434.33C287.145 433.629 286.947 432.907 286.779 432.186L290.386 434.271L296.226 437.641L307.906 430.901V417.413L302.066 414.044L296.226 410.674L286.779 416.129C286.947 415.407 287.145 414.686 287.352 413.984V413.965Z" fill="#4D1400"/>
<path fill-rule="evenodd" clip-rule="evenodd" d="M321.167 409.745L327.392 413.352L333.627 416.949V424.143V431.346L327.392 434.943L321.167 438.54L314.931 434.943L308.696 431.346V424.143V416.949L314.931 413.352L321.167 409.745Z" fill="#4D1400"/>
<path fill-rule="evenodd" clip-rule="evenodd" d="M341.75 436.03L339.862 434.933L333.627 431.336V416.939L339.862 413.342L346.098 409.745L352.046 413.184C351.345 421.623 347.797 429.745 341.76 436.03H341.75Z" fill="white"/>
<path fill-rule="evenodd" clip-rule="evenodd" d="M341.187 436.613C340.208 436.05 339.467 435.625 339.467 435.625L333.232 432.028C332.985 431.88 332.837 431.623 332.837 431.346V416.949C332.837 416.633 333.015 416.366 333.281 416.237L339.467 412.67L339.507 412.65L345.702 409.073C345.959 408.925 346.256 408.935 346.493 409.073C346.908 409.31 350.613 411.455 352.105 412.314C352.066 412.888 352.026 413.471 351.957 414.044L351.928 414.024L346.088 410.654L334.408 417.403V430.892L340.248 434.261L342.303 435.447C341.937 435.842 341.562 436.228 341.177 436.613H341.187Z" fill="#4D1400"/>
<path fill-rule="evenodd" clip-rule="evenodd" d="M296.275 399.113V409.508L290.04 413.105L287.115 414.795C288.765 408.777 291.967 403.392 296.275 399.113Z" fill="#4D1400"/>
<path fill-rule="evenodd" clip-rule="evenodd" d="M312.293 389.973L314.971 391.524L321.206 395.121V409.518L314.971 413.115L308.736 416.712L302.501 413.115L296.266 409.518V399.123C300.633 394.775 306.137 391.573 312.283 389.973H312.293Z" fill="white"/>
<path fill-rule="evenodd" clip-rule="evenodd" d="M313.4 389.706C314.408 390.289 315.366 390.842 315.366 390.842L321.602 394.439C321.849 394.587 321.997 394.844 321.997 395.121V409.518C321.997 409.834 321.819 410.101 321.552 410.23L309.131 417.394C308.874 417.542 308.578 417.532 308.341 417.394C307.817 417.097 302.115 413.797 302.115 413.797L295.88 410.2C295.633 410.052 295.485 409.795 295.485 409.518V399.933C295.989 399.39 296.522 398.876 297.056 398.362V409.064L302.896 412.433L308.736 415.803L320.416 409.054V395.566L314.576 392.196L311.226 390.259C311.937 390.052 312.659 389.864 313.39 389.696L313.4 389.706Z" fill="#4D1400"/>
<path fill-rule="evenodd" clip-rule="evenodd" d="M346.137 399.192V409.508L339.902 413.105L333.667 416.702L327.431 413.105L321.196 409.508V395.111L327.431 391.514L330.08 389.982C336.246 391.593 341.76 394.824 346.127 399.192H346.137Z" fill="white"/>
<path fill-rule="evenodd" clip-rule="evenodd" d="M346.928 400.012V409.508C346.928 409.824 346.75 410.091 346.483 410.22L334.062 417.384C333.805 417.532 333.509 417.522 333.272 417.384C332.748 417.087 327.046 413.787 327.046 413.787L320.811 410.19C320.564 410.042 320.416 409.785 320.416 409.508V395.111C320.416 394.795 320.594 394.528 320.86 394.399L328.983 389.706C329.714 389.874 330.436 390.062 331.147 390.269L321.987 395.556V409.044L327.827 412.413L333.667 415.783L345.347 409.034V398.411C345.89 398.925 346.414 399.449 346.918 399.992L346.928 400.012Z" fill="#4D1400"/>
<path fill-rule="evenodd" clip-rule="evenodd" d="M352.046 407.038C352.204 409.014 352.214 410.99 352.056 412.957L346.088 409.508V399.152C348.42 401.484 350.426 404.133 352.046 407.038Z" fill="#4D1400"/>
<path fill-rule="evenodd" clip-rule="evenodd" d="M352.086 407.028C352.165 408.016 352.204 409.004 352.204 409.992C352.204 410.981 352.165 411.969 352.096 412.957V413.016C350.08 411.85 348.064 410.684 346.048 409.528V399.054L346.117 399.123C347.283 400.289 348.38 401.544 349.378 402.858C350.376 404.172 351.276 405.565 352.086 407.008V407.028ZM352.135 409.992C352.135 409.014 352.096 408.026 352.017 407.048C351.216 405.605 350.317 404.222 349.319 402.907C348.341 401.613 347.274 400.388 346.137 399.241V409.479L352.027 412.878C352.096 411.919 352.135 410.951 352.135 409.982V409.992Z" fill="#4D1400"/>
<path fill-rule="evenodd" clip-rule="evenodd" d="M287.115 433.49L290.04 435.18L296.275 438.777V442.68C293.281 440.99 290.505 438.876 288.034 436.356C287.688 435.417 287.382 434.459 287.115 433.49Z" fill="#4D1400"/>
<path fill-rule="evenodd" clip-rule="evenodd" d="M296.275 442.68V438.777L302.511 435.18L308.746 431.583L314.981 435.18L321.216 438.777V446.989C312.629 448.491 303.795 446.929 296.285 442.68H296.275Z" fill="white"/>
<path fill-rule="evenodd" clip-rule="evenodd" d="M295.485 442.226V438.777C295.485 438.461 295.663 438.194 295.93 438.065L302.115 434.498L302.155 434.479L308.35 430.901C308.607 430.753 308.904 430.763 309.141 430.901C309.665 431.198 315.366 434.498 315.366 434.498L321.602 438.095C321.849 438.243 321.997 438.5 321.997 438.777V446.84C321.473 446.939 320.949 447.038 320.426 447.117V439.232L314.586 435.862L308.746 432.492L297.066 439.241V443.125C296.532 442.838 296.009 442.542 295.495 442.235L295.485 442.226Z" fill="#4D1400"/>
<path fill-rule="evenodd" clip-rule="evenodd" d="M321.206 446.989V438.777L327.441 435.18L333.677 431.583L339.912 435.18L341.621 436.168C339.487 438.372 337.046 440.338 334.309 442.018C330.169 444.558 325.722 446.198 321.206 446.989Z" fill="white"/>
<path fill-rule="evenodd" clip-rule="evenodd" d="M320.416 447.117V438.777C320.416 438.461 320.594 438.194 320.86 438.065L327.046 434.498L327.086 434.479L333.281 430.901C333.538 430.753 333.835 430.763 334.072 430.901C334.596 431.198 340.297 434.498 340.297 434.498L342.175 435.585C341.809 435.981 341.434 436.366 341.048 436.751L339.517 435.862L333.677 432.492L321.997 439.241V446.85C321.473 446.959 320.949 447.048 320.426 447.127L320.416 447.117Z" fill="#4D1400"/>
</g>
<defs>
<clipPath id="clip0_76_3020">
<rect width="462.748" height="353.726" fill="white" transform="translate(10.8696 105.723)"/>
</clipPath>
</defs>
</svg>
