<svg width="34" height="12" viewBox="0 0 34 12" fill="none" xmlns="http://www.w3.org/2000/svg">
<path d="M8.29167 11.5C7.54 11.5 6.91667 10.8767 6.91667 10.125V8.75H3.25V10.125C3.25 10.8767 2.62667 11.5 1.875 11.5C1.12333 11.5 0.5 10.8767 0.5 10.125V2.33333C0.5 1.325 1.325 0.5 2.33333 0.5H7.83333C8.84167 0.5 9.66667 1.325 9.66667 2.33333V10.125C9.66667 10.8767 9.04333 11.5 8.29167 11.5ZM6.91667 3.25H3.25V6H6.91667V3.25ZM19.75 6C20.7583 6 21.5833 6.825 21.5833 7.83333V9.66667C21.5833 10.675 20.7583 11.5 19.75 11.5H14.25C13.2417 11.5 12.4167 10.675 12.4167 9.66667V2.33333C12.4167 1.325 13.2417 0.5 14.25 0.5H19.75C20.7583 0.5 21.5833 1.325 21.5833 2.33333V4.16667C21.5833 5.175 20.7583 6 19.75 6ZM15.1667 3.25V4.625H18.8333V3.25H15.1667ZM18.8333 7.375H15.1667V8.75H18.8333V7.375ZM33.5 2.79167C33.5 3.54333 32.8767 4.16667 32.125 4.16667C31.8404 4.16511 31.5631 4.07643 31.3304 3.91255C31.0976 3.74867 30.9207 3.51745 30.8233 3.25H27.0833V8.75H30.8233C31.0067 8.21833 31.52 7.83333 32.125 7.83333C32.8767 7.83333 33.5 8.45667 33.5 9.20833V9.66667C33.5 10.675 32.675 11.5 31.6667 11.5H26.1667C25.1583 11.5 24.3333 10.675 24.3333 9.66667V2.33333C24.3333 1.325 25.1583 0.5 26.1667 0.5H31.6667C32.675 0.5 33.5 1.325 33.5 2.33333V2.79167Z" fill="white"/>
</svg>
