<svg width="19" height="28" viewBox="0 0 19 28" fill="none" xmlns="http://www.w3.org/2000/svg">
<path d="M0 9.33333C0 4.17868 4.17868 0 9.33333 0C14.488 0 18.6667 4.17868 18.6667 9.33333C18.6667 12.0333 17.774 14.9809 16.2005 17.2741C14.81 19.3007 12.8092 20.916 10.3333 21.2639V21.6667C10.3333 22.2189 10.7811 22.6667 11.3333 22.6667H15.6667C17.3235 22.6667 18.6667 24.0099 18.6667 25.6667V27C18.6667 27.5523 18.2189 28 17.6667 28C17.1144 28 16.6667 27.5523 16.6667 27V25.6667C16.6667 25.1144 16.2189 24.6667 15.6667 24.6667H11.3333C9.67653 24.6667 8.33333 23.3235 8.33333 21.6667V21.2639C5.85749 20.916 3.85663 19.3007 2.46611 17.2741C0.892693 14.9809 0 12.0333 0 9.33333ZM10.5595 4.14184C10.022 4.01525 9.48347 4.34843 9.35693 4.886C9.2304 5.42359 9.56347 5.962 10.1011 6.08859C11.3221 6.37612 12.2861 7.33825 12.5763 8.55829C12.704 9.09559 13.2432 9.42757 13.7804 9.29979C14.3177 9.17201 14.6497 8.63285 14.522 8.09556C14.0568 6.13945 12.5173 4.60285 10.5595 4.14184Z" fill="white"/>
</svg>
