<svg width="27" height="26" viewBox="0 0 27 26" fill="none" xmlns="http://www.w3.org/2000/svg">
<path d="M13.8 0.200012C13.3582 0.200012 13 0.558188 13 1.00001V5.16001C13 7.3626 14.483 9.21793 16.5052 9.7832C16.1531 14.1682 14.8849 17.4395 13.8464 19.4581C14.1408 19.8029 14.4179 20.0615 14.6335 20.2418C15.4633 20.9359 16.2 22.0679 16.2 23.4781C16.2 24.3471 15.9174 25.1499 15.4391 25.8H24.1999C25.5254 25.8 26.5999 24.7255 26.5999 23.4V22.9082C26.5999 22.3522 26.4102 21.8384 26.1172 21.4176C25.2519 20.1751 22.8064 16.1547 22.2947 9.7832C24.3169 9.21793 25.7999 7.3626 25.7999 5.16001V1.00001C25.7999 0.558188 25.4417 0.200012 25 0.200012H23.7999C23.1372 0.200012 22.5999 0.737276 22.5999 1.40001V2.60001C22.5999 3.04105 22.243 3.39891 21.8019 3.40001C21.3609 3.40112 21.0022 3.04505 21 2.60401V2.60001L20.9939 1.39401C20.9907 0.733612 20.4543 0.200012 19.7939 0.200012H19.006C18.3456 0.200012 17.8092 0.733612 17.806 1.39401L17.7999 2.60401C17.7977 3.04505 17.439 3.40112 16.9979 3.40001C16.5569 3.39891 16.2 3.04105 16.2 2.60001V1.40001C16.2 0.737276 15.6627 0.200012 15 0.200012H13.8ZM7.39995 5.00001C4.74899 5.00001 2.59995 7.14905 2.59995 9.80001C2.59995 11.0294 3.06211 12.1508 3.82217 13H3.39995C2.5163 13 1.79995 13.7163 1.79995 14.6C1.79995 15.4837 2.5163 16.2 3.39995 16.2H4.23051C3.63733 19.0768 2.0679 20.7373 1.19294 21.4691C0.637807 21.9335 0.199951 22.6464 0.199951 23.4781C0.199951 24.7605 1.2395 25.8 2.52187 25.8H12.278C13.5604 25.8 14.6 24.7605 14.6 23.4781C14.6 22.6464 14.162 21.9335 13.607 21.4691C12.732 20.7373 11.1626 19.0768 10.5694 16.2H11.4C12.2836 16.2 13 15.4837 13 14.6C13 13.7163 12.2836 13 11.4 13H10.9777C11.7378 12.1508 12.2 11.0294 12.2 9.80001C12.2 7.14905 10.0509 5.00001 7.39995 5.00001Z" fill="white"/>
</svg>
