<svg width="20" height="20" viewBox="0 0 20 20" fill="none" xmlns="http://www.w3.org/2000/svg">
<path d="M11.0281 0.000986255C11.7578 -0.00181397 12.4876 0.00552015 13.2171 0.0229863L13.4111 0.0299863C13.6351 0.0379863 13.8561 0.0479863 14.1231 0.0599863C15.1871 0.109986 15.9131 0.277986 16.5501 0.524986C17.2101 0.778986 17.7661 1.12299 18.3221 1.67899C18.8305 2.17859 19.2239 2.78293 19.4751 3.44999C19.7221 4.08699 19.8901 4.81399 19.9401 5.87799C19.9521 6.14399 19.9621 6.36599 19.9701 6.58999L19.9761 6.78399C19.9939 7.51318 20.0015 8.24258 19.9991 8.97199L20.0001 9.71799V11.028C20.0026 11.7577 19.9949 12.4875 19.9771 13.217L19.9711 13.411C19.9631 13.635 19.9531 13.856 19.9411 14.123C19.8911 15.187 19.7211 15.913 19.4751 16.55C19.2247 17.2177 18.8312 17.8226 18.3221 18.322C17.8221 18.8303 17.2174 19.2237 16.5501 19.475C15.9131 19.722 15.1871 19.89 14.1231 19.94C13.8561 19.952 13.6351 19.962 13.4111 19.97L13.2171 19.976C12.4876 19.9938 11.7578 20.0014 11.0281 19.999L10.2821 20H8.97309C8.24335 20.0025 7.51361 19.9948 6.78409 19.977L6.59009 19.971C6.3527 19.9624 6.11536 19.9524 5.87809 19.941C4.81409 19.891 4.08809 19.721 3.45009 19.475C2.78277 19.2243 2.17833 18.8308 1.67909 18.322C1.17013 17.8223 0.776313 17.2175 0.525089 16.55C0.278089 15.913 0.110089 15.187 0.0600887 14.123C0.0489516 13.8857 0.0389515 13.6484 0.0300887 13.411L0.0250888 13.217C0.0066524 12.4875 -0.00168183 11.7577 8.87195e-05 11.028V8.97199C-0.00270225 8.24259 0.00463187 7.51318 0.0220888 6.78399L0.0290888 6.58999C0.0370888 6.36599 0.0470887 6.14399 0.0590887 5.87799C0.109089 4.81299 0.277089 4.08799 0.524089 3.44999C0.775461 2.78261 1.17005 2.17843 1.68009 1.67999C2.17898 1.17074 2.78305 0.776559 3.45009 0.524986C4.08809 0.277986 4.81309 0.109986 5.87809 0.0599863L6.59009 0.0299863L6.78409 0.0249864C7.51327 0.00655924 8.24267 -0.00177499 8.97209 -1.36727e-05L11.0281 0.000986255ZM10.0001 5.00099C9.33759 4.99162 8.67985 5.11401 8.06507 5.36105C7.45029 5.6081 6.89074 5.97486 6.41893 6.44004C5.94713 6.90522 5.57249 7.45952 5.31678 8.07075C5.06106 8.68197 4.92938 9.33793 4.92938 10.0005C4.92938 10.663 5.06106 11.319 5.31678 11.9302C5.57249 12.5414 5.94713 13.0958 6.41893 13.5609C6.89074 14.0261 7.45029 14.3929 8.06507 14.6399C8.67985 14.887 9.33759 15.0094 10.0001 15C11.3262 15 12.5979 14.4732 13.5356 13.5355C14.4733 12.5978 15.0001 11.3261 15.0001 9.99999C15.0001 8.6739 14.4733 7.40213 13.5356 6.46445C12.5979 5.52677 11.3262 5.00099 10.0001 5.00099ZM10.0001 7.00099C10.3986 6.99364 10.7946 7.06578 11.1649 7.21319C11.5352 7.3606 11.8724 7.58033 12.1569 7.85953C12.4413 8.13873 12.6673 8.47182 12.8215 8.83933C12.9758 9.20684 13.0553 9.6014 13.0554 9.99998C13.0554 10.3986 12.9761 10.7931 12.8219 11.1607C12.6678 11.5283 12.4419 11.8614 12.1576 12.1407C11.8732 12.42 11.5361 12.6399 11.1658 12.7874C10.7955 12.9349 10.3996 13.0072 10.0011 13C9.20544 13 8.44238 12.6839 7.87977 12.1213C7.31716 11.5587 7.00109 10.7956 7.00109 9.99999C7.00109 9.20434 7.31716 8.44127 7.87977 7.87867C8.44238 7.31606 9.20544 6.99999 10.0011 6.99999L10.0001 7.00099ZM15.2501 3.50099C14.9275 3.5139 14.6224 3.65114 14.3987 3.88396C14.175 4.11678 14.0501 4.42712 14.0501 4.74999C14.0501 5.07285 14.175 5.38319 14.3987 5.61601C14.6224 5.84884 14.9275 5.98607 15.2501 5.99899C15.5816 5.99899 15.8996 5.86729 16.134 5.63287C16.3684 5.39845 16.5001 5.08051 16.5001 4.74899C16.5001 4.41747 16.3684 4.09952 16.134 3.8651C15.8996 3.63068 15.5816 3.49899 15.2501 3.49899V3.50099Z" fill="white"/>
</svg>
