<svg width="18" height="17" viewBox="0 0 18 17" fill="none" xmlns="http://www.w3.org/2000/svg">
<path d="M5.44412 10.906L5.89912 11.359C5.89912 11.359 6.98212 12.435 9.93712 9.49698C12.8921 6.55898 11.8091 5.48298 11.8091 5.48298L11.5231 5.19698C10.8161 4.49498 10.7491 3.36698 11.3661 2.54298L12.6261 0.859979C13.3901 -0.160021 14.8651 -0.29502 15.7401 0.57498L17.3101 2.13498C17.7431 2.56698 18.0331 3.12498 17.9981 3.74498C17.9081 5.33198 17.1901 8.74498 13.1861 12.727C8.93912 16.949 4.95412 17.117 3.32512 16.965C2.80912 16.917 2.36112 16.655 2.00012 16.295L0.58012 14.883C-0.379879 13.93 -0.10988 12.295 1.11812 11.628L3.02812 10.589C3.83412 10.151 4.81412 10.28 5.44412 10.906Z" fill="white"/>
</svg>
