<svg width="18" height="18" viewBox="0 0 18 18" fill="none" xmlns="http://www.w3.org/2000/svg">
<path d="M15.7499 15.75L12.4927 12.4928M12.4927 12.4928C13.0498 11.9356 13.4918 11.2741 13.7933 10.5462C14.0949 9.81819 14.2501 9.03795 14.2501 8.25C14.2501 7.46205 14.0949 6.68181 13.7933 5.95384C13.4918 5.22587 13.0498 4.56442 12.4927 4.00725C11.9355 3.45009 11.274 3.00812 10.5461 2.70658C9.8181 2.40505 9.03786 2.24985 8.24991 2.24985C7.46196 2.24985 6.68172 2.40505 5.95375 2.70658C5.22578 3.00812 4.56433 3.45009 4.00716 4.00725C2.88191 5.1325 2.24976 6.65866 2.24976 8.25C2.24976 9.84134 2.88191 11.3675 4.00716 12.4928C5.13241 13.618 6.65857 14.2502 8.24991 14.2502C9.84125 14.2502 11.3674 13.618 12.4927 12.4928Z" stroke="#333333" stroke-width="2.5" stroke-linecap="round" stroke-linejoin="round"/>
</svg>
