<svg width="30" height="26" viewBox="0 0 30 26" fill="none" xmlns="http://www.w3.org/2000/svg">
<path d="M16.6146 1.1362C15.9543 -0.201656 14.0466 -0.201643 13.3863 1.1362L10.2424 7.50649L3.21232 8.52801C1.73592 8.74254 1.14641 10.5569 2.21473 11.5983L7.30172 16.5568L6.10084 23.5585C5.84865 25.0289 7.39202 26.1503 8.71256 25.456L15.0005 22.1503L21.2883 25.456C22.6089 26.1503 24.1522 25.0289 23.8999 23.5585L22.6991 16.5568L27.7861 11.5983C28.8545 10.5569 28.2649 8.74254 26.7885 8.52801L19.7585 7.50649L16.6146 1.1362ZM0.552424 2.04136C0.207409 2.47261 0.27733 3.1019 0.708597 3.44692L4.04193 6.11358C4.47318 6.4586 5.10248 6.38868 5.44749 5.95741C5.7925 5.52614 5.72258 4.89686 5.29132 4.55185L1.95798 1.88518C1.52672 1.54017 0.897424 1.61009 0.552424 2.04136ZM29.4475 21.2908C29.7926 20.8595 29.7226 20.2301 29.2914 19.8852L25.9581 17.2185C25.5267 16.8735 24.8975 16.9435 24.5525 17.3747C24.2074 17.806 24.2774 18.4352 24.7086 18.7803L28.0419 21.4469C28.4733 21.7919 29.1025 21.722 29.4475 21.2908ZM0.708597 19.8852C0.27733 20.2301 0.207409 20.8595 0.552424 21.2908C0.897424 21.722 1.52672 21.7919 1.95798 21.4469L5.29132 18.7803C5.72258 18.4352 5.7925 17.806 5.44749 17.3747C5.10248 16.9435 4.47318 16.8735 4.04193 17.2185L0.708597 19.8852ZM29.4475 2.04136C29.7926 2.47261 29.7226 3.1019 29.2914 3.44692L25.9581 6.11358C25.5267 6.4586 24.8975 6.38868 24.5525 5.95741C24.2074 5.52614 24.2774 4.89686 24.7086 4.55185L28.0419 1.88518C28.4733 1.54017 29.1025 1.61009 29.4475 2.04136Z" fill="#3CA642"/>
</svg>
